<svg id="Layer_1" xmlns="http://www.w3.org/2000/svg" viewBox="0 0 1080 384"><style>.st0{fill:#fff}</style><path class="st0" d="M45.1 22.1C64.4 7.7 83.3 0 112.5 0c14 0 30.9 4.8 42.8 8.9 3.1 1 5.5 1.6 7.8 1.5-.1 6 1.7 22.4 2.9 38.4-1.4 1.7-6.2 1.7-7.8.1-2.9-18-11.8-39.1-49.3-39.1-39.7 0-68.4 32.2-68.4 77.4 0 46.2 33.2 82.3 70.7 82.3 33.4 0 46-18.7 52.4-34 1.9-1.2 6.7-.6 7.7 1.2-2.2 13.5-9.4 31.5-13.4 36.3-4.2.9-7.2 1.6-10 2.4-7.3 1.7-21.9 3.8-38.4 3.8-25.4 0-43.3-3.6-62.9-16.6-22.6-15.1-35.1-43.3-35.1-71.7-.6-28.5 12.7-53.1 33.6-68.8M352.9 74.1c0-21.3-1.2-22.6-14.4-24.7l-5.8-1c-2.1-1.6-1.9-6.8.6-7.7 11.9.6 21.5 1 31.2 1 9.8 0 19.3-.2 29.4-.9 2.5 1 2.7 6.2.6 7.7l-4 .9c-12.9 3.1-14.4 3.3-14.4 24.7v66.5c0 9.5.6 18.2 3.3 21.3 2.7 2.7 5.2 5 21.1 5 18.7 0 30-.9 38.9-25.7 2.1-2.1 7.1-1.6 7.9 1.2-1.5 13-5.8 28.4-9.2 34.3-9.5-.2-18.4-.6-27-.6-8.3-.4-16.2-.4-24.2-.4h-22.6c-9.8 0-19.3.2-31.2.9-2.5-.9-2.7-6.2-.6-7.7l5.8-1c13.1-2.1 14.4-3.3 14.4-24.7V74.1zM320.3 169.1l-5-1c-11-2.1-13.8-6.2-17.5-16.4l-27.5-73.9c-4.3-11.7-7.8-24.7-10.2-31.9-.4-1.2-1-2.7-1.6-3.7-.7-1.1-1.5-1.4-2.4-1.4-5 .5-9.5.6-13.9.6-6.7-.4-12.8-1-19.1-1-1.7.6-2.5 2.5-2.5 4.3-.1 1.6.5 3.5 1.9 4.2.6.6 7.2.2 13.3 6-1.1 5-3.3 11.3-6.9 20.2L202 146.8c-6.1 14.9-9.5 18.2-19 20.3l-7.1 1.5c-2.1 1.6-2.1 6.4.6 7.7 5.6-.4 12.9-1 21.5-1s16.5.4 24.2 1c3.1-.6 3.3-6.2.9-7.7l-8.3-1.6c-5.8-1.2-6.7-2.5-3.3-12.4l7.1-19.8c2.5-7.1 3.3-7.4 10.4-7.4h29c7.1 0 7.9.4 10.4 7.4l7.3 20.1c3.7 9.5 4 11.4-4 12.6l-6.2 1c-2.7 1.2-2.5 6.8.6 7.7 7.7-.6 16.6-1 27.5-1 10.4 0 17.5.4 25.4 1 3.4 0 4-5.6 1.3-7.1M253.1 118h-20c-6.7 0-9.9-1.1-6.4-9.4l10.2-27.4c2.9-7.1 4.3-10.2 4.7-10.9.4-.7 0 0 0 0 .4-.7.7-1.2 1-1.2.9-.1 1.7 1.2 2.4 2.9 1 2 2.1 5.2 3.8 10.3l9.8 26.3c3.4 8.8 2.5 9.4-5.5 9.4M839.6 74.1c0-21.3.4-22.6-12.8-24.7l-5.8-1c-2.1-1.6-1.9-6.8.6-7.7 11.9.6 19.8 1 29.6 1s19.3-.2 29.4-.9c2.5 1 2.7 6.2.6 7.7l-4 .9c-12.9 3.1-14.4 3.3-14.4 24.7v66.5c0 9.5.6 18.2 3.3 21.3 2.7 2.7 8.7 5 24.6 5 18.7 0 30-.9 38.9-25.7 2.1-2.1 7.1-1.6 7.9 1.2-1.6 13-5.8 28.4-9.2 34.3-9.5-.2-18.4-.6-26.9-.6-8.2-.4-16.2-.4-24.2-.4H851c-9.8 0-16.7.2-28.8.9-2.5-.9-2.7-6.2-.6-7.7l5.8-1c13.1-2.1 11.8-3.3 11.8-24.7l.4-69.1zM802.5 108.4c0 41.7-31.2 72-74.5 71.9-47.5 0-75.8-31.2-75.6-70.2 0-41.2 31.4-72.7 75.8-72.7 49.1 0 74.3 33.2 74.3 71m-124.2-3.3c0 31.9 15.6 66.2 51.2 66.2 23.3 0 47-16 47-58.4 0-33.1-16.9-66.5-50.6-66.5-22.1.1-47.6 15.2-47.6 58.7M989.5 134.9c0-9.5-.9-12-8.6-26.3l-22.3-41.8c-6.4-12.4-9.5-15.1-17.5-16.7l-7.9-1.5c-2.1-1.9-1.5-6.8.9-7.7 10.2.6 17.2 1 28.3 1 9.2 0 16.2-.2 26-.9 2.5 1.2 3.3 6.2.2 7.7l-4.2.9c-6.8 1.6-7.7 3.3-2.7 13L993 84.5c4.6 9.3 9.2 17.6 13.8 25.7 5-8.3 9.5-15.7 14.8-25.7l12.3-22.6c4.6-8.7 5.2-11.4-2.1-12.4l-6.4-1c-2.7-1.5-2.5-6.4.6-7.7 9.2.6 16.2 1 23.3 1 6.8 0 13.1-.2 21.8-.9 2.5.9 3.1 6.2.6 7.7l-7.3 1.6c-9.5 1.9-11 3.7-20.6 19.2l-19 30.9c-11 17.6-11.7 20.7-11.7 29.6v16.7c0 18.2 1.2 20.1 14.4 21.7l7.7 1c2.1 1.5 1.9 6.8-.6 7.7-13.5-.6-23.6-1-33.1-1-9.8 0-19.3.2-33.1.9-2.5-1-2.7-6.2-.6-7.7l7.7-1c13.1-1.5 14.4-3.3 14.4-21.6v-11.9h-.4zM551.8 136c0 25.8 1 32 22.7 32.4l7.6.7c1.5 1.2 1 6.6-.5 7.3-14.6-.5-30.9-.7-41-.7-10.8 0-25 .2-36.5.7-1.5-.7-2.1-5.8-.5-7.3l6.1-.7c15.7-1.9 19-2.6 18.5-32.4V41.2c0-22.1-.5-26.7-12-27.8l-9.2-1c-1.9-1.6-1.6-5.5.5-6.4C521 4.1 539.6 3.8 561 3.8s41.9 3.8 54.4 10.7c20 11 28.1 27.5 28.1 44.3 0 25.2-20.5 40.2-36 44.8-12 3.6-32.4 4.2-42.5 2.6-2-.2-.4-5 1.4-5 34 .2 49.8-14 50.8-41.8 1.1-33-19.8-46.2-46.9-46.2-13.6 0-18.2 1.4-18.2 9.7l-.3 113.1zM23.5 228h1038.3v4.6H23.5z"/><g><path class="st0" d="M64.9 313.7c-5-6.7-12.8-10-20.7-10-18.5 0-31.6 16.2-31.6 34.3 0 19.1 13 34.3 31.6 34.3 10 0 18.1-4.1 23.9-11.5l7.3 6.2c-7.3 9.9-18.1 14.5-31.4 14.5-23.7 0-42-18.4-42-43.5 0-24.3 17.5-43.5 42-43.5 11.2 0 22.2 3.8 29.3 13l-8.4 6.2zM128.8 296.6h9.2l35.2 82.7h-11.4l-8.4-20.3H112l-8.6 20.3H92.3l36.5-82.7zm4.5 12.6h-.2l-17.2 40.7h33.8l-16.4-40.7zM197.2 296.6h14.6l28 64.8h.2l28.3-64.8h14.3v82.7h-9.8v-69.4h-.2L243 379.3h-6l-29.6-69.4h-.2v69.4h-9.8v-82.7h-.2zM313.7 296.6h24.6c15.3 0 29 5.3 29 22.7 0 18.1-15.4 22.9-27.2 22.9h-16.6v37.2h-9.8v-82.8zm9.9 36.4h16.6c9.8 0 16.6-4.5 16.6-13.6 0-9.2-6.8-13.6-16.6-13.6h-16.6V333zM458 347.8c0 18-8.4 33.6-31.2 33.6-22.8 0-31.2-15.6-31.2-33.6v-51.2h9.8v49.8c0 13.3 5 25.9 21.5 25.9s21.3-12.6 21.3-25.9v-49.8h9.8v51.2zM530.5 311.2c-3.2-5.2-9.2-7.6-15.1-7.6-8.7 0-17.6 4.1-17.6 13.9 0 7.6 4.2 11 17.4 15.3 12.9 4.1 24.8 8.3 24.8 24.6 0 16.5-14.1 24.2-29.1 24.2-9.5 0-19.8-3.1-25.4-11.4l8.4-6.9c3.5 6.1 10.5 9.2 17.6 9.2 8.4 0 18-5 18-14.4 0-10.2-6.9-11.9-21.6-16.9-11.7-3.8-20.6-9.1-20.6-22.8 0-15.9 13.6-23.8 28.1-23.8 9.3 0 17.1 2.6 23.2 9.7l-8.1 6.9zM612.9 296.6h31.7c16.2 0 40.5 10.9 40.5 41.4s-24.3 41.4-40.5 41.4h-31.7v-82.8zm9.8 73.6h18.7c19 0 33.4-9.5 33.4-32.2s-14.4-32.2-33.4-32.2h-18.7v64.4zM713.8 296.6h9.8v82.7h-9.8v-82.7zM757.1 296.6h12.4l48 68.7h.2v-68.7h9.8v82.7h-12.4l-48-68.7h-.2v68.7h-9.8v-82.7zM861 296.6h9.8v82.7H861v-82.7zM904.3 296.6h12.4l48 68.7h.2v-68.7h9.8v82.7h-12.4l-47.9-68.7h-.2v68.7h-9.8v-82.7h-.1zM1078.5 373.7c-9.4 5.2-20.2 7.7-31 7.7-25.7 0-44.1-17.5-44.1-43.5s19.7-43.5 44.5-43.5c10.9 0 21.5 2.9 29.3 10.9l-7.3 7.7c-5.6-6.1-14.1-9.4-22.6-9.4-19 0-33.4 14.3-33.4 34.3 0 19.7 13.9 34.3 34.2 34.3 6.7 0 14.5-1.7 20.6-4.8V342h-19.1v-9.1h28.9v40.8z"/></g></svg>