<?xml version="1.0" encoding="utf-8"?>
<!-- Generator: Adobe Illustrator 22.0.0, SVG Export Plug-In . SVG Version: 6.00 Build 0)  -->
<svg version="1.1" id="Layer_1" xmlns="http://www.w3.org/2000/svg" xmlns:xlink="http://www.w3.org/1999/xlink" x="0px" y="0px"
	 viewBox="0 0 150 54.1" style="enable-background:new 0 0 150 54.1;" xml:space="preserve">
<style type="text/css">
	.st0{fill:#035642;}
</style>
<title>logo</title>
<path class="st0" d="M8.3,4c2.6-1.9,5.1-3,9.1-3c1.9,0,4.1,0.7,5.7,1.2c0.3,0.1,0.7,0.2,1,0.2c0,0.8,0.2,3,0.4,5.2
	c-0.2,0.2-0.8,0.2-1.1,0c-0.4-2.4-1.6-5.2-6.6-5.2c-5.3,0-9.2,4.3-9.2,10.4c0,6.2,4.5,11.1,9.5,11.1c4.5,0,6.2-2.5,7-4.6
	c0.3-0.2,0.9-0.1,1,0.2c-0.3,1.8-1.3,4.2-1.8,4.9c-0.6,0.1-1,0.2-1.4,0.3c-1.7,0.3-3.4,0.5-5.2,0.5c-3.4,0-5.8-0.5-8.4-2.2
	c-3-2-4.7-5.8-4.7-9.6C3.7,9.7,5.4,6.2,8.3,4"/>
<path class="st0" d="M49.6,11c0-2.9-0.2-3-1.9-3.3l-0.8-0.1c-0.3-0.2-0.3-0.9,0.1-1c1.6,0.1,2.9,0.1,4.2,0.1c1.3,0,2.6,0,4-0.1
	c0.3,0.1,0.4,0.8,0.1,1l-0.5,0.1C53,8.1,52.8,8.2,52.8,11v8.9c0,1.3,0.1,2.4,0.5,2.9c0.4,0.4,0.7,0.7,2.8,0.7c2.5,0,4-0.1,5.2-3.4
	c0.3-0.3,1-0.2,1.1,0.2c-0.2,1.7-0.8,3.8-1.2,4.6c-1.3,0-2.5-0.1-3.6-0.1c-1.1,0-2.2,0-3.2,0h-3c-1.3,0-2.6,0-4.2,0.1
	c-0.3-0.1-0.4-0.8-0.1-1l0.8-0.1c1.8-0.3,1.9-0.5,1.9-3.3L49.6,11z"/>
<path class="st0" d="M36.2,16.9h-2.7c-0.9,0-1.3-0.2-0.9-1.3L34,12c0.4-1,0.6-1.4,0.6-1.5l0,0c0.1-0.1,0.1-0.2,0.1-0.2
	c0.1,0,0.2,0.2,0.3,0.4c0.2,0.5,0.4,0.9,0.5,1.4l1.3,3.5C37.4,16.8,37.3,16.9,36.2,16.9 M45.2,23.8l-0.7-0.1
	c-1.5-0.3-1.9-0.8-2.3-2.2l-3.7-9.9c-0.6-1.6-1.1-3.3-1.4-4.3c-0.1-0.2-0.1-0.3-0.2-0.5c-0.1-0.1-0.2-0.2-0.3-0.2l0,0
	c-0.6,0.1-1.2,0.1-1.9,0.1c-0.9,0-1.7-0.1-2.6-0.1c-0.2,0.1-0.4,0.3-0.3,0.6c0,0.2,0.1,0.4,0.3,0.6c0.1,0.1,1,0,1.8,0.8
	c-0.2,0.9-0.6,1.8-0.9,2.7l-3.6,9.6c-0.8,2-1.3,2.4-2.6,2.7l-0.9,0.2c-0.3,0.2-0.3,0.9,0.1,1c0.7,0,1.7-0.1,2.9-0.1s2.2,0,3.2,0.1
	c0.4-0.1,0.5-0.8,0.1-1l-1.1-0.2c-0.8-0.2-0.9-0.3-0.5-1.7l0.9-2.7c0.3-1,0.5-1,1.4-1h3.9c0.9,0,1.1,0,1.4,1l1,2.7
	c0.5,1.3,0.5,1.5-0.5,1.7l-0.8,0.1c-0.4,0.2-0.3,0.9,0.1,1c1-0.1,2.2-0.1,3.7-0.1c1.4,0,2.3,0,3.4,0.1C45.5,24.7,45.6,24,45.2,23.8"
	/>
<path class="st0" d="M115,11c0-2.9,0.1-3-1.7-3.3l-0.8-0.1c-0.3-0.2-0.3-0.9,0.1-1c1.6,0.1,2.7,0.1,4,0.1c1.3,0,2.6,0,4-0.1
	c0.3,0.1,0.4,0.8,0.1,1L120,7.7c-1.7,0.4-1.9,0.5-1.9,3.3V20c0,1.3,0.1,2.4,0.5,2.9c0.4,0.4,1.2,0.7,3.3,0.7c2.5,0,4-0.1,5.2-3.4
	c0.3-0.3,0.9-0.2,1.1,0.2c-0.2,1.7-0.8,3.8-1.2,4.6c-1.3,0-2.5-0.1-3.6-0.1c-1.1-0.1-2.2-0.1-3.3-0.1h-3.5c-1.3,0-2.2,0-3.9,0.1
	c-0.3-0.1-0.4-0.8-0.1-1l0.8-0.1c1.8-0.3,1.6-0.5,1.6-3.3L115,11z"/>
<path class="st0" d="M93.3,15.2c0,4.3,2.1,8.9,6.9,8.9c3.1,0,6.3-2.2,6.3-7.8c0-4.4-2.3-8.9-6.8-8.9C96.7,7.3,93.3,9.3,93.3,15.2
	 M110,15.6c0,5.6-4.2,9.7-10,9.7c-6.4,0-10.2-4.2-10.2-9.4c0-5.5,4.2-9.8,10.2-9.8C106.6,6.1,110,10.5,110,15.6"/>
<path class="st0" d="M135.1,19.2c0-1.3-0.1-1.6-1.2-3.5l-3-5.6c-0.9-1.7-1.3-2-2.3-2.2l-1.1-0.2c-0.3-0.3-0.2-0.9,0.1-1
	c1.4,0.1,2.3,0.1,3.8,0.1c1.2,0,2.2,0,3.5-0.1c0.3,0.2,0.5,0.8,0,1l-0.6,0.1c-0.9,0.2-1,0.5-0.4,1.7l1.5,3c0.6,1.2,1.2,2.4,1.9,3.5
	c0.7-1.1,1.3-2.1,2-3.4l1.6-3c0.6-1.2,0.7-1.5-0.3-1.7l-0.9-0.1c-0.3-0.2-0.3-0.6-0.1-0.8c0.1-0.1,0.1-0.1,0.2-0.2
	c1.2,0.1,2.2,0.1,3.1,0.1s1.8,0,2.9-0.1c0.3,0.1,0.4,0.8,0.1,1l-1,0.2c-1.3,0.3-1.5,0.5-2.8,2.6l-2.6,4.1c-1.5,2.4-1.6,2.8-1.6,4
	v2.2c0,2.4,0.2,2.7,1.9,2.9l1,0.1c0.3,0.2,0.3,0.9-0.1,1c-1.8-0.1-3.2-0.1-4.4-0.1c-1.3,0-2.6,0-4.4,0.1c-0.3-0.1-0.4-0.8-0.1-1
	l1-0.1c1.8-0.2,1.9-0.5,1.9-2.9L135.1,19.2L135.1,19.2z"/>
<path class="st0" d="M76.3,19.3c0,3.5,0.1,4.3,3.1,4.3l1,0.1c0.2,0.2,0.1,0.9-0.1,1c-2-0.1-4.1-0.1-5.5-0.1c-1.4,0-3.4,0-4.9,0.1
	c-0.2-0.1-0.3-0.8-0.1-1l0.8-0.1c2.1-0.2,2.6-0.4,2.5-4.3V6.6c0-3-0.1-3.6-1.6-3.7l-1.2-0.1c-0.2-0.2-0.2-0.7,0.1-0.9
	c1.8-0.3,4.3-0.3,7.2-0.3s5.6,0.5,7.3,1.4c2.7,1.5,3.8,3.7,3.8,5.9c0,3.4-2.8,5.4-4.8,6c-1.6,0.5-4.3,0.6-5.7,0.3
	c-0.3,0,0-0.7,0.2-0.7c4.6,0,6.7-1.9,6.8-5.6c0.2-4.4-2.7-6.2-6.3-6.2c-1.8,0-2.5,0.2-2.5,1.3L76.3,19.3z"/>
<rect x="5.4" y="31.7" class="st0" width="139.4" height="0.6"/>
<path class="st0" d="M18.5,43.2c-0.7-0.9-1.7-1.4-2.8-1.4c-2.5,0-4.2,2.2-4.2,4.6c0,2.6,1.7,4.6,4.2,4.6c1.3,0,2.5-0.5,3.2-1.6
	l1,0.8c-1,1.3-2.4,1.9-4.2,1.9c-3.2,0-5.6-2.5-5.6-5.8c0-3.3,2.4-5.8,5.6-5.8c1.5,0,3,0.5,3.9,1.7L18.5,43.2z"/>
<path class="st0" d="M33.4,46.4c0-2.6-1.8-4.6-4.4-4.6s-4.4,2.1-4.4,4.6s1.8,4.6,4.4,4.6S33.4,49,33.4,46.4 M23.2,46.4
	c0-3.4,2.4-5.8,5.8-5.8s5.8,2.5,5.8,5.8c0,3.4-2.4,5.8-5.8,5.8S23.2,49.8,23.2,46.4"/>
<path class="st0" d="M39.7,45.8h1.2c1.5,0,3.4,0,3.4-1.8c0-1.6-1.4-1.8-2.7-1.8h-1.9V45.8z M38.4,40.9h2.8c2.2,0,4.4,0.3,4.4,3.1
	c0,1.6-1,2.7-2.8,2.9L46,52h-1.6l-3-5h-1.7v5h-1.3V40.9z"/>
<path class="st0" d="M51.3,45.8h2.2c1.3,0,2.2-0.6,2.2-1.8s-0.9-1.8-2.2-1.8h-2.2V45.8z M50,40.9h3.3c2,0,3.9,0.7,3.9,3
	c0,2.4-2.1,3.1-3.6,3.1h-2.2v5H50L50,40.9L50,40.9z"/>
<path class="st0" d="M70.3,46.4c0-2.6-1.8-4.6-4.4-4.6c-2.6,0-4.4,2.1-4.4,4.6s1.8,4.6,4.4,4.6C68.5,51.1,70.3,49,70.3,46.4
	 M60.1,46.4c0-3.4,2.4-5.8,5.8-5.8c3.4,0,5.8,2.5,5.8,5.8c0,3.4-2.4,5.8-5.8,5.8C62.5,52.3,60.1,49.8,60.1,46.4"/>
<path class="st0" d="M76.6,45.8h1.2c1.5,0,3.4,0,3.4-1.8c0-1.6-1.4-1.8-2.7-1.8h-1.8L76.6,45.8z M75.3,40.9h2.8
	c2.2,0,4.4,0.3,4.4,3.1c0,1.6-1.1,2.7-2.8,2.9l3.2,5.1h-1.6l-3-5h-1.7v5h-1.3L75.3,40.9L75.3,40.9z"/>
<path class="st0" d="M91.1,42.6L91.1,42.6L88.8,48h4.5L91.1,42.6z M90.5,40.9h1.2L96.5,52H95l-1.1-2.7h-5.5L87.1,52h-1.5L90.5,40.9z
	"/>
<polygon class="st0" points="106.3,42.1 102.6,42.1 102.6,52 101.3,52 101.3,42.1 97.6,42.1 97.6,40.9 106.3,40.9 "/>
<rect x="109.6" y="40.9" class="st0" width="1.3" height="11.1"/>
<path class="st0" d="M125,46.4c0-2.6-1.8-4.6-4.4-4.6s-4.4,2.1-4.4,4.6s1.8,4.6,4.4,4.6C123.2,51.1,125,49,125,46.4 M114.8,46.4
	c0-3.4,2.4-5.8,5.8-5.8s5.8,2.5,5.8,5.8c0,3.4-2.4,5.8-5.8,5.8C117.3,52.3,114.8,49.8,114.8,46.4"/>
<polygon class="st0" points="130,40.9 131.6,40.9 138.1,50.1 138.1,50.1 138.1,40.9 139.4,40.9 139.4,52 137.8,52 131.3,42.8 
	131.3,42.8 131.3,52 130,52 "/>
</svg>
