<svg id="Layer_1" data-name="Layer 1" xmlns="http://www.w3.org/2000/svg" viewBox="0 0 288 287.93"><defs><style>.cls-1{fill:#363535}</style></defs><title>805Cafe_logo_grey</title><path class="cls-1" d="M181.82 310.51A130.51 130.51 0 1 1 305 222.67l-.62-.22.62.22a130.69 130.69 0 0 1-123.16 87.84zm0-259.65A129.18 129.18 0 1 0 224 58a129.35 129.35 0 0 0-42.17-7.13z" transform="translate(-37.72 -36.04)"/><path class="cls-1" d="M181.71 41.32a138.67 138.67 0 1 1-131 93.32 138.39 138.39 0 0 1 131-93.32m0-5.28a144.12 144.12 0 1 0 47.08 8 144 144 0 0 0-47.08-8z" transform="translate(-37.72 -36.04)"/><path class="cls-1" d="M84.3 198.72c0-9.29 5.82-16.09 14.15-19.14-5.41-2.64-9.57-7.63-9.57-14.7 0-9.57 8.18-17.89 20.52-17.89s20.66 8.32 20.66 17.89c0 7.07-4.16 12.06-9.71 14.7 8.46 3.05 14.28 9.85 14.28 19.14 0 12.2-10.26 21.63-25.24 21.63-14.69 0-25.09-9.43-25.09-21.63zm41.33-.69c0-8.6-6.24-14.7-16.23-14.7s-16.09 6.1-16.09 14.7 6.66 14.84 16.09 14.84 16.22-6.25 16.22-14.87zm-4.44-32.87c0-6.24-5-10.82-11.79-10.82s-11.65 4.58-11.65 10.82 5 11.09 11.65 11.09 11.78-4.71 11.78-11.09zM151 183.6c0-21.77 12.48-36.61 30.09-36.61s30.23 14.84 30.23 36.61-12.48 36.75-30.23 36.75S151 205.24 151 183.6zm51.17 0c0-17.06-7.77-28.84-21.08-28.84s-20.94 11.79-20.94 28.84 7.77 29 20.94 29 21.08-11.94 21.08-29zM226.44 206.76l7.35-4.16c3.05 5.82 8.74 10.12 17.75 10.12 10.26 0 16.92-6.52 16.92-16.36s-6.38-16.09-18.31-16.09c-8.88 0-14 3.05-17.61 6L232 186v-37.9h40.22v7.49h-32.46v19.69c2.5-1.39 6.38-2.63 12.2-2.63 15.12 0 25.66 9.71 25.66 23.85s-9.85 23.85-26.07 23.85c-12.49 0-21.55-6.52-25.11-13.59zM161.13 78.18s-1-.31-1.63 1.63c0 0-1.29 2.59 4 9.8A100.25 100.25 0 0 0 173.67 100a.9.9 0 0 0 .88.24 2.17 2.17 0 0 1 2.42.42v.08a1.56 1.56 0 0 0 .45.93 1.59 1.59 0 0 0 .68.4 1 1 0 0 0 .4.1l18.5 19c.23.23 1.11-.28 2-1.13s1.35-1.72 1.14-2L180.8 100a1.53 1.53 0 0 0-.46-1.19 1.56 1.56 0 0 0-.94-.46h-.13a4.21 4.21 0 0 1-.68-1.88l-4.5-4.36c-1.45-1.58-2.52-2.35-5.57-5.7a67.74 67.74 0 0 1-5.17-6.58s-1.19-1.48-2.22-1.65z" transform="translate(-37.72 -36.04)"/><path class="cls-1" d="M201.77 81.47l-8.09 8a.41.41 0 0 1-.6-.55l7.91-8.2c.68-.62.45-1.12.45-1.12-.51-.24-1.17.44-1.17.44l-8.36 7.74a.32.32 0 0 1-.29.09.18.18 0 0 1-.14-.06.32.32 0 0 1 0-.46l8.3-7.88c1.19-1.72-.66-.73-.66-.73l-4.19 3.41-6.58 5.45a7.75 7.75 0 0 0-1.1 1 2.12 2.12 0 0 0-.44.83 3.65 3.65 0 0 0 .14 1.38l.16 1.28a1.75 1.75 0 0 1-.56 1.67L160.65 118c-.24.24.28 1.14 1.16 2s1.78 1.4 2 1.16l24.53-25.66a2.57 2.57 0 0 1 2.17-.39l.77.16a2.27 2.27 0 0 0 2.1-.34c.36-.36.76-.71 1.13-1.07.66-.65 1.25-1.35 1.86-2l2.23-2.54 2.4-2.73 2-2.21.78-.89c1.05-2-.78-.7-.78-.7L195.12 91a.39.39 0 0 1-.53-.57l7.85-8.13c1.49-2.37-.67-.83-.67-.83zM157.63 257.72v2.69a12.74 12.74 0 0 1-6.2 1.46 9.56 9.56 0 0 1-4.85-1.15 8.45 8.45 0 0 1-3.15-3.16 8.59 8.59 0 0 1-1.16-4.36 8.32 8.32 0 0 1 2.66-6.26 9.11 9.11 0 0 1 6.55-2.54 15.37 15.37 0 0 1 6 1.4v2.63a11.75 11.75 0 0 0-5.85-1.71 6.76 6.76 0 0 0-4.86 1.85 6.14 6.14 0 0 0-1.93 4.63 6.08 6.08 0 0 0 1.9 4.61 6.79 6.79 0 0 0 4.87 1.81 11 11 0 0 0 6.02-1.9zM173.9 244.53h1.72l7.65 17.15h-2.5l-2.27-5.05h-7.28l-2.13 5.05h-2.51zm3.59 9.92l-2.75-6.18-2.55 6.18zM192.35 244.62h9.09v2.17h-6.64v4.76h6.65v2.17h-6.65v7.95h-2.44zM211.26 244.62h9.67v2.17h-7.23V252h7v2.18h-7v5.3h7.46v2.17h-9.9zm7.09-4.92l-2.76 3.66h-1.37l1.65-3.66z" transform="translate(-37.72 -36.04)"/></svg>