<svg id="Layer_1" xmlns="http://www.w3.org/2000/svg" viewBox="0 0 935.7 463.7"><style>.st0{fill:#fff}.st1{fill:#cf0a2c}</style><circle class="st0" cx="901.7" cy="267.9" r="25.6"/><path class="st0" d="M414.8 429.3c13 2.8 28.2-3 34.4-24.5 0 0 17.9 13.1 44.1 5 0 0 21.4-4.6 34.9-33.1 0 0 2.7 5.4 6.7 8.5 0 0-2.3 33.1 19.8 58.2 0 0 16.6 21 42.8 20.2 0 0 32.2 1.9 40.8-37 0 0 4.4-15.6.2-36.6 0 0 14.1 3.7 29.9-4.2 0 0 16.2 23.7 43.7 20.4 0 0-11.9 25.2 15.2 35.1 0 0 22 9.1 53-19.1l26.2-26 33.7-2.5s20.6 23.1 45.3 26c0 0 36.2 5.4 47-15.6 0 0 11-17.7-7.7-32.6 0 0 12.9-12.1 3.7-30.8 0 0-7.7-12.3-23.9-10.6l-37.8 7.9s-3.7-8.1-6.4-15.6c0 0 21.6-36.4 21.8-57.6 0 0 4.4-36.6-33.9-41.4 0 0-29.7-5.2-43.7 38.7 0 0-5.4 19.1-.8 49.7l-3 5.1s-1.8-20.2-21.6-24.4c0 0-32.8-9-48.2 9.6 0 0 14.7-41.5 2.8-62.4 0 0-6.2-14.8-27.3-17.3 0 0-18.2-3.6-32.3 12.2 0 0-7.6 8.5-13.4 24.1 0 0-9.8-7.3-23.7-4 0 0-4.3-29-37.7-27.4 0 0-26.9-1-44.1 31.1 0 0-10.3 17.2-15.4 48.7 0 0-20.2-7.8-39.9-1.1 0 0-6.7-17.9-25.5-23.6 0 0-8.5-2.8-17.7-1.7 0 0 5.8-28.8-11.2-40.3 0 0-15.8-12.5-33.5 1.8 0 0-6.8 5.1-8.5 17.2l-1 32.3s-20.9-15.4-47.6 2.5c0 0 1.8-15.9-13.7-25.9 0 0-17.6-11.6-35.4 5 0 0-4.9 6.4-5.5 8.6 0 0-3.6-6.4-6.8-7.5 0 0 7.3-32.7-.8-57.5 0 0-8.6-38.7-51.3-53.7 0 0-.7-16.1-2.6-21.6 0 0 35.6 3.3 66.4-19 0 0 25.8-15.9 24.5-39.9 0 0 1.5-24.1-24.7-35.1 0 0-15.9-7.2-43.1.8 0 0 5-17.7-7.5-34.9 0 0-13.7-20.4-41.6-10.7 0 0-13.7 3.7-24.4 19.1 0 0-14.6-28.7-45.3-15.8 0 0-18.1 6.7-18.7 34.5 0 0-24.7-1.2-30.2 19.8 0 0-6.7 19.1 13.3 37.6 0 0-60.1 33.5-88 104 0 0-18.9 42.2-19.5 99.8 0 0-2.3 79.4 51.4 117.7 0 0 54.9 46.8 144.7-13.7 0 0 0 13.1 10.6 21s40.4 9.6 42.8-17.3c0 0 22.1 27.2 60.3-4.6 0 0 19.1 14.6 40.3-1.7 0 0 23.3 19.5 48.2 6.7 0-.1 3.4 16.6 16.4 19.4z"/><ellipse class="st1" cx="644.6" cy="282.7" rx="14.3" ry="14.8"/><path class="st1" d="M818.3 313.9c-2.8-23.9-6.3-54.4 14.2-71.2 8.3-7 22-6.6 28.7 1.2 22.2 19.8-15.8 71.2-15.8 77.8 0 0 2.7 13.6 13.7 31.8 6 0 33.9-5.9 44.6-8.7 5.6-1.7 17.8.5 12.6 14.5-8.3 12.9-25 12.6-37.6 16.1 5 7.2 20.6 9.2 29.6 6.9 14.5-4.7 26.8 27.5-20.3 23.5-18.5-2.3-35.1-18.8-41.7-26.6 0 0-39.4 3.1-45.3 3.1-7.9 6.3-36.9 42.8-59.9 45.9-15.3 2.1-20.2-7.8-16.1-15.4 8.8-12.4 12.9-.9 43.5-31.8-25.8-1.3-20.5-22.2-5-25.3 11.8-1.9 15.1 1.9 25.9 1.2-.1-.1 28.5-37.2 28.9-43zm17.7-18c.4 2.9 5.8-13.5 8.3-20.2 9.8-26.9-13.9-24.5-8.3 20.2zm-7.4 46.4s-9 13.3-13 15.5c5.5-.5 13 .2 20-.2-3.5-6.5-3-7-7-15.3zM598 422.3c-22.2 8.4-23-40.2-23.1-40.6 7.2-2.5 13.9-4.1 17.3-5.9 8.2 7.5 18 41 5.8 46.5zm20-55.7c3.2-.5 5.5-3.1 5.5-3.1 2.8 5.5 19.3 24.7 49.6 3.5 2.4 7.4 35.5 58.4 78.4-9.2 7-14.6-8.7-30.3-24-4.1-18.1 28.9-33.6 2.7-35.1-3.1 15.3-18.8 47.8-97.4 22.5-110.9-53.7-26-50.5 102.6-50.5 102.6-5.6 9.4-16.3 10.7-18.9 7.9-3.9-7.8 6.3-34 3.2-43.7-5.7-8-17.2-3.9-19.9 2-5.1 11-9.5 33.6-27.2 38.4-4.8-2-5.5-2.6-7.6-3.7 11.2-13.5 57.9-103.8 5.5-101.7-45.4 2.7-48.4 92-50.4 108-14.5 13.8-9.5 23.9.4 28.6-8.7 88.1 107.3 106.4 68.5-11.5zm-18.6-94.3c4.4 10.8-17.8 51.9-27 60.6.1 6.6 16.7-86.1 27-60.6zm103.2-10.5c6.4 10.7-13.4 53.6-18.5 62.3-1.3-14.5 9.2-77.8 18.5-62.3z"/><ellipse class="st1" cx="326.7" cy="293.1" rx="14.3" ry="14.8"/><path class="st1" d="M220.5 234c6.3-17.8 11.1-37.3 12.5-58.9 25.9 5.7 48.7 30.4 48.7 57.3-.3.8-5-9.9-16.6-10.7-11.5.1-17.8-3.2-24.7-12.3-1.6.2-5.1 16.1 18.4 20.4-15.7 12-37 5.8-38.3 4.2M170.2 21.6c10.7 11.1 15.2 26.9 14.5 42.4-.9 7-3 15.5-10.8 17.8-8.8 3-16.2-2.3-21.7-8.6-.4-1.2-1.7-1.8-2.5-3.2-8.2-12.5-15.4-31.2-7-45.3 5.2-8.6 20.1-10.7 27.5-3.1zM241.5 75c15.5-12 35.1-18.6 53.4-15.8 5.7 1.2 11.5 3.8 17.2 11.2 4.5 8.1 5.7 19.7-4.2 30.7-10.2 10.1-14.4 13.1-25.1 18-9.1 4.1-19.1 6.6-29.6 8-12.9.9-25.8 1.2-32.7-11.4-6.6-16.8 9.1-30.9 21-40.7M142.9 69.5c2.3 4.3 4.1 8.7 3.2 13.9-1.4 4.9-5.3 9.3-10.7 9.9-10 2.2-19.2-5.9-24.3-12.8-3.5-5.4-5.7-14-1.1-20.8 4.1-4.1 9-5.4 15-4.6 9.2 2.9 13.8 6.9 17.9 14.4zM248.4 33.7c2.9 20.6-14.1 43-32.7 54.6-5.6 3.5-13.8 4.5-19.3 1.1-13.8-12.5-6.7-33.6-1.8-48.2 5-12.7 14.3-24.3 27.7-26.5 8.4-2 22 1 26.1 19M174.3 183.4c6.2 11.6 26.6-7.9 18.1-23.7-6.1-10.4-22.2 13.9-18.1 23.7z"/><path class="st1" d="M516.3 356.4c-9.9-14-21.2 1-23.3 6.3-6 15.2-24.4 10.2-26 7 9.4-9.5 15.1-16.9 19.3-28.6 5.2-15 4.7-32.1-9.1-41.9-10.2-7.8-25.6-5.5-35.8 1.2.9-12.2 1.6-19.1 1.6-28.5 4.1-29.7-26.2-26.9-25.2-10.2-.8 31.7-1.6 59.4-4.7 95.7-23.6 35.7-64 .9-38.2-26.8.8 4.7-.8 12.1 2.8 16.8 3.8 6.9 11.4 9.2 18.2 7.2 0 0 14.9-2.6 12.5-25.8-1.2-13.3-8.2-24.4-19.4-28.2-16.5-5.5-35.3 7.3-42 28.3-3.8 10.3-5.5 21.2-4.8 28.6-.4 4.3-4.7 6.6-7.9 9-5.8 2.3-7.3-3.4-7.4-10.1 0-8.5 3.2-20.8 3.2-20.8 4.6-18.2-1.6-26.1-13.9-23.4-17 5.8-16.9 40.8-26.4 57.1-3 5.1-6.9 9.5-10.7 8.3-3.2-1-5.5-4.7-5-9.3 3.6-31.9-1.1-44.5-21.6-38 5.6-6.5 7.4-9.1 13.1-19.1 10.5-14.6 15.8-43.5-2.9-53.8-6-3.3-11.2-3.4-13.9-3.2-44.6 5.5-38.6 71.9-39 88.9C42.6 501.6-8.5 274.8 87.5 165.8c27.9-32.8 71.7-55.2 92.6-44.5 13.2 6.7 21.7 24.1 21.9 43.7 0 0 2.4 41-27.3 92.7-17.1 29.1-38.5 39-54.2 31.2-13.5-6.7-15.6-26.4-10.5-47.3 5.8-21 20-43.2 23.5-48.2 2-2.9 2.1-4.3 2.1-6.8 0-7-5.6-12.6-12.6-12.6-4 0-7.5 1.8-9.8 4.7l-.5.7c-.3.4-.5.7-.8 1.1-69.4 103.5-2.2 160.9 51.7 126 17.1-11.1 31-27.7 45.5-60.9 12.9-29.6 25.1-77.1 13.2-110 0 0-17.9-53.9-71.7-40.2C96.9 109 55 157.4 36.4 198.7c-14.1 31.1-21 64.7-21.8 95.5-.1 1-1.8 24.8 5.6 51.7 30.5 103.5 124 89.9 188.9 31.3 0 6.4.1 25.2 2.3 32 .4 10.1 24.9 13.9 25.2-6.6 1.1-63.3 19.2-58.3 16.4-22.7.4 35.4 45.5 27 53.9 2.4 3 2.3 17.5 26.4 45.1.9 2.5 3.1 4.4 5.4 8 7.7 13.8 9 26.4 11 52.2-.9-4.1 28.2 12.9 22.8 17.1 20 10-7.2 8.4-28.5 8.4-33.8 10.6 13.7 28.2 24.8 45.5 21.3 21.8-2.1 39.6-31.9 33.1-41.1zm-284.7-34.7c-.9-38.9 10.7-49.4 19.8-44.1 9 7.9-10.2 33.8-19.8 44.1zm224.4 25c-3.2-10.2-11.4-8.6-14.2-7 3.1-7.4 8-17.1 16.1-19.6 2.9-1.1 12.3 4.7-1.9 26.6z"/><path class="st1" d="M496.9 330.4c0 8 4.4 14 22.9 14.1 18.9.1 23.2-4.3 23.2-13.7 0-9.5-10.7-13.5-24.5-13.5s-21.6 4-21.6 13.1zM740.3 317.8c0 8 4.4 14 22.9 14.1 18.9.1 23.2-4.3 23.2-13.7 0-9.5-10.7-13.5-24.5-13.5-13.9 0-21.6 4.1-21.6 13.1z"/><g><path class="st1" d="M901.6 253.9c-7.7 0-13.9 6.2-13.9 13.9s6.2 13.9 13.9 13.9 13.9-6.2 13.9-13.9c0-7.6-6.2-13.9-13.9-13.9zm0 25.2c-6.2 0-11.2-5-11.2-11.2 0-6.2 5-11.2 11.2-11.2 6.2 0 11.2 5 11.2 11.2 0 6.1-5 11.2-11.2 11.2z"/><path class="st1" d="M903 266.9c-.5.4-1.3.5-2.2.5h-1.6v-4.2h1c1 0 1.8.1 2.4.3.8.3 1.3.9 1.3 1.6-.1.9-.3 1.5-.9 1.8zm-3.8 3.2h.9l.9.1c.6 0 1.1.1 1.4.2.6.2.9.6 1.1 1.1.1.3.2.9.2 1.8s.1 1.5.2 2h3.9l-.1-.4c-.1-.1-.1-.3-.1-.4V272.8c0-1.5-.5-2.6-1.4-3.2-.5-.4-1.2-.6-2.2-.8 1.1-.1 2-.4 2.7-1 .7-.5 1.1-1.4 1.1-2.6 0-1.6-.7-2.7-2.1-3.5-.8-.4-1.8-.7-3.1-.7h-7.5v14.5h4.1v-5.4z"/></g></svg>