<svg id="Layer_1" xmlns="http://www.w3.org/2000/svg" viewBox="0 0 932.4 263.1"><style>.st0{fill:#a32326}.st1{fill:#be4026}.st2{fill:#ea5c24}.st3{fill:#ed7b2b}.st4{fill:#f09b38}.st5{fill:#aad03a}.st6{fill:#abd037}</style><path class="st0" d="M759.9 137.4c-10.1 12.1-8.5 30.2 3.6 40.3 12.1 10.1 30.2 8.5 40.3-3.6 10.1-12.1 8.5-30.2-3.6-40.3-12.1-10.2-30.2-8.6-40.3 3.6zM742.9 79.6c-9.5 11.4-8 28.3 3.4 37.7 11.4 9.5 28.3 8 37.7-3.4 9.5-11.4 8-28.3-3.4-37.7-11.3-9.4-28.2-7.9-37.7 3.4zM803.8 69.6c-9.2 11-7.7 27.3 3.3 36.5s27.3 7.7 36.5-3.3 7.7-27.3-3.3-36.5c-11-9.1-27.3-7.6-36.5 3.3z"/><circle class="st0" cx="857.8" cy="136.8" r="24.1"/><path class="st1" d="M822.2 174.6c-8.2 9.8-6.9 24.4 2.9 32.7 9.8 8.2 24.4 6.9 32.7-2.9 8.2-9.8 6.9-24.5-2.9-32.7-9.8-8.2-24.5-6.9-32.7 2.9zM781.1 207.5a21.3 21.3 0 0 0 2.7 30.1 21.3 21.3 0 0 0 30.1-2.7 21.3 21.3 0 0 0-2.7-30.1c-9-7.6-22.5-6.3-30.1 2.7zM729.7 208.2c-7.3 8.7-6.1 21.6 2.6 28.8 8.7 7.3 21.6 6.1 28.8-2.6 7.2-8.7 6.1-21.6-2.6-28.8-8.7-7.2-21.6-6.1-28.8 2.6zM691.3 175.8c-6.9 8.3-5.8 20.6 2.5 27.6 8.3 6.9 20.6 5.8 27.6-2.5 6.9-8.3 5.8-20.6-2.5-27.6-8.3-6.9-20.7-5.7-27.6 2.5z"/><path class="st2" d="M669.7 130.3c-6.6 7.9-5.6 19.7 2.4 26.3 7.9 6.6 19.7 5.6 26.3-2.4 6.6-7.9 5.6-19.7-2.4-26.3-8-6.6-19.7-5.5-26.3 2.4zM673.9 86.7c-6.3 7.5-5.3 18.7 2.2 25 7.5 6.3 18.7 5.3 25-2.2 6.3-7.5 5.3-18.7-2.2-25-7.5-6.4-18.7-5.4-25 2.2z"/><circle class="st2" cx="710.5" cy="59.3" r="16.9"/><path class="st2" d="M734 20c-5.7 6.8-4.7 16.8 2 22.5 6.8 5.6 16.8 4.7 22.5-2 5.6-6.8 4.7-16.8-2-22.5-6.8-5.7-16.8-4.8-22.5 2z"/><path class="st3" d="M777.2 5.4c-5.3 6.4-4.5 15.9 1.9 21.2 6.4 5.3 15.9 4.5 21.2-1.9 5.3-6.4 4.5-15.9-1.9-21.2-6.4-5.3-15.9-4.5-21.2 1.9zM819.8 8.4c-5 6-4.2 14.9 1.8 19.9 6 5 14.9 4.2 19.9-1.8 5-6 4.2-14.9-1.8-19.9-6-5-14.9-4.2-19.9 1.8zM857.3 25.4c-4.7 5.6-3.9 14 1.7 18.7 5.6 4.7 14 3.9 18.7-1.7 4.7-5.6 3.9-14-1.7-18.7-5.7-4.7-14-3.9-18.7 1.7zM887.5 53.9c-4.4 5.2-3.7 13 1.6 17.4 5.2 4.4 13 3.7 17.4-1.6 4.4-5.2 3.7-13-1.6-17.4-5.2-4.3-13-3.6-17.4 1.6z"/><path class="st4" d="M906.5 90.7c-4.1 4.8-3.4 12.1 1.4 16.1 4.9 4.1 12.1 3.4 16.1-1.4 4.1-4.9 3.4-12.1-1.4-16.1-4.9-4.1-12.1-3.4-16.1 1.4zM910 131.1c-3.7 4.5-3.1 11.1 1.3 14.8 4.5 3.7 11.1 3.1 14.8-1.3 3.7-4.5 3.1-11.1-1.3-14.8-4.5-3.8-11.1-3.2-14.8 1.3zM905.9 169.5c-3.4 4.1-2.9 10.2 1.2 13.6 4.1 3.4 10.2 2.9 13.6-1.2 3.4-4.1 2.9-10.2-1.2-13.6-4.1-3.4-10.2-2.9-13.6 1.2zM890.3 199.5c-3.1 3.7-2.6 9.2 1.1 12.3 3.7 3.1 9.2 2.6 12.3-1.1 3.1-3.7 2.6-9.2-1.1-12.3-3.7-3-9.2-2.6-12.3 1.1z"/><circle class="st5" cx="876.7" cy="227.5" r="7.8"/><path class="st5" d="M847.1 238.2c-2.5 2.9-2.1 7.3.9 9.8 2.9 2.5 7.3 2.1 9.8-.9 2.5-2.9 2.1-7.3-.9-9.8-3-2.5-7.3-2.1-9.8.9zM824.7 248.5c-2.1 2.6-1.8 6.4.8 8.5 2.5 2.1 6.4 1.8 8.5-.8 2.1-2.6 1.8-6.4-.8-8.5-2.5-2.1-6.3-1.8-8.5.8zM802.7 254.7c-1.8 2.2-1.5 5.4.6 7.2 2.2 1.8 5.4 1.5 7.2-.6 1.8-2.2 1.5-5.4-.6-7.2-2.2-1.9-5.4-1.6-7.2.6z"/><g><path d="M23.4 50.3H0v162.3h99.8v-23.5H23.4zM201.7 163.8c0 17.9-19.3 26.9-36.2 26.9-17.2 0-36.4-8.8-36.4-26.7V50.3h-23.7v113.5c0 33.2 31.6 50.4 60.1 50.4 27.9 0 59.9-17.2 59.9-50.1V50.3h-23.7v113.5zM315.2 190.5c-15.6 0-29.7-6.7-39.9-17.4s-16.7-25.1-16.7-41.3c0-16.7 6.5-31.1 16.7-41.8 10.2-10.7 24.4-17.4 39.9-17.4 23.9 0 43.9 12.3 52.5 36.7h23.2c-9.3-36.7-38.5-59.9-75.7-59.9-22.1 0-42 9.5-56.2 24.1-13.9 14.9-23.2 35.3-23.2 58.3 0 22.5 9.3 42.9 23.2 57.8 14.2 14.9 34.1 24.1 56.2 24.1 37.8 0 67.6-25.1 76.8-62h-23c-8.3 24.6-29.2 38.8-53.8 38.8zM487.4 89.9l-1.5-4.8c-1.9-5.8-3.2-14.7-1.7-23.5l-37.3 59.9-44.3-71.3H375l60.1 96.1v66.2h23.7v-66.2l36.4-58c-.9.2-1.9.4-2.8.6l-5 1zM624.6 157.2c-4.8-26.3-32-33.7-54.1-37.8-17.3-2.6-35.5-5.8-35.7-22.5-.1-5.6 1.3-10.8 4.8-14.8 7-8 19.2-11 30.1-10.6 14.3.5 29.7 7.7 32.1 22.5l23.2.4c-2.5-29.9-27.7-44.4-52.7-45.8-10.8-.6-22 1.2-31.7 5.4-1.3 2.9-2.8 5.8-4.7 8.7-5.4 8.2-12.9 14.7-22.3 19.3-1.6 5-2.4 10.2-2.2 15.6v-.2c.6 34 29.9 41.3 55.1 45.3 16.1 2.6 32.7 5.6 34.8 18.1.3 2.1.5 4 .4 5.6-1 16.7-20.5 25.3-37.9 24.3-15.1-.9-32.9-9.8-33.7-25l-.1.9v-3.5l-23.7-.9v4.4c1.3 29.1 30.8 45.7 55.9 47.2 29.2 1.7 61.3-14.6 63.1-45.9.1-3.3-.2-7.2-.7-10.7z"/></g><g><path class="st6" d="M491.3 83.5s-9.9-30.9 14-41.6c23.9-10.7 27.4-14.3 33.9-26.2 0-.1 12.1 56.3-47.9 67.8z"/></g></svg>