<svg id="Layer_1" xmlns="http://www.w3.org/2000/svg" viewBox="0 0 970.6 689.8"><style>.st0{fill:#63a70a}.st1{fill:#55565a}</style><path class="st0" d="M34 388.3l4.2 15.1-25.4 3.9-1.2 5.4 31.9-4.9-3.4-12.2-1.1-91.5-6.2-17zM72.5 345.3l-8 1.2 1.8 4.9 13-2 13.5-44.8-.4-25.5zM64.1 272.6l-26.2-72.9-3.3.5 28 77.5zM129.3 198.7l3.1-13.5-7.9 1.2-1.3 5.7 2.1 182.1 4.2 15.2-25.4 3.9-1.3 5.4 31.9-4.9-3.3-12.2zM191.7 346.6l.9.8 5.1-.8-1.9-158.2 3.1-13.5-7.9 1.2-1.3 5.7z"/><path class="st0" d="M242.1 168.3l-1.3 5.7 2 183.4-14 16.7-48.6 7.5 5.1 4.3 51.1-7.8 12.5-14.9-2-182.6 3.1-13.5zM368.6 200.9l-3.4-12.2-.1-26.6-6.1-5.2.1 24.5 4.2 15.1-25.5 3.9-1.1 5.4zM327.4 267.3l-30.2 4.7 5.3 4.3 25.7-3.9-.1-4.4zM347 355.7l-48.8 7.4 5.2 4.4 51.2-7.9 12.5-14.9-1-91.1-6.1-5.2 1 90.5zM309.8 328.2l.9.7 5.2-.8v-1.8l3.1-13.2-7.9 1.2-1.3 5.4zM326.2 176.2l-16.9 2.6-1.3 1.6.6 56.6.9.8 5.1-.8-.6-50.7 2.8-3.5 10.4-1.6-.1-4.3zM451.3 157l-15 2.3-1.4 1.6 2 165.1 4.2 15.2-25.4 3.9-1.2 5.3 31.9-4.9-3.4-12.2-2-166.6 2.8-3.4 16.5-2.6 13.5 1-5-28.6-4.7.8 4.3 24.3zM402.4 164.5l-15.1 2.3-3.7 1.4-1.1 7.5 13.1-5 7.8-1.2-.1-4.3zM526.4 276.2l-19.7 3-2.2 2.4-5.6 39.5 2.6 11.2-24.8 3.8-1.7 5.4 31.9-4.9-1.9-8.4 5.8-41.1 3.6-3.9 14.2-2.2-.6-3.4zM519.3 229.9l-3.9-21.2-5.7 37.4 7.2-1.1zM564.7 301l7.5 20.5-25.6 3.9-1.3 5.4 31.9-4.9-6.3-17.2-32.7-174 2.7-12.2-7.8 1.2-.9 4.2zM618.5 298.2l4.2 15.2-25.4 3.9-1.3 5.3 32-4.9-3.4-12.2-.8-70.7-6.2-22.3zM642.5 181.8l-20.2-72.2-3.8.6 24.2 86.6zM675.5 289.4l4.2 15.2-24.8 3.8 1.4 5L685 309l-3.4-12.2-2.1-182.9 3.1-13.5-7.8 1.2-1.3 5.7zM787.5 293.2l12.5-15-.8-78.5 3.1-13.4-7.9 1.2-1.3 5.7.9 79.3-14.1 16.7-48.6 7.4 5.1 4.4zM759.4 109.4l-16.9 2.6-1.3 1.6 1.8 147.7 1 .8 5-.8-.9-77.4-.2-.8h.1l-.8-63.7 2.8-3.4 10.4-1.6-.1-4.3zM796.2 129.7l-25.3 3.9-1.3 5.4 31.9-4.9-3.4-12.2-.1-26.3-6-5.2v24.2zM363.9 445l-3.5-12.2-.3-26.6-6-5.1.2 24.4 4.3 15.1-25.5 4.1-1.1 5.3zM323.1 511.6l-30.3 4.8 5.3 4.4 25.8-4.1-.1-4.4zM305.8 572.5l.9.8 5.1-.9v-1.7l3.1-13.2-7.9 1.2-1.3 5.4zM343.1 599.8l-1.1.2-47.7 7.6 5.3 4.3 51.1-8.1 12.4-15-1.5-91.1-6-5.1L357 583zM321.4 420.5l-16.9 2.7-1.3 1.6.9 56.6.9.7 5-.8-.8-50.7 2.8-3.4 10.4-1.7-.1-4.3zM403.7 408l-15.1 2.4-3.6 1.5-1.1 7.5 13.1-5.1 7.7-1.2v-4.3zM461.6 404.1l13.5.8-5.1-28.5-4.7.7 4.4 24.3-17.1-1.1-15 2.4-1.3 1.6 2.8 165.1 4.3 15.1-25.4 4.1-1.3 5.4 31.9-5.1-3.4-12.2-2.9-166.6 2.8-3.4zM528.4 518.9l-19.7 3.1-2.2 2.4-5.3 39.6 2.5 11.1-24.8 4-1.7 5.4 31.9-5-1.9-8.5 5.6-41.1 3.6-3.9 14.2-2.3-.6-3.4zM517 451.5l-5.5 37.4 7.2-1.1 2.3-15.3zM539.4 377.4l2.6-12.2-7.8 1.2-.8 4.1 33.4 172.9 7.6 20.5-25.6 4.1-1.3 5.4 31.9-5.1-6.4-17.1zM654.7 348l4.4 24.3-17.1-1.1-15 2.3-1.3 1.7 2.8 165 4.3 15.2-25.4 4-1.3 5.4 31.9-5-3.4-12.2-2.9-166.6 2.8-3.5 16.5-2.6 13.5.9-5.1-28.5zM593.1 378.9l-15.1 2.4-3.6 1.4-1.1 7.6 13.1-5.1 7.7-1.2-.1-4.3zM718.9 351.2l3-13.5-7.8 1.2-1.3 5.7 3 182.1 4.3 15.2-25.4 4-1.2 5.4 31.9-5.1-3.5-12.1zM832.3 327.5l3 182-13.9 16.8-48.7 7.7 5.1 4.4 51.1-8.1 12.5-15-3-182.6z"/><path class="st0" d="M790.3 353.6l10.4-1.6-.1-4.3-.9-.8-16.9 2.7-1.4 1.7 2.7 147.6.9.8 5-.8-2.5-141.8zM970.6 508.1l-3.5-12.2-3-182.9 3-13.5-7.8 1.3-1.3 5.6 3 182.2 4.3 15.1-24.8 3.9 1.4 5zM927.5 381.3l-20.6-72.2-3.8.6 24.6 86.3zM904.1 497.6l4.2 15.1-25.3 4.1-1.3 5.4 31.9-5.1-3.5-12.1-1.1-71-6.3-22.1zM748.1 183.9l-.1-.8h-.1zM4.5 122.8v10.5L802.7 10.5V0zM275.4 679.3v10.5l690.3-105.9v-10.6z"/><g><path class="st1" d="M120.1 191.8l3.1-13.5-28.7 4.4-31.6 104.9-34.2-94.8L0 197.2l3.4 12.5 2.1 182.9-3.1 13.2 31.9-4.9-3.4-12.2-1.5-119.8 27.7 75.6 13-2 25.2-83.7 1.5 119.8-3.2 13.2 32-4.9-3.4-12.2zM208.9 165.1l3.4 12.5 2 166.6-2.8 3.4-19.8 3.1-3.1-2.6-2-166.6 3.1-13.5-31.9 4.9 3.4 12.5 2 182.6 12.9 11.1 51.1-7.9 12.5-14.9-2-182.6 3.1-13.5zM359.4 194l-3.4-12.2-.1-26.6-12.9-11-51.1 7.8-12.8 15 1 91.4 13.2 11 35.1-5.4 2.8 2.6.9 59.1-2.8 3.5-19.4 3-3.2-2.6v-10.2l3.1-13.2-31.9 4.9 3.1 12.2.1 26.3 13.1 11 51.2-7.9 12.5-14.9-1-91.1-12.9-11.1-35.4 5.5-3.1-2.6-.6-59.1 2.7-3.5 19.5-3 3.2 2.6v10.2l-2.8 13.2zM403.3 161.2l3.1 2.5 2 166.6-3.1 13.2 31.9-4.9-3.4-12.2-2-166.6 2.8-3.4 16.5-2.5 13.5.9-5-28.6-81.8 12.6-4.5 30 13.2-5zM495.8 321.3l5.8-41.1 3.6-3.9 22.2-3.4 3.5 3.1 7.5 38.8-2.2 9.1L568 319l-6.3-17.2-32.7-174 2.7-12.2-34.9 5.3 2.7 11.4-27.8 183.6-5.9 18.7 31.9-4.9-1.9-8.4zm17.1-116.9l1.8-23.6 2.9 22.8 7.6 41.8-2.7 1.9-13.6 2.1-2.7-1.7 6.7-43.3zM670.3 107l3.1-13.5-31.9 4.9 3.4 12.5 1 96.9 1.6 18.2-4.9-17.7-29.5-105.6-28.6 4.4 3.4 12.5 2.1 182.9-3.1 13.2 31.9-4.9-3.4-12.2-1-97.2-1.6-18.2 4.8 17.7 29.5 105.6 28.7-4.4-3.4-12.2zM790.8 271.3l-.8-78.5 3.1-13.4-41.4 6.3 6 25.4 7.1-1.1.5 48.9-2.8 3.5-19.4 3-3.2-2.6-1.8-150.3 2.7-3.4 19.5-3 3.2 2.5v10.3l-3.1 13.2 31.9-4.9-3.4-12.2-.1-26.3-12.9-11-51.1 7.8-12.5 14.9 2 182.7 12.9 11 51.1-7.8zM354.7 438.1l-3.5-12.2-.3-26.6-12.9-10.9-51.1 8.1-12.7 15 1.5 91.5 13.2 10.9 35.2-5.6 2.8 2.6 1.2 59.1-2.8 3.5-19.4 3.1-3.2-2.6-.1-10.2 3.1-13.2-31.9 5 3.1 12.2.3 26.3 13.2 10.9 51.1-8.1 12.4-15-1.4-91.1-13-11-35.4 5.6-3.1-2.5-1-59.1 2.8-3.5 19.5-3.1 3.1 2.5.2 10.3-2.8 13.1zM379 382.5l-4.3 30 13.1-5.1 16.8-2.7 3.1 2.6 2.9 166.6-3.1 13.2 31.9-5.1-3.4-12.2-2.9-166.6 2.8-3.4 16.5-2.6 13.5.8-5.1-28.5zM530.2 370.5l2.6-12.2-34.8 5.5 2.7 11.4-26.8 183.7-5.8 18.8 31.9-5.1-2-8.5 5.6-41.1 3.6-3.9 22.1-3.5 3.5 3.1 7.7 38.7-2.2 9.1 31.9-5.1-6.4-17.1-33.6-173.8zM524.3 490l-13.6 2.2-2.7-1.7 6.4-43.4 1.7-23.6 3 22.8 7.8 41.7-2.6 2zM568.4 353.4l-4.3 30 13.1-5.1 16.8-2.7 3.1 2.5 2.9 166.6-3.1 13.2 31.9-5-3.4-12.2-2.9-166.6 2.8-3.5 16.5-2.6 13.5.9-5.1-28.5zM709.7 344.3l3-13.5-31.9 5 3.5 12.5 3.1 182.9-3.1 13.2 31.9-5.1-3.5-12.1zM816.3 314.8l-51.1 8.1-12.4 15 3 182.6 12.9 11 51.1-8.1 12.4-15-3-182.6-12.9-11zm-12.7 185.1l-19.5 3.1-3.1-2.5-2.7-150.3 2.8-3.5 19.5-3.1 3.1 2.5 2.7 150.3-2.8 3.5zM932.7 505.7l28.7-4.5-3.5-12.2-3-182.9 3-13.5-31.9 5.1 3.5 12.4L931 407l1.7 18.2-5-17.6-30-105.4-28.6 4.5 3.4 12.5 3.1 182.9-3.1 13.2 31.9-5.1-3.5-12.1-1.5-97.2-1.6-18.2 4.9 17.6z"/></g></svg>