<svg id="Layer_1" xmlns="http://www.w3.org/2000/svg" viewBox="0 0 982.1 442.8"><style>.st0{fill:#231f20}</style><path class="st0" d="M449.8 432l-13-25.5v-.1h-5.4v36.2h4.3v-28.9l12.6 25 .1.1h2.7l12.8-25.1V442.6h4.2v-36.2h-5.4zM522.1 424.9l-11.5-18.4-.1-.1h-4.6l14 24v12.2h4.4v-12.4l13.6-23.5.2-.3h-4.6zM603 418.6c0-7.8-5.2-12.2-14.3-12.2h-13.8v36.3h4.5v-11.3h9.3c.8 0 1.6 0 2.3-.1l7.4 11.4h5.1l-8.5-12.3c5.3-1.8 8-5.9 8-11.8zm-4.3.1c0 5.4-3.5 8.3-10 8.3h-9.3v-16.3h9.3c6.5 0 10 2.8 10 8zM655.5 406.3c-10.7 0-19 8-19 18.2 0 10.3 8.3 18.3 19 18.3 10.6 0 19-8.1 19-18.3 0-10.2-8.3-18.2-19-18.2zm14.4 18.2c0 7.7-6.4 14-14.4 14s-14.5-6.3-14.5-14 6.5-14 14.5-14 14.4 6.3 14.4 14zM734.2 434.9L713 406.5v-.1h-4.6v36.2h4.5v-28.4l21.2 28.4h4.6v-36.2h-4.5zM768.4 406.4c-1.5 0-2.6 1.2-2.6 2.8 0 .9.4 1.7 1.1 2.2l-1.7 3.9h2.7l2.5-3.8c.4-.6.8-1.4.8-2.3-.2-1.6-1.3-2.8-2.8-2.8zM806.3 422c-4.6-1.4-8.7-2.6-8.7-6.7 0-2.8 2.9-4.6 7.5-4.6 3.3 0 7 1.1 9.8 3l.2.1 1.8-4 .1-.1-.1-.1c-3.1-2.1-7.4-3.4-11.5-3.4-7.7 0-12.6 3.7-12.6 9.5 0 7.1 6.1 8.9 11.4 10.5 4.5 1.3 8.8 2.6 8.8 6.8 0 3.3-3.1 5.3-8.2 5.3-4.1 0-8.6-1.9-11.8-5l-.2-.2-2 4 .1.1c3.6 3.5 8.8 5.5 13.9 5.5 7.9 0 13.2-4 13.2-10-.2-7.2-6.3-9-11.7-10.7z"/><g><path class="st0" d="M670.2 81.2c0 .1.1.1.3.2-.1-.1-.2-.1-.3-.2zM810.4 294.8c-.5.1-.7.2-.6.4.1-.2.4-.3.6-.4zM924.8 281c-.4.1-.7.2-1.1.2l.2.2.9-.4zM923.6 276.9c2.5-.6 4.7-1.1 5.8-1.2-.2-.1-.3-.1-.5-.1H928.6c-.2 0-.3 0-.4.1-.1 0-.3.1-.6.1h-.5c-.2 0-.4 0-.7-.1.1 0 .2.1.1.2s-1.3.5-2.9 1z"/><path class="st0" d="M982.1 265.1l-9.1.9c-1.6.7-3.1 1.2-4.5 1.7-1.5.5-2.9 1-4.3 1.4-2.8.8-5.5 1.5-8.2 2.1-1.4.3-2.7.6-4.1.9-4.1.9-8.2 1.9-12.8 3.4.5-.2.9-.2 1.1-.2H940.5c.1 0 .1.1.1.1v.1s0 .1-.1.1c0 .1-.1.1-.1.2l-.1.1c-.1.1-.2.1-.3.2-.1 0-.1.1-.2.1-.1.1-.3.2-.4.2-.1 0-.2.1-.2.1l-.6.3c-.1 0-.2.1-.2.1-.3.1-.7.3-1.1.5 0 0-.1 0-.1.1-.4.1-.7.3-1.1.4-.2.1-.3.1-.5.2-.3.1-.7.2-1 .4-.2.1-.4.1-.6.2-.4.1-.7.2-1.1.3-.2.1-.5.1-.7.2-.4.1-.9.2-1.4.4-.3.1-.5.1-.8.2-.5.1-1.1.3-1.7.4-.2.1-.5.1-.7.2-.8.2-1.7.4-2.7.6l9.7-5-.1.1.1-.1-9.7 5h.1l-1.3.6c-.4 0-1.4-.2-2.6-.3.5-.3 1.3-.6 2.2-1 .9-.4 1.9-.8 2.9-1.1 2-.8 3.8-1.4 4-1.6-.5.1-3.4 1-6.3 1.9-1.7.6-3.5 1.1-4.6 1.6-.5-.1-1.1-.1-1.6-.2-.2 0-.3 0-.5-.1-.4 0-.8-.1-1.1-.1h-.5c-.3 0-.7 0-.9-.1h-.3-.1c-.3 0-.5 0-.7.1-.1 0-.3.1-.4.1l-.9-.3c1.6-.8 7.9-2.4 11.7-3.6-4.2 1-9.3 2.3-11.7 3.1 0 0-.1-.1 0-.1 0 0 .2-.1.4-.1l-1.2-.5c.3.3.5.6.8.7-.4.1-.7.2-.9.3l.9.3c-.2.1-.3.2-.4.2 0 .1 0 .1.1.2-.2 0-.5-.1-.7-.1-.1 0-.2 0-.4-.1-.4-.1-.9-.1-1.3-.2h-.2.1-.1c-.7-.1-1.4-.2-2.2-.2-.8-.1-1.6-.2-2.4-.2.3-.1.6-.2.8-.2.1 0 .1 0 .2-.1s.2-.1.3-.2c0 0 .1 0 .1-.1v-.1c-.1 0-.3-.1-.6-.1h-1.1c-.3 0-.7.1-1.1.1h-.4c-.5.1-1.1.1-1.8.2h-.1c-.7-.1-1.4-.1-1.9-.1.1.1.2.3.4.4-.6.1-1.2.2-1.9.3v-.1h-.2-.1c-.2 0-.3.1-.6.2.4-.1.7-.1 1-.2-.1.1-.4.2-.5.3h-.2.1-.1 1c.2 0 .4 0 .5.1-1.2.8-5.3 1.6-6.6 2.2h-.4c-.1 0-.1 0-.1-.1.1 0 .2-.1.3-.2.1-.1.2-.1.2-.2s0-.1-.2-.1l-2 .8c-.1-.2-.7-.2-1.2-.3-.5 0-1-.1-.8-.3.1-.1.6-.3 1.4-.5l-3.2.7c-1.9.1-4.6.5-6.1 1.1-.3 0-.7.1-1 .1-.1 0-.3 0-.4.1-.4.1-.7.1-1 .1h-.3l.2-.4c-.2.1-.3.2-.4.3 0 .1 0 .1.1.1l-2.4 3.9h-1.5c-.9 0-1.8-.1-2.8-.2-.3 0-.5-.1-.8-.1-.9-.1-1.8-.3-2.8-.4l.1.1s0 .1.1.1c0 .1.1.2.1.3v.2c0 .1.1.3.1.5v.3c0 .3.1.5.1.8v.1l-.1-.1c-.4-.3-.8-.6-1.3-1-.1-.1-.3-.2-.4-.3-.3-.2-.6-.4-1-.6-.2-.1-.4-.2-.5-.3-.3-.1-.6-.3-.9-.4-.2-.1-.4-.1-.6-.1-.2 0-.4-.1-.5-.1-.2 0-.4 0-.6.1v-.1c-.1 0-.3 0-.4.1-.2 0-.5.1-.8.1h-1.4c.3-.1.6-.1.9-.2-.3 0-1.9.1-3.9.3-1.2.1-2.6.2-4 .3-3.7.3-7.5.6-8 .8-.2-.2-.5-.4-.9-.5-.1 0-.2 0-.4-.1-.2 0-.5-.1-.7-.1h-.4c-.3 0-.7 0-1.1.1-.1 0-.3 0-.4.1-.5.1-1 .2-1.4.3l-1.2.3c-.1 0-.3 0-.4.1-.3.1-.6.1-.9.1h-.4v1.1c-.9.1-1.8.3-2.8.6-1.7.2-3.3.5-3.7.8l1 1.1c-.4.1-.7.1-1.2.1-.4 0-.9 0-1.3-.1-.6-.1-1.2-.1-1.9-.1h-.1c-.5 0-.9 0-1.4.1.1-.2.3-.3.5-.3h.1c.2 0 .5 0 .7.1-.4-.2-.8-.3-1.1-.4h-1c-.4 0-.8.1-1.2.2-.1 0-.2 0-.3.1-.5.2-1 .4-1.6.6-.4.2-.8.3-1.2.5-.2.1-.3.1-.5.2-.4.1-.8.2-1.2.2h-.2c-.4 0-.8-.1-1.1-.2-.3.2-.6.3-.8.3h-.1c-.3 0-.5 0-.8-.1.1 0 .1 0 .2-.1h-.3c-.3-.1-.7-.3-1-.4.3.2.6.4.9.4-.5.1-1.3.3-2.1.6l-.5-1c.3-.1.7-.2.9-.2.3 0 .5 0 .7.1l-.9-.6c-.2-.1-.4-.2-.5-.3-.1 0-.1-.1-.2-.1-.2-.1-.3-.2-.4-.2-.1 0-.1.1-.1.3l.4.9c-.1 0-.1 0-.2.1-.1 0-.2-.1-.3-.1h-.1s-.1 0-.1.1c0 0-.1.1-.1.2v.1c0 .1.1.2.1.3 0 0 0 .1.1.1.1.2.2.3.3.5-.2.1-.3.2-.4.3.2 0 .5-.1.9-.1H816.5c.5 0 1.1 0 1.6.1h1.6c-.6.2-1.1.4-1.5 1.2.5-.1 1-.1 1.4-.2l-.5.3-1.7.5c-.3-.2-.6-.2-.8-.2-.2 0-.3 0-.4.1-.1 0-.1 0 0 0s.2-.2.5-.5c-.4.3-.7.4-.9.5-.1 0-.2.1-.2.1-.2.1-.3.1-.4.1h-.2c-.2 0-.4-.1-.6-.1-.2-.1-.3-.1-.5-.1h-.1-.1c-.1 0-.2 0-.4.1-.1 0-.1 0-.2.1-.2.1-.5.3-.8.5v-.9c-.2 0-.4.1-.7.3-.2.1-.3.2-.5.3-.1.1-.2.1-.3.2-.2.1-.3.1-.5.2-.1 0-.2 0-.2.1-.2 0-.4 0-.5-.1-.3-.2-.6-.3-1-.3h-.5c-.3 0-.5-.1-.8-.1h-.1c-.6 0-1.3 0-2 .1-.3 0-.6.1-.8.1-.6.1-1.3.1-1.9.2-.5.1-1.1.1-1.7.2-.3 0-.7.1-1 .1-.5 0-1 .1-1.5.1h-.9c-.9 0-1.7-.1-2.5-.2.2.3.2.5.2.7v.1c0 .1-.1.1-.1.1h-.1c-.2 0-.5-.1-.8-.2-.3-.1-.6-.2-.9-.2h-.1c-.1 0-.2.1-.3.1 0 0-.1 0-.1.1-.1.1-.2.3-.2.5-.3-.4-.8-.7-.7-1 0-.1.1-.2.3-.4-.4.1-.7.2-1 .3H788.4c-.1 0-.2.1-.3.1-.1 0-.2 0-.3.1-.1.1-.3.1-.4.2-.1 0-.1 0-.2.1-.2.1-.4.3-.6.6-.1-.1-.1-.3-.1-.4 0-.2.2-.4.3-.6 0-.1 0-.2-.1-.3-.1 0-.2.1-.3.2 0 0-.1 0-.1.1-.1.1-.3.1-.4.1-.1 0-.2 0-.3-.1-.1-.1-.1-.2-.1-.2.1-.2.5-.4.8-.6-.3.1-.6.1-.9.2-1.2.5-1.6 1.4-1.7 2.5V300.3c-.5-.2-.8-.3-1.1-.3h-.1-.1c-.2 0-.4.1-.5.2-.1 0-.2.1-.2.1-.2.2-.4.4-.7.8-.3-.3-.8-.6-.7-.9.1-.2.3-.3.9-.5-.6 0-2.6 0-4.1.2-.6.1-1.1.3-1.3.5-.1.1-.2.3-.2.4-.1-.1-.2-.1-.4-.1h-.1c-.2 0-.3 0-.5.1h-.1c-.2.1-.3.1-.4.2-2 .2-2.2.1-4.2.4l.6.2c0 .1-.1.1-.1.2-2.7.1-5.4.2-8 .3-2.6.1-5.2.2-7.8.2-.6-.6-1.2-1-1.7-1.1-.1 0-.1-.1-.1-.1.1-.1.5-.3.8-.4-.3-.1-.6-.1-.8-.2h-.4c-.2 0-.3.1-.4.2V301.9c0 .2-.1.4-.3.5h-.7c-.1-.2-.1-.4-.1-.6v-.4c0-.1-.1-.1-.1-.1 0-.1-.1-.2-.2-.2s-.2 0-.3-.1c-.1 0-.2-.1-.4-.1h-.1c-.1 0-.1-.1-.2-.1s-.2.1-.3.1c-.1 0-.2 0-.3.1l-.6.3-.6.3c-.2.1-.5.3-.8.4l-1.2.6c-1.8 0-3.5 0-5.2.1h-5.1c-.2 0-.3.1-.5.1-.3 0-.5 0-.8.1l-.6.3-.6.3c-.3.1-.5.3-.8.5-.2.1-.3.2-.5.3l-1.2.9-1.2.9c-.1.1-.3.2-.4.3-.3.2-.5.4-.8.5-.2.1-.3.1-.5.2s-.5.3-.7.3c-.2.1-.3.1-.5.1s-.5.1-.7.1h-.6c-1.1 0-2.3.1-3.4.1-.5 0-1 0-1.5.1-1.8.1-3.6.3-5.4.6-.3 0-.6.1-.9.1-1.6.2-3.1.4-4.7.7-.9.1-1.7.3-2.6.4-1.2.2-2.3.4-3.5.6-1.5.3-3 .5-4.4.7-.7.1-1.3.2-2 .3-1 .2-2.1.3-3.1.5-.7.1-1.3.2-2 .2-.9.1-1.8.2-2.6.3-.6.1-1.2.1-1.8.1-1 0-2.1.1-3 0-10.4-.6-17.8-1.3-21.9-1.8-2.4-.3-3.7-.5-3.7-.5l-12.6-2c1.6-2.2 1.1-3.9 3.1-5.6 1.1-1 2.1-2 3.2-3 .2-.1.4-.3.5-.5 9-8.3 19.6-17.2 26.3-26.3.1.1.2.2.3.4-.1-.2-.2-.3-.2-.5.1-.1.1-.2.1-.3-.1-.6-1.2-1.1-1.6-1.7-.1-.1-.1-.2-.2-.3 0-.1 0-.2.1-.3l.1.1v-.2c.1-.2.3-.4.4-.6l.6 1.2c-.4-1.9 2.5-.8 2.6-2.2-.2.2-.3.3-.5.4l-.1.1c-.1.1-.2.1-.3.1h-.1c-.1 0-.2 0-.3-.1h-.1l-.2-.2-.1-.1-.2-.2-.3-.3c.4-.5.7-1 1.1-1.5l.9.3c.3.1.6.1.9.2.3 0 .5-.1.8-.2.2-.1.5-.4.7-.6l.1-.1.1-.1c0 .1-.1.2-.3.2 0 0-.1 0-.1.1-.2.1-.3.1-.5.1-.1 0-.2 0-.3-.1s-.2 0-.3-.1c-.1-.1-.2-.2-.2-.4v-.1c.3-.1.6-.2 1-.3h.3c.4 0 .7-.1 1.1 0 .3-.5.4-.7.3-.9-.1-.3-.5-.3-.9-.4-.4-.1-.7-.2-.7-.7.2.1.4.1.5.1h.1c.1 0 .1 0 .1-.1.1 0 .1-.1.1-.2v-.1c0-.1 0-.2-.1-.4s-.2-.5-.2-.8c.1-.2.2-.3.4-.5l.6.5c.6-.3.7-.6.7-.9 0-.3-.2-.6-.4-.8.2-.3.4-.5.6-.8l.5 1.1.4-1.2 1 1.2v-1c.2-.8.6-1 1.5-1.4-.1 0-.1-.1-.1-.1 0-.1.3-.2.5-.3.1-.1.3-.1.5-.2.6-.3 1.3-.6 1.2-.9.2-.3.5-.6.7-.9l.3.3.1.1s.1 0 .1-.1h.1c.1-.1.2-.2.4-.5l.3.6c0 .1 0 .1.1.2s.1.3.1.4v.2c0 .1 0 .2-.1.2 0 0-.1 0-.2.1h-.6c.1.1-.1.2-.3.3-.8.3-2.6.6-2.4.9h.5c.1 0 .3-.1.4-.1.1 0 .2 0 .3-.1.1 0 .3-.1.5-.1.1 0 .2-.1.4-.1.2-.1.3-.1.5-.2.1 0 .2-.1.3-.1.2-.1.4-.1.5-.2.1 0 .2-.1.3-.1.2-.1.4-.2.5-.2.1 0 .1 0 .2-.1.2-.1.3-.2.4-.2h.1c.1-.1.2-.1.3-.2-.1.1-.3.2-.5.2h-.1v-2.9c.6.1.8.6.9 1 0-.1.1-.2.1-.4v-.4c0-.3 0-.6.2-.9.2.3.5.5.7.8l.4.4c.1.1.1.2.1.2.1.1.2.3.2.4v.3c0 .2.1.3 0 .5v-.1l.4-2.4c.5.2 1.7.1 1.9.5 1.3-.5.2-3.6 1.9-4.2-.1-.1-.1-.2-.1-.4v-.5c1.1-1 3-1 3-3.4l2.2.6c.1-.2.1-.3 0-.4-.2-.5-1-.5-1.6-.9-.1-.1-.3-.2-.4-.3-.1-.1-.1-.3-.2-.5 0-.2 0-.4.1-.7.1-.2.1-.4.2-.4 0 0 .1 0 .1-.1.1 0 .1-.1.2-.1h.1c.1 0 .2.1.4.1 0 0 .1 0 .1.1.1.1.3.2.4.4.1.1.3.2.4.3l.1.1c.1.1.2.1.4.1h.1c-.1-.6-.4-1.6-.3-2.3 0-.2.1-.4.1-.5.2-.5.6-.9 1.4-.9 0 .6-.5.7-.7 1.2l1.6-.1c.1.6.2 1 .2 1.3v.8c0 .4.2.5 1.2.6-1.1-1-1-1.7-.7-2.4.4-.7 1-1.3 1.1-2.1 0-.5-.2-1.1-.9-1.7h1.1c-.2.1 0 .3-.2.4h.1c.1 0 .2 0 .3-.1.1 0 .2 0 .2-.1.1 0 .1-.1.1-.2l.1-.1c0-.1 0-.2-.1-.3 0-.1 0-.1-.1-.2s-.1-.3-.2-.4c-.1-.1-.1-.3-.2-.4-.1-.1-.1-.3-.2-.4-.1-.1-.1-.2-.1-.3 0-.1-.1-.2-.1-.3v-.4-.2c.1-.2.2-.3.4-.5.2-.1.5-.2.7-.2h.2c.1 0 .2 0 .3.1 0 0 .1 0 .1.1.1.1.2.2.2.4l.2-1.7c.1-.1.2-.1.2-.1.1 0 .2 0 .2.1.1.1.1.2.1.2 0 .1 0 .1-.1.2l1.1-1.9.1.1c-.2-.6-.5-1.4-.6-2 .1-.1.1-.2.2-.2.2.1.1.3.2.5 0 .1.1.1.2.2v-1.1l.3-.3c.4.2.6.6.7 1 .1.4-.1.8-.4 1.1.4.2.8.3 1 .4h.2c.1 0 .2.1.3.1h.2c.1 0 .1-.1.1-.1v-.1-.3-.5-.1c0-.1 0-.2.1-.3 0-.1 0-.1.1-.2l.3-.3c.1 0 .1-.1.2-.1.2-.1.5-.2.9-.2l-.3 1.2c.5.2.9.3 1.3.3.3 0 .5-.1.8-.2.2-.1.3-.1.5-.2.1-.1.3-.1.4-.2.3-.1.6-.2 1-.2-.8-.2-4.4-.2-4.3-1.8.3-.1.7-.3.7-.8v-.7c.2.2.4.3.6.3h.2l.1-.1c.1 0 .3-.1.3-.2s.1-.1.1-.2c.1-.2.2-.4.3-.5l1.4 1.2c.2-1.1-.6-1.6-.9-2.6.2-.2.5-.3.8-.3h.2c.3 0 .6.1.9.2.1 0 .2.1.3.1.3.2.7.3 1 .5.2-.1.2-.3.3-.3.1-.6-1.9-.5-2-1.4 0-.2 0-.3.2-.6 1.4-.6 1.5-1.9 1.6-3.9.2-.1.4 0 .5 0 .1 0 .1 0 .2.1l.2.2c0 .1.1.1.1.2s.1.2.1.2c.1.1.2.2.3.2l-.6-1.6c.1-.1.2 0 .3.1h.1l.3.3c0-.7-.7-1-1-1.6.5-.6.9-1.2 1.4-1.7.7-.1 1.4-.3 1.5-.9 0-.2 0-.4-.1-.7.2 0 .3.1.4.2.3.3.5.8 1 1v-1.8c0-.4 0-.7-.1-1.2.5-.6.9-1.2 1.4-1.8.2-.2.3-.4.5-.7h.2c-.1 0-.1-.1-.2-.1.2-.3.4-.6.7-.8l1 .5-.6-.5 2.5-1c-.1-.6-.3-1.3-.5-1.9.5-.6.9-1.2 1.4-1.8-.1.5-.2.9-.5 1.2.1-.1.3-.1.4-.1.2 0 .4.1.5.2l.1.1c.1.1.2.3.3.4l.2-2.9c.3.2.4.3.6.4h.4c.1 0 .2-.1.4-.1.2-.1.4-.2.7-.2-.4-.2-.7-.4-.8-.6-.2-.2-.3-.4-.4-.6.5-.6 1-1.3 1.5-1.9.1.2.2.4.2.7 0 .2-.2.5-.4.7h.3c.1 0 .1 0 .2-.1.1 0 .2 0 .2-.1.1-.1.1-.1.1-.2v-.1c0-.1 0-.2-.1-.4v-.2l-.3-.6c.6-.8 1.2-1.6 1.8-2.3 0 0 .1 0 .2.1l-.2.2c.8-.7 1.7-2 2.2-3.3.4-.6.9-1.1 1.3-1.7l.9.9-.7-1.2c.2-.3.4-.6.7-.9l1.5 1.8c-.4-.7-.5-1.2-.5-1.4.1-.3.3-.4.6-.5l-1.1-.6c.2-.3.4-.5.6-.8.4.5.6.9.6 1.4h-.1l.1.1v-.1c.5-.2 1.2-.4 1.2-1.7-.1 0-.2 0-.4-.1h-.1c-.2-.1-.5-.2-.7-.3.3-.3.5-.7.8-1h1.6c-.1 0-.2-.1-.4-.1-.1 0-.1 0-.1-.1-.2-.1-.4-.3-.6-.5.2-.2.4-.5.5-.7.2.2.4.3.5.5l.1.1c.1.1.2.2.2.3v-.1l-.2-.4-.4-.9c.2-.3.4-.6.6-.8.6.3 1.2.6 1.6.7-.2-.1-.2-.2-.1-.3.2-.4 1.2-1.1 1.2-1.5l-1.1.2c.2-.2.4-.4.4-.7 0-.3 0-.6-.1-.9.5-.7 1.1-1.4 1.6-2.2.2.1.5.2.6.2h.1c.1 0 .2 0 .4-.1-.1-.2-.3-.5-.6-.8.3-.4.6-.9 1-1.3.2.5.5 1.1.6 1.4h1s.1 0 .1-.1h.1c.1-.1.2-.2.4-.5.5.1.7.4.7.8v.5c0 .2-.1.3-.1.4l2.1-1.9c-1.2-.8-.8-2-1.1-3 0-.2-.1-.3-.2-.4-.1-.1-.2-.3-.4-.4l-.2 3.6c-.7-.4-1.3-1.4-1.8-2.3.6-.8 1.1-1.5 1.7-2.3.5.6 1 1.1 1.2 1.3-.1-.1-.1-.4-.1-.6v-.3c0-.2 0-.3.1-.5 0-.1.1-.2.1-.2 0-.1.1-.3.2-.3 0-.1.1-.1.1-.1.1-.1.2-.1.2-.1l.3 1.3c.2-.1.3-.1.3-.3v-.1c0-.1.1-.2.1-.3v-.2-.3c0-.2-.1-.3-.1-.5v-.2-.3-.2c0-.1 0-.2.1-.2 0-.1.1-.1.1-.1l.2-.2h.3c.1 0 .2-.1.4-.1.1-.1.2-.1.4-.1H761.6c.1 0 .2 0 .3-.1 0-.1 0-.1-.2-.3-.6-.2-1.5-.6-2.4-1.2.5-.6 1-1.3 1.5-2 .2.1.4.3.6.4-.2-.2-.3-.4-.5-.6.1-.2.2-.3.3-.5.1.1.2.1.3.2h.1c.1 0 .1.1.2.1h.2c.1-.1.1-.1.2-.3-.3-.3-.4-.5-.4-.7 2.2-3 4.5-6 6.7-9 .1 0 .1 0 .2.1-.1 0-.1-.1-.1-.2.5-.6 1-1.3 1.5-2 0 0 .1 0 .2-.1l.3-.3v-.1c1.5-2 3-4.1 4.5-6.1 3-4.1 6.1-8.3 9.3-12.4 1.6-2.1 3.3-4.1 5.1-6.2 4.3-5.1 7.5-10.1 9.5-14.7.7-1.6 1.2-3.1 1.6-4.6.6-.4 1.2-.8 1.8-1.1.6-.3 1.2-.7 1.8-1 1.3-.6 2.6-1.1 4-1.4h-.7c-.1 0-.1-.1-.1-.1v-.1c0-.1.1-.2.2-.2 0 0 0-.1.1-.1.1-.1.3-.3.5-.4h-.2s-.1 0-.1-.1-.1-.1-.1-.2c0 0 0-.1-.1-.1 0-.1-.1-.3-.1-.4-.1-.1-.1-.3-.2-.4l3.7-.9c-.2-1.7 3.1-2.4 2.7-3.9l-.8.9c.2-1.1-.6-1.5-1.6-1.9l2.4-2.4c-.8-.9-1.6-1.7-2.3-2.4l-.6-.6c-.6-.6-1.2-1.1-1.8-1.6-.2-.1-.3-.3-.5-.4-.7-.6-1.4-1.1-2.1-1.6-.2-.1-.3-.2-.5-.3-.6-.4-1.1-.7-1.7-1-.2-.1-.4-.2-.5-.3-.7-.4-1.3-.7-2-1 0 0-.1 0-.1-.1l-1.8-.6c-.2-.1-.4-.1-.5-.1-.5-.1-1.1-.2-1.6-.3-.1 0-.2 0-.3-.1-.6-.1-1.2-.1-1.8-.1H795.4c-1 0-2 .1-3 .3-.1 0-.2 0-.3.1-1 .2-2 .5-3 .9-9.2.6-34.8 17.6-66.8 39.3-4.6 3.1-9.3 6.3-14.1 9.5-21.6 14.6-45.3 30.5-68.5 44.5-18 10.9-35.6 20.7-51.6 27.8.1-.2 0-.3-.1-.4h-.7l-.4 1c-2 .9-4 1.8-6 2.6 1.9-2 3.8-3.9 5.7-5.8l-.6 1.8.9-2c.8-.8 1.5-1.6 2.3-2.3.1.1.2.2.2.3v.6c.1-.2.1-.5.2-.7.1-.2.1-.5.1-.6.6-.6 1.3-1.3 1.9-2 .1 0 .1 0 .1.1 0 0-.1 0-.1-.1l3-3c2.1-2.1 4.2-4.2 6.4-6.3.6.4 1.5.7 2.2.9-.1-.1-.2-.2-.2-.5 0-.1 0-.2.1-.4s.2-.4.3-.7c-.2 0-.5.1-.8.2-.3.1-.6.2-.9.2-.1 0-.3 0-.4-.1.4-.4.8-.8 1.3-1.2h.1c.1 0 .3 0 .4-.1-.1 0-.1-.2-.2-.2 1.3-1.2 2.5-2.5 3.8-3.7v.1l1.3-.2c-.1.3-.2.6-.3 1-.3 1-.8 2.2-1.7 2.7.2.1.4.1.5.1h.1l.1-.1s.1 0 .1-.1h.9c-.2-.1-.3-.2-.4-.3v-.1-.2c0-.1.1-.1.1-.2l.2-.2c.1-.1.2-.2.3-.2l.3-.3.3-.3c.1-.1.1-.1.1-.2l.2-.2v-.1-.2s-.1-.1-.2-.1l-.1-.1h.6c.1 0 .2 0 .3-.1.2-.1.3-.1.5-.2s.3-.2.5-.2c.1-.1.2-.1.3-.2.3-.1.6-.2 1-.2-.1-.1-.3-.2-.4-.3 0-.1.1-.3.6-.6v-.4h0v-.1.1c-.3.1-.6.1-.8 0-.1-1 1.3-2.3 1.5-3 .1-.1.2-.1.3-.1v.4c0 .1.1.1.2.1l.3-1.1c.5.4 1.5 0 1.6.4 0 .1 0 .4-.3.7l1.1-1c.2-.1.5-.2.7-.3.7-.4 1.3-.9 1.6-1.5l.3-.3s0-.1.1-.1c.1-.1.1-.2.2-.4v-.1c0-.1.1-.2.1-.3 0-.1 0-.2.1-.2v.2l1.4-2 .1.1c1.8-1.5 2.7-4.2 5.6-5-.3.4-.6.9-1.1 1.2.7-.2 1.3-.5 1.5-1.4-.1 0-.3.1-.4.1.5-.7.9-1.4 2-2.2l.6.3c.1-.2.4-.4.7-.6.8-.6 2-1.2 1.9-1.8.2 0 .3.1.5.1h.2c.1 0 .2 0 .3-.1.1 0 .3-.1.4-.2.1-.1.2-.1.3-.2.1-.1.3-.2.4-.3.1-.1.2-.2.3-.2.1-.1.3-.2.4-.4l.3-.3c.1-.2.3-.3.4-.5.1-.2.3-.3.4-.4.1-.2.3-.3.4-.5.1-.1.2-.3.4-.4.1-.1.2-.2.2-.3.2-.2.4-.3.6-.4l-.5-.7c.9-.8 1.6-1.8 2.5-3.1l-.6-.5c.4-1 1.8-1.6 3.1-2.4.4-.3.9-.6 1.2-1 .1.3-.3.6-.7.7 1.1-.1 1.8-.8 2.4-1.6 1-1.4 1.5-3.1 3.1-3.5.1-.3.3-.5.4-.6l.6-.3-.1.1s.1-.1.2-.1c.3-.1.6-.1.9-.2-.3 0-.6.1-.8.1.3-.3.7-.8 1.1-1.4l.8.4c-.3.5-.7.7-1.1.8.8-.1 1.7 0 1.9-.2.1-.1 0-.1-.1-.3l-.7-.4.1-.1c.2-.1.3-.1.3-.2.1-.2-.4-.5-.9-.7.1-.3.3-.6.3-1 .2.1.3.1.4.1.1 0 .2-.1.3-.1 0 0 .1 0 .1-.1l.3-.3.3-.3.1-.1c.1-.1.3-.2.4-.2.1 0 .3 0 .4.1h.1c0-.2.1-.4.2-.7v-.1l.6-.9c.2-.3.3-.6.5-.9 0-.1 0-.1.1-.2.1-.3.1-.6.1-.9v-.1c.2-.1.3-.2.5-.3.1-.1.3-.2.4-.3.3-.2.5-.5.6-.9l.9.6.2-2.1c.3 0 .5-.1.8-.1.2 0 .3 0 .5.1 0 0 .1 0 .1.1l.2.2v.1c0 .2.1.4 0 .6.2-.6.4-1 .5-1.3.1-.3.3-.5.4-.7.2-.4.4-.7.7-1.8l.4.6c.1-.1.2-.3.3-.5l.3-.6c0-.1.1-.1.1-.2.1-.1.1-.2.2-.3 0-.1.1-.1.2-.1.1-.1.2-.1.3-.1 2-.1 5.8-5.1 9.6-6.9-.5-.2-.6-.4-.5-.5.2-.3 1.6-.4 1.7-.9 0-.1 0-.2-.1-.4.4.1.8.1.9.4v.4c.6-.9 1.3-1.2 1.8-1.7.6-.4 1-.8 1.1-1.8.2.1.3.3.3.5s0 .4.2.4c0-.1.1-.2.1-.4.1-.1.2-.2.3-.2h.1c.1 0 .1.1.2.1.1.2-.1.5-.2.8.4-.4.6-.7.7-1.1.1-.2.1-.3.1-.5 0-.8-.5-1.6-1-2.3.6-.1 1-.3 1.2-.6.2-.3.3-.7.3-1.3.1 0 .3 0 .4.1.3 0 .5.1.4.4 0 .1-.1.3-.4.6.5-.4 3-2 3.1-3 0-.1 0-.3-.1-.4 0 0 .1 0 .1-.1h.1c.1 0 .1-.1.2-.2l.1-.1c.1-.1.1-.1.1-.2 0 0 0-.1.1-.1.1-.1.1-.2.1-.2 1.2-1.1 1.4-1.1 2.5-2.3l-.5.2c-.1-.4-.1-.6-.1-.8.2-.6 1-.6 1.7-1.3l.1.1c.7-.3 1.1-.6 1.3-.8.2-.2.3-.3.4-.5 0-.1.1-.1.1-.2.1-.1.3-.3.8-.5.2-.1.5-.2.9-.4l-.7-.5c-.1-.2-.2-.3-.2-.5 0-.9 2.9-.7 3.6-2.2l-.8.1c0-.2.2-.3.4-.4 0 0 .1 0 .2-.1.2 0 .4-.1.6-.1h.1c.4 0 .8 0 1.2.1.4 0 .8.1 1.1.1h.2c.3 0 .5 0 .6-.1.1 0 .1.1 0 .2s-.2.3-.2.4c.9-.3 1.1-.6 1-.8-.1-.3-.7-.6-.6-1.2 0-.1.1-.3.3-.5.2 0 .3.2.4.3.1.1.2.2.2.3 0 .1.1.1.1.2.1.1.2.1.3.2h.1c.1 0 .3-.1.6-.2.1 0 .2-.1.3-.2.6-.8 1.3-3.7 3-3.9-.3 0-.6-.1-.7-.2-.2-.1-.2-.4 0-.8.4-.5 1.4-.8 2.2-1.2.8-.4 1.5-.9 1.5-1.8.2 0 .3 0 .4.1-.1.2-.1.3-.1.4 0 .1 0 .2.1.2.1-.2.1-.3.1-.4 0-.1 0-.2-.1-.2.4-.7 1.3-1.8 1.7-2.8.1-.3.2-.6.2-.8.3.2.5.2.8.2h.1c.1 0 .1 0 .2-.1.2 0 .4-.1.5-.2l.2-.2.5-.5c0-.1.1-.1.1-.2l.6-.9c.2-.2.3-.5.5-.7.1-.1.1-.2.2-.3.1-.2.3-.3.4-.4l.2-.2c.2-.1.4-.2.5-.2.2 0 .4.1.6.4l2.1-2.2.1.3c1.6-1.2 1.6-2.1 1.7-3.1h.2c.1 0 .1.1.2.1 0 .1 0 .2.1.2.6-.4 1.1-.7 1.5-1 .2-.1.3-.3.5-.4.7-.7 1-1.4 1.5-3l.8.5c.1-.8 3.9-1.8 5.3-4.4 0 .1.1.3 0 .5.8-1.4 2.6-2.3 4-3.1.4-.2.7-.4 1-.7.6-.5 1-1 1-1.6 0-.3 0-.7-.2-1l1-2c-.3.3-.6.4-.8.4h-.1c-.2 0-.3 0-.3-.1v-.1c0-.1-.1-.2-.1-.4v-.5c.4-.3.9-.7 1.3-1 .1 0 .2.1.2.2s0 .2-.2.4h-.3c.1.2.2.3.3.3H733.4c.2 0 .3-.1.5-.2h.1c.2-.1.5-.3.7-.5.2-.1.4-.3.5-.4.1 0 .1-.1.2-.1.2-.1.4-.2.5-.2.1 0 .2 0 .3.1 3.8-3.6 8.2-6.5 11.9-9.8l-1.3-.5 1.3-1.1h.4c.1 0 .1.1.1.1l.1.1V55.9c-.1.1-.2.3-.4.5h.1c.1 0 .2-.1.3-.2.1 0 .2 0 .2-.1.1-.1.1-.3.2-.4 0-.1.1-.1.1-.2 0-.2.1-.3.1-.5v-.2c0-.2 0-.4-.1-.4.3-.2.6-.3.7-.3h.1c.1 0 .2.1.2.2s0 .3-.1.5c0 .1 0 .1-.1.2 0 .1-.1.3-.1.4v.2l.1-.1.7-.7h-.3c.2-.9-.1-1.4 1.1-2.3.2-.1.4-.2.5-.2.1 0 .2.1.3.1.1 0 .1.1.2.1h.4c.1-.1.2-.1.3-.3l1.7-1.4-1.3-.1c.1-.2.2-.3.2-.4 4.6-3.8 9.2-7.7 13.7-11.7h.6c-.1 0-.1 0-.1-.1-.1-.1-.2-.1-.1-.2l6.6-6c1.1-.8 2.3-1.6 3.2-2.7-.1-.1-.2-.1-.3-.2l.9-.9 1.1-.1c.2-.3 0-.7 0-1l.8-.8h0c1-1 1.9-2 2.9-3 1.6-1.4 3-2.9 4.5-4.4 2-2 4.1-3.9 6.6-5.3.6-.3 1.3-.7 2-.9h-.5-.1l-.1-.1v-.1c0-.1.1-.1.1-.2 0 0 0-.1.1-.1l.3-.3h-.2-.1l-.1-.1s0-.1-.1-.1c0-.1-.1-.2-.1-.3-.1-.1-.1-.2-.2-.3l2.9-1.1c0-.2-.1-.3 0-.4.2-.9 1.7-1.6 1.8-2.4 0-.1 0-.3-.1-.4l-.5.8c0-.8-.7-1.1-1.5-1.3.5-.7 1.1-1.4 1.6-2.1-1-.8-2-1.4-3-2-.2-.1-.4-.3-.6-.4-.9-.6-1.8-1-2.7-1.5-.2-.1-.3-.1-.5-.2-.8-.4-1.6-.7-2.3-.9-.1 0-.2-.1-.3-.1-.8-.2-1.6-.4-2.3-.5-.2 0-.3-.1-.5-.1-.7-.1-1.4-.2-2-.2h-.1c-1 0-1.9.1-2.8.3-.2.1-.5.1-.7.2-.7.2-1.3.4-2 .7-.2.1-.5.2-.7.3-.8.4-1.6.8-2.3 1.3-.1.1-.2.2-.3.2-.7.4-1.3.9-1.9 1.4-.2.2-.4.4-.7.5-.6.5-1.1 1-1.7 1.5l-.4.4c-.7.7-1.5 1.4-2.2 2.1-.5.5-1.1 1-1.6 1.5l-.6.6c-.6.6-1.3 1.2-2 1.7C752.1 21.7 738.9 32 725.5 42c-.1-.2-.3-.4-.2-.5-.5.4-.6.8-.5 1.1-15.7 11.7-31.6 23-47.8 33.8 0-.2-.1-.3-.2-.4-.1-.1-.2-.2-.2-.4s-.1-.3 0-.6c.1-.2.2-.6.5-1-.2.3-.4.6-.7.9-.5.7-1 1.3-.9 1.7 0 .1.1.2.1.2.1.1.2.1.4.1-1.5 1-2.9 2-4.4 2.9h-1.1l.6.3c-2.8 1.8-5.7 3.6-8.5 5.5 0-.2-.1-.4-.1-.6l-3.3 2.7c-4.4 2.8-8.9 5.6-13.4 8.3-1-1-2.6-1.8-4.1-2.2 0 .1.1.2.1.4.1.4-.2 1-1.6 2.4H640.5c.1 0 .3 0 .5-.1.1 0 .2 0 .4-.1.2 0 .5-.1.7-.1.3-.1.6-.1.8-.1h.2c.3 0 .6-.1.8-.1h.6c.1 0 .2.1.2.2v.1c0 .1 0 .2-.1.4-.9.5-1.7 1-2.6 1.6-.3 0-.6 0-.9-.1h-.4c-.2 0-.4 0-.6.1.3.1.4.2.5.4 0 .2 0 .4-.1.6-1.5.9-2.9 1.8-4.4 2.7-1 .1-1.9.4-2.9.7.4-.3.7-.5 1.1-.8-.1.1-.2.1-.3.2-.1-.3-.1-.4-.2-.5l-.1-.1c-.1-.1-.2-.1-.3-.1h-.1-.1c-.1 0-.3.1-.4.1-.2.1-.4.2-.5.4-.1 0-.1.1-.2.1-.1.1-.3.3-.5.4l-.2.2-.6.6s.1 0 .1.1c-1.2.4-2.3.9-3.5 1.4.4-.5.9-1.1 1.4-1.7.9-1.2 2-2.4 3.2-3.3.6-.5 1.3-.8 2-1.1-.1 0-.1 0-.2-.1-.2-.1-.3-.1-.5-.1h-.4c-.1 0-.2 0-.3.1 0 0-.1 0-.1.1 0 0-.1.1-.2.1s-.1.1-.2.1h-1c-.2 0-.5-.1-.9-.2.2.1.3.2.4.2 0 0 0 .1.1.1 0 .1.1.1.1.2v.1c0 .1 0 .1-.1.2l-.1.1c0 .1-.1.1-.2.2-.1 0-.1.1-.2.1l-.2.2-.2.2c-.1.1-.2.1-.3.2-.1.1-.2.1-.3.2-.1.1-.2.1-.3.2-.1.1-.2.1-.3.2-.2.1-.3.2-.5.3-.1.1-.3.1-.4.2-.1.1-.2.1-.3.2-.1.1-.2.1-.3.2-.1.1-.2.1-.2.2-.1.1-.2.1-.2.2-.1 0-.1.1-.2.1l-.2.2-.1.1-.1.1v.2s0 .1.1.1c0 0 .1.1.2.1s.1.1.2.1h.1-.3c-.2 0-.4-.1-.6-.1h-.4c-.4 0-.8.1-1.1.2-.4.1-.8.3-1.3.4-.4.1-.8.3-1.3.4-.4.1-.9.1-1.4.2h-.9c.4.5 1.5.4-1 1.5 0-.1 0-.1-.1-.2 0 0-.1 0-.2.1 0 0-.1 0-.1.1-.1.1-.3.2-.5.4.4-.2.7-.3.9-.4 0 .2-.2.5-.3.7-.1 0-.1 0-.2.1h.2v.1l.1-.1c.3 0 .6-.1.8 0 .3 0 .6 0 .8.1-.1.2-.2.5-.3.7-1.1 1.6-4.1 3.4-4.9 4.5-.2.1-.4.1-.5.1h-.1c-.1 0-.1-.1-.1-.1 0-.1.1-.2.1-.4 0-.1.1-.2.1-.3 0-.1-.1-.2-.3-.2l-1.4 2c-.2-.3-.6-.4-1.1-.4-.4-.1-.9-.1-1.3-.2-.2 0-.3-.1-.4-.1-.1-.1-.2-.2-.1-.3 0-.1.1-.3.3-.5.2-.2.4-.5.8-.8l-3 1.6c-2.1.3-4.7 1.4-5.9 2.8-.3.1-.5.3-.8.5-.1 0-.1.1-.2.1l-.6.6s0 .1-.1.1c-.2.2-.3.4-.4.5-.1.2-.2.3-.2.3 0-.1.1-.2.2-.3l-4.3 3.3-.2-.3c-4.7 2.4-8.5 7.2-14.9 8.1.4-.4.9-.7 1.4-1.1.5-.3 1-.7 1.7-1-.4.1-.7.1-1.1.2-1.1.3-2.1.8-2.8 2 .3 0 .6-.1.9-.1-1.4 1.2-2.8 2.4-5.6 3.5l-1-.7c-.2.2-.5.3-.8.5-2.2 1.1-5.9 1.8-6.2 3.1-.4-.2-.8-.3-1.3-.3h-.1c-.2 0-.3.1-.5.1-.4 0-.7.1-1.1.2-.2.1-.5.2-.7.2-.4.1-.7.3-1.1.4-.3.1-.5.2-.8.4-.4.2-.7.4-1.1.6-.3.2-.5.3-.8.5-.4.2-.8.5-1.2.7-.4.3-.9.5-1.3.8-.3.2-.6.4-1 .6-.4.2-.7.4-1.1.6l-.6.3c-.5.3-1 .5-1.5.7l.5 1.4c-1.3.6-2.4 1.3-3.6 2.1-1.2.8-2.5 1.7-3.9 2.8l.6.8c-3.1 1.4-6.2 2.7-9.3 4.1-2.6 0-4.8 1.4-6.7 2.9-4.8 2-9.6 4.1-14.5 6.2h-.1c-.3 0-.7-.1-.9-.1H513.7h-.1c-.2 0-.3.1-.4.1v.1c0 .1 0 .2.1.4l.4.4c-16.2 6.9-33.9 14.4-56.1 24-3.7 1.6-7.5 3.3-11.4 5-3.9 1.7-8 3.5-12.3 5.4-22.5 10-45.5 16.9-68.6 25.2-5.7 1.9-11.4 5.7-17.2 7.9-2.9 1-5.8 2-8.7 3.1l-20.1 7.2c-6.7 2.4-13.4 4.8-20 7.3-4 1.5-8.1 2.8-12.2 4.2-7.4 1.3-14.6 3.4-21.6 5.9-2.3.8-4.6 1.7-6.9 2.6-18.4 5-37 9.5-55.5 14.4h-1c-.8-.1-1.7-.1-2.5-.1-.4 0-.9.1-1.4.1-.6 0-1.2.1-1.9.1-1 .1-1.9.2-2.9.4l-1.8.3c-1.1.2-2.1.5-3.2.9-.5.2-1 .3-1.5.5-1.5.5-3.1 1.1-4.5 1.9-5 2.4-10 4.4-15.1 6.2-.2-.1-.4-.3-.7-.4-6 2.5-13.9.9-21.6 2.4 0 .3.5.7.5 1.1 0 .3-.2.6-.8 1l-4.4-2c-.3.1-.5.3-.7.4l-.1.1c-.2.2-.3.4-.5.6-.1.2-.3.4-.4.5l-.1.1c-.2.1-.4.2-.7.2H137.2l-.9-.3c.2.2.5.4.6.7.1.2 0 .4-.5.6-1.4-.1-2.9-.2-4.3-.2h-.9c-.6 0-1.3 0-1.9.1-1.2 0-2.4.1-3.6.2-.7.1-1.3.1-2 .2-1.3.1-2.6.3-3.8.4-.6.1-1.3.1-1.9.2-.6.1-1.3.2-1.9.2-.9.1-1.9.2-2.8.3h-.1c-1.3.1-2.6.1-4 .2-.4 0-.7 0-1.1.1-1.4.1-2.9.1-4.3.1h-3c-.4 0-.9 0-1.3-.1-.7 0-1.3-.1-1.9-.2-.4 0-.8-.1-1.2-.1-.7-.1-1.4-.2-2.1-.4-.4-.1-.7-.1-1.1-.2-1-.2-2.1-.5-3.1-.8.8.4 1.1.6 1 .8 0 .1-.2.2-.4.2-.1 0-.3 0-.4.1h-1.1c.3.1.4.2.4.3.1.4-.4 1.1-.3 1.6l-6.4-1.9c-.1.2-.4.4-.6.5-.1 0-.2.1-.2.1-.2.1-.4.1-.6.2h-.3c-.3 0-.6.1-.9.1h-2.5c-.3 0-.6 0-.9.1h-.2c-.2 0-.4.1-.6.2-.1 0-.1.1-.2.1-.2.1-.4.3-.5.5l2.1-.2c-.7.5-.8 1-.7 1.6-2.2.1-4.5.1-6.7.1h-1.2c-1.7 0-3.5 0-5.3-.1-.7 0-1.5-.1-2.2-.1-1.4-.1-2.8-.1-4.3-.2-.8-.1-1.7-.1-2.5-.2-1.3-.1-2.7-.2-4-.4-.9-.1-1.8-.2-2.6-.3-1.3-.2-2.6-.4-4-.6-.9-.1-1.8-.3-2.6-.4-1.3-.2-2.7-.5-4.1-.8-.8-.2-1.7-.4-2.5-.6-1.5-.3-3-.8-4.4-1.2-.7-.2-1.4-.4-2.2-.6-2.2-.7-4.4-1.4-6.6-2.2-.6-.2-1.1-.4-1.7-.6-.2-.1-.3-.1-.5-.1-.4-.1-.9-.2-1.3-.3-.2 0-.4-.1-.6-.1-.5-.1-1-.2-1.5-.2h-.3c-.6-.1-1.2-.1-1.9-.1h-.4c-.5 0-1 0-1.5.1-.2 0-.4 0-.6.1l-1.5.3c-.1 0-.2 0-.3.1-.6.2-1.2.4-1.7.7-.1.1-.3.2-.4.3-.4.2-.8.5-1.2.8-.2.1-.3.2-.5.4-.5.4-.9.8-1.3 1.3 0 .1-.1.1-.2.2-.5.6-.9 1.2-1.3 1.9l-.3.6c-.3.6-.6 1.1-.8 1.8-.1.2-.2.5-.3.7-.3.9-.6 1.8-.8 2.9 1 1.1 2.1 2 3.2 3l.4.4c.9.8 1.7 1.5 2.6 2.3.3.2.5.4.8.7.6.5 1.2 1 1.9 1.6.3.3.7.5 1 .8.6.4 1.1.9 1.7 1.3l1.2.9c.5.4 1.1.8 1.6 1.2.4.3.9.6 1.3.9.5.4 1.1.7 1.6 1.1.5.3.9.6 1.4.9.5.3 1.1.7 1.6 1 .5.3 1 .5 1.4.8.5.3 1.1.6 1.6.9.5.3 1 .5 1.5.8.5.3 1.1.6 1.6.8.5.2 1 .5 1.5.7.5.3 1.1.5 1.6.8l1.5.6c.6.2 1.1.5 1.7.7.5.2 1 .4 1.5.5.6.2 1.1.4 1.7.6.5.2 1 .3 1.6.5.6.2 1.1.3 1.7.5.5.1 1.1.2 1.6.4.6.1 1.1.3 1.7.4.5.1 1.1.2 1.6.3.6.1 1.2.2 1.7.3.5.1 1.1.1 1.6.2.6.1 1.2.1 1.7.1s1.1 0 1.6.1h7.4c.7 0 1.4 0 2 .1h.2c.7 0 1.3.1 1.9.1h.3c.6 0 1.1.1 1.7.1.6.1 1.3.1 1.9.2h.1c.5 0 1 .1 1.5.1h.3c.5 0 1 .1 1.6.1h5.6c.2 0 .4 0 .7-.1.2 0 .5 0 .7-.1.2 0 .5 0 .7-.1.3 0 .5-.1.8-.1.3 0 .5-.1.8-.1.3 0 .6-.1.8-.1.3 0 .6-.1.8-.1.3 0 .6-.1.9-.1.3 0 .6-.1.9-.1.3-.1.6-.1 1-.2.3-.1.6-.1 1-.2.3-.1.7-.1 1.1-.2.3-.1.7-.1 1-.2.4-.1.8-.2 1.1-.2.4-.1.7-.1 1.1-.2l1.2-.3 1.2-.3c.4-.1.9-.2 1.3-.3.4-.1.9-.2 1.3-.3.5-.1.9-.2 1.4-.3l1.5-.3c.5-.1 1-.2 1.5-.4.5-.1 1-.3 1.6-.4.5-.1 1-.3 1.5-.4.6-.2 1.2-.3 1.8-.5.4-.1.9-.2 1.3-.3.7-.2 1.4-.4 2.2-.6 10-1.6 10-2.2 14.4-4.2 13.3-1 26.5-8.6 39.7-12.2 30-4.5 60.2-9.1 88.4-20 1.1 0 2.1-.1 3.1-.7-1.3.4-2 .5-2.6.5.9-.3 1.7-.6 2.6-1 1-.4 1.9-.7 2.9-1.1.5.2 1 .2 1.7.3H257.6c.3 0 .6 0 .9-.1.2 0 .3 0 .5-.1.5-.1 1.1-.2 1.7-.4-.3.1-.6.1-1 .1H258.9h-.1c-.2 0-.4-.1-.5-.1-.1-.1-.2-.1-.2-.2v-.1c0-.1.1-.2.2-.4.1 0 .2-.1.3-.1.6 0 1.2-.1 1.8-.1h1.9c.4.1.8.1 1.1.2.3-.1.6-.2.8-.3.5-.2.8-.3 1-.4.1-.1.2-.1.2-.2s.1-.1.1-.1c.1-.4-1.8-.5-1.6-1.1 0-.1.1-.1.1-.2.1-.1.3-.1.4-.2.1 0 .2 0 .3.1.2.1.4.1.6.1.3 0 .6-.1.9-.3.1 0 .1-.1.2-.1.2-.2.5-.4.7-.7.7-.3 1.5-.5 2.2-.8l.1.4c1.5-.2 2.3-.5 2.8-.8.5-.3.7-.7.7-1l2.4-.9-1 1.4 2.8-1.3-.2 1.7c2.9-2 3.9-2 7.2-2.4-.2-.1-.3-.3-.4-.5-.2-.6.2-1.4 1.3-2.1.7-.2 1.3-.4 2-.7.2.1.2.1.3.2v.1c0 .1 0 .1.1.2v.2s.1.1.2.1.2 0 .3-.1h.1c.1 0 .3-.1.5-.1.1 0 .1 0 .2-.1l.9-.3c-.1.2-.3.5-.4.7 0 .1-.1.1-.2.2-.1.2-.3.3-.4.5-.1.1-.2.1-.3.2-.2.1-.4.2-.6.2-.1 0-.2.1-.3.1-.3 0-.7 0-1.2-.2 0 .5-.6 1.1-.7 1.6h.5c.3 0 .5-.1.8-.1.2 0 .5 0 .7-.1.4-.1.7-.2 1.1-.3.2-.1.4-.1.6-.2.5-.2.9-.4 1.3-.5.6-.2 1.1-.5 1.5-.6-.4.1-.8.1-1.1.2h-.5l5-3.6c.5.1.6.3.5.6-.1.3-.4.6-.7.9.5-.3 1-.6 1.5-1s1-.7 1.9-1.1v1.5c0 .1 0 .2-.1.3 0 .1 0 .1-.1.2 0 .1-.1.2-.1.3 0 .1-.1.1-.1.2-.1.1-.1.2-.2.3l-.2.2c-.1.1-.2.2-.3.2-.1.1-.2.1-.3.2-.1.1-.3.2-.4.3l.1-.1 4.8-2.8c.4.3 2.5.4 2.7.8 0 .1 0 .1-.1.2 3.2-.3 6.6-4.4 10.8-4.8 0 .1-.1.2-.1.3l-1 1.7c1.1-.4 1.3-.6 1.3-.8 0-.2-.3-.5-.3-.8l.2-.3h-.1c.1-.3.5-.6 1.3-1 3.8-.9 7.5-.6 11.4-3.5l3.1 1.1c.6-.3.9-.5.9-.7 0-.5-1.5-.8-1.6-1.5-.1-.3.2-.7 1.2-1.3.2-.1.5-.3.9-.4.5-.2.8-.4 1.2-.5.1 0 .2 0 .3-.1.2 0 .3-.1.5-.1.3 0 .4.1.6.3l.1.1c.1.2.2.3.2.5.1.2.1.4.2.5l.1.1c.1.1.3.3.6.3.1-.2.3-.3.5-.5l.2-.2.2-.2c.2-.2.4-.4.5-.6l.3-.3.5-.5c.1-.1.3-.2.4-.3.2-.1.4-.3.6-.4.2-.1.3-.2.5-.3.2-.1.4-.3.6-.4.2-.1.4-.2.5-.3.2-.1.4-.2.7-.3.2-.1.4-.1.6-.2.2-.1.5-.1.7-.2.2 0 .4 0 .7-.1.3 0 .7-.1 1 0-1.1.8-2.1.9-3.2 1.4h3.2c-.7.7-1.4 1.3-2 1.8-.3.2-.6.4-.8.6-.5.3-.8.6-.9.8-.2.3.2.5 1.4.7-.1-.2-.1-.5 0-.7.4-2.4 6-3.4 8.5-5.1.9-.6 1.5-1.4 1.3-2.4l2.1.1c-.5.2-.5.4-1.1.6H354.3c.1 0 .3-.1.4-.1.1 0 .2-.1.3-.1.1-.1.2-.1.3-.2l.2-.2c.1-.1.1-.2.2-.3 0-.1.1-.1.1-.2.1-.1.1-.2.2-.4 0-.1.1-.2.1-.3.1-.2.1-.3.2-.5.1-.1.1-.3.2-.4 0-.1.1-.2.1-.2.1-.2.3-.4.5-.6 1.3-.4 2.6-.9 4-1.4.6 0 .9.2.8.4 0 .1-.1.2-.3.3l2.9-2c.2-.1.5-.2.7-.3.2 0 .3.1.3.2v.1c0 .1-.1.2-.2.3-.1.1-.3.2-.5.2l.5-.2 4.8-2.1v.1c.1-.1.3-.3.4-.5 1.3-.5 2.6-.9 3.9-1.4-.5.3-1.1.6-1.7.7.5.3.9.5 1.3.7.1 0 .2 0 .3.1.2 0 .4.1.5.1H375.1c.2 0 .3-.1.5-.2.1 0 .1-.1.2-.1.2-.1.3-.2.5-.4s.5-.4.7-.6c0 0 .1-.1.2-.1.2-.2.5-.3.8-.5.1-.1.3-.1.4-.2.3-.1.6-.2 1-.3.2 0 .3-.1.5-.1.6-.1 1.2-.2 2-.2l-2.7 1.5c.4.2.7.3 1.1.4.1 0 .2 0 .3.1.2 0 .5.1.7.1h.4c.3 0 .5 0 .8-.1h.3c.4-.1.8-.1 1.3-.2.3-.1.7-.1 1.1-.2h.4c.3 0 .7-.1 1.1-.1h.7c-.8-.3-4.7-.7-5.4-1.7-.1-.1-.1-.2-.1-.3 0-.2.1-.4.3-.7.1-.1.3-.2.4-.4.8 0 1.7-.2 2.7-.9.3-.2.7-.5 1.1-.8.1.3.3.4.5.5.1 0 .1 0 .2.1.1 0 .1.1.2.1.2 0 .3 0 .5-.1h.1c.3-.1.7-.2 1.1-.4.1-.1.3-.1.4-.2.4-.2.7-.4 1.1-.5l.5 1.8c.3-.2.5-.4.7-.5 1.3-1.1 1-1.9 1.9-3.1.7-.2 1.2-.3 1.7-.3.4 0 .8.1 1.1.2.1 0 .2.1.3.1.2.1.5.2.7.4.1.1.2.1.3.2.2.2.4.4.7.5 1.1-.4 1.3-.6 1.3-.8-.1-.4-1.8-.6-1.8-1.2 0-.2.1-.3.3-.5.2-.2.6-.5 1.2-.8 3.5-.7 5.6-2.3 8.9-4.8.3-.1.6-.3 1-.4h.5c.1 0 .1 0 .1.1 0 0 .1 0 .1.1v.2c0 .1 0 .1-.1.2v.1c0 .1-.1.2-.1.2s0 .1-.1.1V225.8s.1.1.2.1l1.6-2.2h.2c.1 0 .2.1.2.2v.4c.5-.4.6-.8.6-1.1 3.8-1.6 7.6-3.2 11.3-4.8 0 .2-.1.4-.1.6 0 .2 0 .4.2.5 1.4-1.1 2.2-1.8 2.9-2.3 4.4-1.9 8.8-3.7 13.3-5.6l.3.2v-.3c.8-.3 1.6-.7 2.4-1l3.8-.7c.4-.4.7-.9 1.1-1.4 1.7-.7 3.4-1.4 5.1-2.2.1.1.1.2.1.4s-.1.3-.1.4l1.8-1.5c1.7-.7 3.5-1.5 5.2-2.2.5-.1 1-.3 1.6-.3-.1-.1-.1-.2-.2-.3 10.3-4.4 20.5-8.8 30.7-13.2 9.7-4.2 19.5-8.5 29.2-12.9.1 0 0 .1.1.1.3-.1.5-.2.7-.2.6-.2.8-.5 1-.7 3.3-1.5 6.6-3 9.8-4.5l4.6-1.9v-.2c4-1.9 8.1-3.6 12.1-5.5 5-2.3 9.9-5.1 14.7-7.8 9.5-4.6 19-9.3 28.4-14.3 6.8-2.5 40.2-25.6 47.9-25.7-10.8 11.1-25.3 24.3-40.9 38.2v-.1.1c-1 .9-2.1 1.8-3.1 2.8l-.1-.5c-.1 1.2-1.4 1-2.3 1.4-.3.1-.5.3-.6.6.3-.2.5-.4.6-.5.1 0 .1 0 .2-.1.1 0 .2-.1.3-.1.1 0 .1 0 .2.1h.1c.1.1.1.2.2.3-.6.5-1.2 1-1.8 1.6-.2-.1-.5-.1-.7-.1h-.1-.1c-.2 0-.3 0-.5.1-.1 0-.2.1-.3.1-.2.1-.4.3-.6.4-.1.1-.1.1-.2.1h.1c-.1.1-.1.1-.2.1.1-.1.2-.1.3-.2 0 0 .1 0 .1-.1.1 0 .3-.1.4-.1h.1c.1 0 .2 0 .3.1h.2c.1.1.1.2.1.4-.3.1-.6.2-1 .3h-.3c-.3 0-.7.1-.9 0-.5.5-.6.7-.5.8.1.2.7.2 1 .4-1.3 1.2-2.7 2.4-4 3.5l-.3-.6c-.4 1.5-.9 1.6-2.1 2.2l.3.3c-.3.2-.5.4-.8.7-.1-.3-.1-.6-.3-.9-.2 0-.3.1-.4.1-.1 0-.2 0-.3.1-.1.1-.2.2-.4.3l-.2.2c-.1.1-.2.2-.2.3-.2.3-.4.5-.6.7.2-.1.3-.2.5-.2h.1l-.5 1.5c-.3.2-.5.5-.8.7v-.5c-.2.2-.3.6-.4.9l-.4.4c-.1-.2-.2-.3-.3-.5 0 0 0-.1-.1-.1-.1-.1-.1-.2-.2-.4v-.2-.3c0-.1 0-.2.1-.2 0-.1 0-.2.1-.4l-1.1 2.1c-.1 0-.2-.1-.4-.1s-.3 0-.5-.1c-.3 0-.6-.1-.6-.3-1.3.4-1.2 3.2-2.9 3.7 0-.1 0-.1-.1-.2v.2c0 .2 0 .4-.2.7-1.3.8-3 .9-3.6 3l-1.8-.5c-.1.1-.2.3-.2.4 0 .5 1.2.5 1.4 1.1.1.2 0 .6-.3 1.1-.1.2-.2.3-.3.4h-.1c-.1 0-.1.1-.2.1h-.1c-.1 0-.2-.1-.3-.1 0 0-.1 0-.1-.1l-.3-.3-.3-.3s-.1 0-.1-.1c-.1-.1-.2-.1-.3-.1-.1 1.1-.2 3.2-2.2 3.3.2-.5.7-.6.9-1l-1.4.1c.1-1.2.6-1.8.5-2.1 0-.2-.3-.3-.9-.3.2.3.3.6.4.8.2 1.5-2.5 2.4-2.2 3.9 0 .3.1.5.4.8h-1c.2-.1.1-.3.3-.4h-.5c-.1 0-.1.1-.1.1l-.1.1v.4c0 .1 0 .2.1.4 0 .1 0 .2.1.3 0 .1.1.2.1.4v.6c0 .1-.1.2-.1.3 0 .1 0 .1-.1.2-.1.2-.2.3-.5.4-.2.1-.4.1-.6.1h-.1c-.1 0-.2 0-.2-.1 0 0-.1 0-.1-.1-.1-.1-.1-.2-.1-.3l-.7 1.5c-.1.1-.2.1-.2.1-.1 0-.1 0-.2-.1v-.2c0-.1.1-.1.1-.2l-1.6 1.7v-.1c0-.1 0-.2-.1-.3 0 0 0-.1-.1-.1h-.1l.2.4v.5c-.4.3-.8.6-1.3.8.1-.2.3-.4.5-.5-.3-.2-.6-.3-.8-.3h-.2c-.1 0-.2-.1-.2-.1h-.1-.1c-.1 0-.1.1-.1.1v.1c0 .1-.1.2-.1.3 0 .1-.1.3-.1.4v.1c0 .1-.1.2-.2.3l-.1.1c-.1.1-.2.2-.3.2-.1 0-.1.1-.2.1-.2.1-.5.2-.8.2l.7-1.1c-.4-.2-.8-.3-1.1-.3-.3 0-.5.1-.7.1-.2.1-.4.1-.5.2-.1 0-.2.1-.4.1-.3.1-.6.2-1 .2.6.2 3.5.3 3.2 1.6-.2.1-.3.3-.5.4-.1 0-.1.1-.2.1-.3.2-.5.4-.8.6-.1 0-.2-.1-.2-.1-.2 0-.3.1-.5.2l-.1.1-.5.5-.8-1.1c-.1.2-.2.4-.2.6 0 .4.1.7.1 1.1 0 .2.1.4.1.6-.2.2-.5.2-.7.2h-.2c-.2 0-.5-.1-.7-.2-.1 0-.2-.1-.2-.1-.2-.1-.5-.3-.7-.5-.2.1-.3.2-.3.3-.1.2.2.4.6.5.1.1.3.1.4.2.2.1.4.3.3.6 0 .1-.1.3-.3.5-1.5.5-1.9 1.6-2.7 3.4-.2.1-.3 0-.4 0 0 0-.1 0-.1-.1 0 0-.1-.1-.1-.2v-.2-.2c0-.1-.1-.2-.2-.2v1.4c-.1.1-.1 0-.2-.1h-.1c-.1-.1-.1-.2-.2-.2-.1.1-.1.3 0 .4.1.4.4.6.4 1-.6.5-1.1 1-1.7 1.5-.9.1-1.8.3-1.8 1.4-.5-.1-.4-.8-.8-1.1-.2.4-.3.7-.4 1-.3.8-.4 1.1-.5 1.8-.5.5-1.1.9-1.6 1.4h-.2c.1 0 .1 0 .1.1-.5.5-1.1.9-1.6 1.4l-.8-.6.3.5-2.5.8c-.1.6-.1 1.3-.2 1.9-.7.6-1.3 1.1-1.9 1.7.2-.5.5-1.1 1-1.4-.2.1-.3.1-.4.1-.2 0-.3-.1-.4-.2 0 0 0-.1-.1-.1-.1-.1-.1-.2-.1-.3l-1.1 2.6-.4-.4H528.4h-.1c-.1 0-.2 0-.3.1-.2.1-.4.1-.6.2.5.4.7.7.7 1.1 0 .1 0 .2-.1.3-.5.5-1.2 1-1.7 1.5l-.1.1c0-.1-.1-.2-.1-.3 0-.3.2-.7.7-1.1h-.3c-.1 0-.1 0-.2.1-.1 0-.2 0-.2.1l-.2.2-.1.1V218.5c0 .2 0 .4.1.6-.3.2-.7.4-1 .6-1 .5-1.9.8-2.9 1.6-.2.2-.4.4-.6.7-.6.9-1.2 2.1-1.8 2.6-.2.1-.3.3-.5.4-.3-.5-.5-.9-.6-1.1l.2 1.4c-.3.2-.5.5-.8.7l-.8-2c.1.3.1.6.1.8 0 .6-.4.7-.8.9l1 .8c-.3.3-.6.5-.9.8-.1-.3-.3-.5-.3-.8 0-.3 0-.5.1-.8-.5.1-1.2.3-1.6 1.4.1 0 .2.1.4.1.1 0 .1 0 .2.1.2.1.4.3.6.4h.1c-.3.2-.5.4-.8.7h-.2-1.8c.1 0 .2.1.4.2l.1.1c.2.2.3.4.4.7-.2.2-.4.4-.7.6-.2-.2-.4-.4-.5-.6 0-.1 0-.1-.1-.1-.1-.1-.2-.3-.2-.4v1.7l-.1.1c-.1.1-.3.2-.4.4-.4-.4-1.1-.8-1.5-1 .2.1-.1.4-.5.7-.2.2-.4.3-.6.5-.2.2-.4.3-.4.4l1-.1c-.6.4-.8.9-.8 1.5v.6c-.6.5-1.1 1-1.7 1.5-.2-.2-.4-.3-.6-.4-.1 0-.1 0-.2-.1-.1 0-.2-.1-.3-.1-.1 0-.2 0-.3.1 0 .1.1.3.2.6.1.2.2.5.3.8-.5.4-1 .9-1.4 1.3 0-.4 0-.8-.1-1.2v-1H504.6c-.1 0-.2 0-.2-.1h-.1-.1c-.1.1-.3.2-.5.4-.2-.1-.3-.2-.3-.3-.1-.4.3-1 .5-1.2l-2.5 1.5c.3.3.3.5.3.8 0 .6-.4 1.3-.5 1.8 0 .3 0 .5.2.7l1.4-3.2c.4.4.7 1.3.7 2.2v.9c-.6.6-1.2 1.1-1.8 1.7-.5-.7-.8-1.7-1.1-2 0 .1 0 .3-.1.5 0 .1-.1.1-.1.2-.1.1-.1.3-.2.4l-.2.2-.3.3c-.1.1-.1.1-.2.1-.1.1-.2.1-.3.1l.2-1.2c-.1 0-.3.1-.3.2l-.1.1c0 .1-.1.1-.1.2s0 .1-.1.2c0 .1 0 .2-.1.2 0 .1-.1.3-.1.4v.2c0 .1 0 .2-.1.3 0 .1-.1.1-.1.2s-.1.1-.1.2l-.1.1c-.1 0-.1.1-.2.1h-.8-.1c-.2 0-.4 0-.7-.1-.2 0-.5-.1-.6-.1h-.2s0 .1.1.2c.3.1.7.4 1.1.8.4.3.9.8 1.3 1.2-.7.7-1.4 1.3-2.1 2-.2-.7-.4-1.3-1-1.5.1.2.2.4.2.6v.6h-.1c-.1 0-.3-.1-.4-.2-.1-.1-.2-.2-.3-.2h-.1c-.1 0-.2.1-.4.3.1.1.1.3.2.4V245.7s0 .1-.1.1l-.1.1-.1.1-.1.1-.1.1h-.1.9c-.5 1-1.1.5-2 1.3.2.1.4.4.6.8-1.8 1.7-3.6 3.3-5.4 5-.2.2-.4.4-.7.5-.4 0-.8-.1-.9-.5v.7c0 .2-.1.5-.3.7-.9-.1-.6-.4-.4-.7.1-.2.2-.3.2-.5s-.2-.3-.6-.5c.1.2.2.4.1.6-.1.7-.7 1.5-.9 2.3-1.1.7-2.3 1.5-3.4 2.3l-.2-.3-.1.6c-.7.5-1.4 1-2.1 1.7-.5.4-1 1-1.5 1.6-1.5 1.8-2.9 4.2-4.4 5.5-1.1 1-2.2 2-3.3 2.9v-.1l-.1.2-.6.6c0-.1-.1-.2-.3-.3.1.1.1.3.1.4-8.5 7.7-17.2 15.2-26.2 22.3-5.3 4.1-7.7 8.6-7.6 12.9.1 5.4 4.4 10.4 12.1 13.6 4.1-.2 7.7-1.1 11-2.5 1.6-.7 3.2-1.5 4.7-2.3.7-.4 1.5-.9 2.2-1.4 2.1-1.4 4.1-2.9 6.1-4.5 1.3-1.1 2.6-2.1 3.8-3.2 1.9-1.6 3.8-3.1 5.7-4.5.6-.5 1.3-.9 1.9-1.3 1.4-.9 2.8-1.8 4.2-2.6 8.4-4.8 17.1-8.1 25.6-12.8 1.4-.8 2.8-1.6 4.2-2.5 4-2.5 7.9-5.4 11.8-8.4 3.9-3 7.8-6.2 11.8-9.1 1.3-1 2.6-1.9 3.9-2.8 1.3-.9 2.6-1.8 4-2.6 6-3.6 12.1-5.2 18-8.8 4.1-2.5 7.7-7.4 12.1-9.3 7.5-3.4 14.7-7.5 21.8-11.9 4.7-3 9.4-6.1 14-9.3 7-4.8 13.9-9.6 20.9-14.2 3-1.9 6-2.2 8.9-4.1 3.2-2.1 6.3-6.9 9.6-9.9.5-.4.9-.8 1.4-1.2 2.9-2 6.2-4.2 9.1-6.3 3.9-2.8 7.7-4.9 11.7-7.3 1.3-.8 2.6-1.7 4-2.7 2.1-1.5 4.2-3.1 6.4-4.6 4.6-3.3 9.3-6.3 14-9.5 5.8-3.9 12.6-9.4 18.5-12.9 10.3-6.1 23-14.9 33.5-19l12.1-1.4c-3.1 4.9-9.4 13-20 25.4-1.5 1.8-3.1 3.6-4.8 5.6-4.1 4.8-6.6 8.8-9.3 11.2-2.9 2.6-5.7 5.2-8.5 7.9-13.6 12.9-20.9 26.4-34.1 39.7-6.3 6.3-14.3 11.4-20.7 17.6-7.1 6.8-12.7 14.7-20.2 21.1-4.3 3.7-6.4 6.7-10 9.6-2.7 2.1-4.6 3.8-6.2 5.2-2.1 1.9-3.5 3.5-4.7 5.1-2.7 3.6-4.8 7.6-13.1 17.2l-.2.2s-.1.1-.2.1c-.1.1-.3.2-.5.4-.3.3-.6.6-1 .9l-1.3 1.3-.3.3c-.4.4-.9.9-1.3 1.4-.1.2-.3.3-.4.5-.5.5-.9 1-1.5 1.6-1.4 1.5-2.9 3.4-4.5 5.4l-7.6 7.9c-3.8 2.2-17.5 14.4-18.7 17.8-.1.3 6.6.5 6.8.8l-.2.4c.1 0 .3-.1.5-.1.4.2 1.1.4 1.8.5-.2.1-.4.2-.5.5l1.1-.4c-.2.2-.2.4-.3.7-.1.9.9 1.7 1.7 2.6.6.7 1.2 1.4 1.2 2.1.2-.2.4-.4.6-.5h.2c.2 0 .3-.1.5 0 .2 0 .3 0 .5.1.1 0 .3.1.4.1.2.1.5.1.8.2.2.1.4.1.6.2.2.1.4.1.6.2.2 0 .3 0 .5.1.1 0 .3.1.4.1h.1c.2 0 .5-.1.7-.1.1 0 .3 0 .4-.1.4-.2.7-.4 1-.8.2.1.2.2.2.3 0 .2-.3.4-.3.6 0 .1 0 .2.1.3.2-.3.5-.6.8-.8.1 0 .1-.1.2-.1.3-.1.7-.2 1.2-.2h.9l-.2.2c.8-.1 1.4-.2 2.1-.3h.5c.6 0 1.2-.1 1.7-.1h2.1c.4 0 .7 0 1.1.1h3.9l-.5-1c1.1 0 1.4.3 1.9.5.1-.2.2-.3.2-.4v-.1c0-.1-.1-.1-.1-.1h-1.6-.1c-.1 0-.2 0-.3-.1h-.1c-.1 0-.1-.1-.1-.2v-.1c0-.1 0-.3.1-.5.2.3.5.4.9.5.1 0 .3 0 .4.1.3 0 .5.1.8.1h.5c.5 0 1.1-.1 1.7-.1.7-.1 1.3-.1 1.9-.1h.5c.3 0 .7.1.9.1.1 0 .3.1.4.1.4.1.7.3.9.7.4 0 .6-.1.6-.3.1-.2-.3-.6-.2-.8 0-.1.2-.2.6-.3l.5.6.3-.9c.8 0 1.4.4 1.7.8.1.1.2.3.2.4-.1 0-.2.1-.3.1-.2.1-.4.2-.6.2.3.1.6.1.9.1h.7c.3 0 .6-.1.9-.2.1 0 .2-.1.4-.1.3-.1.5-.2.8-.2h.2c.3-.1.5-.1.7-.1h-.1l-1.5-.2h.1c.5-.1 1-.2 1.6-.3h1.8c1 0 2 .1 3 .1 1 .1 1.9.1 2.9.1h.6c.6 0 1.1 0 1.6-.1.2 0 .4 0 .6-.1.7-.1 1.4-.3 2-.6l-.2-1.3c.2-.1.3-.2.5-.3l1.4-.1c.1.2.3.3.6.5.3.1.5.3.6.5 0 .1 0 .3-.3.4 2.2-.9 2.3-1 2.6-1.5l4.3-.2c.5.2 1 .2 1.5.2h.4c.3 0 .5 0 .8-.1.1 0 .2 0 .3-.1l.9-.3 3.3-.2c.1.1.2.1.3.3.1-.1.1-.2.1-.3l4.5-.6s1.3.1 3.6.1H690c5.5 0 10.8-2.6 17.6-2.8 5.3-.2 10.7-.8 16.5-1.7 5.8-.9 11.8-2 18.3-2.9 4.3-.6 8.8-1.2 13.5-1.6l9.3-.9c3.2-.3 6.4-.7 9.6-1 .5-.1.9-.2 1.4-.3 1.9-.5 3.8-1.7 5.7-2.6.5-.2 1-.5 1.4-.7 1-.4 1.9-.7 2.9-.8 5.7-.7 11.6-2.6 17.6-3.5 4.9-.7 5.4-1 5.4-1.3v-.3c.1-.3.7-.8 6-1.7 1.9-.4 5.6-2.5 7.5-2.9 14.5-2.8 43-5.7 60-9.4 1.1-.3 2.2-.5 3.3-.8 11.2-2.8 22.7-6 34.3-9.5 5.7-1.7 11.4-3.5 17.1-5.4 1.3-.4 2.5-.8 3.8-1.3.1 0 .3.1.5.1.1 0 .2 0 .4-.1h.3c.3-.1.6-.1.9-.2.3-.1.7-.2 1-.3h.3c.3 0 .6-.1.9 0l.3.3.6-1.3c-.4.1-.7.2-1.1.3.5-.2.9-.3 1.4-.5.9-.3 1.8-.4 2.7-.6.9-.1 1.8-.2 2.7-.6 2.4-.8 4.6-1.7 6.7-2.5-.1.2-.1.3-.1.5v.1c0 .1.1.2.1.2.1 0 .1 0 .2-.1h.1s0-.1.1-.2v-.1-.2-.4c6.8-2.2 13.4-5.5 22.9-9.4zm-347.3 67.8l-.1-.3c.2-.1.4-.2.5-.2H635.5s0 .1-.2.2c-.1.1-.3.2-.5.3zM528.3 216.3c-.1 0-.1 0 0 0-.1 0-.1 0 0 0 0-.1 0-.1.1-.1l-.1.1zm24.6-23.3c.1-.2.2-.2.3-.3h.2c0 .1 0 .1.1.2-.3.2-.5.4-.8.6 0-.2.1-.3.1-.5h.1zm-171.2 43.3c-.2.1-.3.3-.5.4-.1.1-.2.1-.3.2-.2.1-.3.2-.5.2-.1 0-.2.1-.3.1-.2 0-.4 0-.6-.1.1-.4.2-.7.4-.9.4-.2.8-.3 1.3-.5h1.2l-.1.1c-.1.1-.3.3-.6.5zm223.2-120.7c.2-.1.5-.2.8-.3v.1c-.5.1-.7.2-.9.2-.1 0-.2 0-.2.1 0 0 .1-.1.3-.1zm1.6 1.4c.5 0 .9.1 1.2.3-2.2 1.3-4.3 2.6-6.5 3.8.3-.4.5-.8.8-1.2.8-1.2 1.8-2.2 4.5-2.9zm-71.3 36c.3-.3 1-.6 1.6-.7-.5.2-1.1.4-1.6.7zm121.1-14v.9c-.1-.2-.2-.3-.4-.5l.4-.4zm-48.8 46c.1 0 .3-.1.5-.2.1 0 .1 0 .2-.1.2-.1.4-.3.4-.6-.1.3-.5.5-1 .6.9-.9 1.9-1.8 2.9-2.7-.5 1.2-.9 2.7-2.4 3.5l-.8-.5c.1.1.1 0 .2 0zm9.1-4.9c-.1 0-.2.1-.4.2v-.1c.2 0 .3-.1.4-.1 0 0 .1 0 0 0 .1 0 0 0 0 0zm-1.1-.6c-.3 0-.5-.1-.7-.2-.1 0-.2 0-.2-.1-.2-.2-.3-.3-.4-.6l6.9-6.6c-.2.7-.4 1.3-.9 2-.2.2-.3.4-.4.5l-.1.1c-.1.1-.2.1-.2.1h-.1c-.1 0-.2-.1-.3-.2-.1-.1-.1-.2-.1-.2v.1c-.7.6-1.1 1.1-1.3 1.6-.2.5-.3.9-.3 1.4-.1.4-.1.8-.4 1.2s-.8.6-1.5.9zm18.3-19.3l.4-.4.1.1-.1-.1c.5-.4 1-.9 1.4-1.3.3.4.5.8.6 1.1-.1-.1-1.3.3-2.4.6zm9.4-6.9l-.7-.1-.8 1.6c-.1-.5-.1-1.1-.1-1.9.7-.6 1.4-1.3 2.1-1.9-.1.9-.2 1.7-.5 2.3zm-60 14.6c-.2.2-.5.4-.7.6 0-.2 0-.3.1-.5 0 0 .1 0 .1-.1.2.1.3 0 .5 0zm134 60.1v.4c0 .1 0 .1-.1.2 0 0-.1 0-.1.1-.1 0-.2.1-.3 0-.3-.3-.4-.6-.5-.7-.2-.5.4-.4.9-.5 0 .1.1.3.1.5zm64.6 73.7l1-.4c.1.1.1.2.1.4h-1.1zm38.4-6.2h1.2c0 .1-.1.1-.1.1l-2.1.3c.4-.3.7-.4 1-.4zm23.4-7s-.1 0-.1.1c0 0 .1 0 .1-.1zm-8.9 6.7l-.2-1v1.1c-.8.1-1.5.2-2.3.3-.1-.6-.1-1.1 0-1.6.6-.1 1.2-.2 1.7-.3 1 .4 2.2.8 2.7 1.2-.6.1-1.2.2-1.9.3zm-12.4-.5c-.1.1-.3.2-.4.3h.5c-.2.1-.4.2-.5.4l-.1.1h-.4c.1-.2.3-.4.4-.5h-.4l1.8-1c-.1.4-.5.5-.9.7zm-.6 1.1c0-.1-.1-.1-.1-.1s0-.1-.1-.1h.2c.1 0 0 .1 0 .2zm.1-.3zm-.3-.5l-.1.1-.1-.1h.2zm-.2-.1c-.6 0-1.3 0-1.9-.1.4-.1.9-.2 1.4-.5l.5.6zm-4.3 3.8c-.5.1-1 .1-1.5.2l1.3-2c-.1.4.1 1.1.2 1.8zm65.9-14.2H884.2c-.1 0-.1.1-.2.2-.6.2-1.2.3-1.8.5-.4-.1-.8-.1-1.3-.2.5-.2 1.2-.4 2-.5zm21.9-1.6s-.1 0-.1-.1c0 0-.1 0-.1.1-.5 0-.9.1-1.4.1l.1-.4-.3.4c-2.8.1-5.5.1-8.8.4.2-.1.3-.1.5-.2h.1c.1 0 .2-.1.2-.1h.1v-.1h-.6c1.4-.5 4.9-1.1 8.3-1.6h7.5c-2 .8-3.8 1.4-5.5 1.5zM653.7 142.8c.1.1.2.1.2.1v.1s0 .1-.1.1c-.1-.1-.1-.2-.1-.3zm98.9-89.5c0-.1 0-.1 0 0l.1-.1V53.5l-.4.1c.2-.2.2-.3.3-.3zm-75.4 66s.1 0 0 0h.4l-1.1 1.8c-.1 0-.2-.1-.2-.2 0 0-.1 0-.1-.1-.1-.2-.1-.4-.1-.7v-.2l.7-.7c.1.1.2.1.4.1zm-1.8 1.3l.6-.6v.1c0 .2-.1.3-.1.5-.2.1-.4.1-.5 0zm-190 133.7c.1.1.1.3.2.4-.2.1-.3.3-.5.4.1-.3.2-.6.3-.8zm100.8 83.2c.1 0 .1 0 0 0 .1 0 .1 0 0 0zM866.3 287.5z"/><path class="st0" d="M688.7 65s0 .1 0 0v.5l.1-.1.1-.1.1-.1c.1-.1.2-.2.3-.2.1-.1.1-.1.3-.2.2-.2.4-.4.7-.6l.2-.2h-.4c.2-.1.3-.2.4-.3v-.1c-.1 0-.4.1-.5.2l-.1.1s.1.1.3.1c-.3.2-.7.4-1.4.8-.2.1-.2.1-.1.2zM682 68.2c.1.1.2.2.4.2h.9l1.5-1.8h-.4c-.2 0-.4.1-.6.1-.3.1-.5.1-.7.2h-.2c-.1 0-.1-.1 0-.2-.4.4-.7.6-.9.9 0 .3-.1.5 0 .6zM683.2 70h-.1c-.1 0-.2.1-.3.2l-.1.1c-.1.1-.2.3-.3.6l.8-.9zM683.2 70s.1 0 0 0c.2.1.3.1.4.1.1 0 .1.1.2.1s.1-.1.2-.2c0-.2.1-.4.1-.7 0 .2.1.2.1.2s.1-.1.1-.2.1-.1.1-.2.1-.2.2-.3c.1-.2.2-.4.4-.6l-1.8 1.8zM686.4 67.7c.3-.1.6-.1.9-.2.3-.1.5-.1.6-.1H688.2v.2c0 .1-.1.2-.1.2s0 .1-.1.1c-.1.2-.2.3-.4.6.5-.3.8-.6 1.2-.9l.3-.3c.2-.2.3-.3.4-.5.1-.1.1-.1.1-.2.1-.1.1-.2.1-.3v-.1c0-.1-.1-.1-.2-.1h-.1-.1c-.2 0-.6.1-1 .3-.1 0-.2.1-.3.1-.4.5-1 .8-1.6 1.2zM673.8 74.5c-.3.1-.8.2-1.2.3-.3.1-.6.1-.9.1h-.2c-.2 0-.4-.1-.6-.2.1.5 1.2.6 1.7 1l1.2-1.2zM672.8 76.1c0-.1-.1-.2-.2-.3l-1.7 1.9c1.4-.8 1.9-1.2 1.9-1.6zM682.6 73.5l.6-.4 2.7-3.5zM662.8 79.7l.7-1.6-1.4 2.6zM657.5 83.1c.1-.2.1-.3 0-.4-.1-.6-1.4-.3-1.4-.8 0-.1 0-.2.1-.3-1.4 1-2.3 2.4-3 3.6 1-1 2.3-1.7 4.3-2.1zM667.2 79.8c-.1 0-.2-.1-.3-.1h-.2c-.1 0-.3-.1-.5-.1h-.2-.1c-.3 0-.6.1-1.1.2l1.5.6c.3-.3.6-.5.9-.6z"/><path class="st0" d="M666.4 80.3c-1 .5-1.6.9-1.9 1 .2-.2.8-.5 1.9-1zM669.2 80.3l2.4-1.1c-.2-.2-.6-.3-.6-.7 0-.1 0-.2.2-.4l-2 2.2zM669.2 80.3l-.9.4v.6zM653.4 88.4c1.4-.6 2.8-1.3 4.1-2V86v-.1c0-.1-.1-.2-.2-.2 0 0 0-.1-.1-.1h-.1-.1c-.2 0-.4.1-.7.3-.7 1-1.8 1.7-2.9 2.5zM661 83.4c.1 0 .1 0 0 0h.2v-.2l-.2.2z"/><path class="st0" d="M657.4 86.3c0 .1 0 .2.1.2 0 0 .1 0 .2-.1 1.1-.4 1.5-1 1.9-1.7-.6.6-1.3 1.1-2.2 1.6zM650.4 89.2h-.8c-.1 0-.2.1-.3.1-.1 0-.1 0-.2.1s-.2.1-.2.2c.6-.1 1.3-.2 2-.4h-.5zM659.6 84.7c.5-.4 1-.9 1.4-1.3-.2 0-.4 0-.5-.1l.1-.1H660.3s.1.1.2.1c-.4.5-.6 1-.9 1.4zM646.3 92.7l-.2.3.9-.6c-1.2.4-2.2.4-4 .5-1 1-1.3 1.6-1.3 2v.3l-.2.1.3.1-.1-.2 4.6-2.5z"/><path class="st0" d="M647 92.4c1-.4 2.2-1.1 4.1-2.5-.1.9-.8 2-.9 2.7 0 .4.2.8.9.9 1.7-1.1 1.8-1.6 2-2.2 0-.1.1-.2.1-.4.1-.3.3-.6.6-.9-.1.1-.2.1-.2.2-.2.1-.3.2-.5.3-.1.1-.1.1-.2.1-.1.1-.2.1-.3.2-.1 0-.1.1-.2.1s-.1.1-.2.1h-.1-.1c-.1 0 0-.1 0-.2s.1-.1.1-.2.1-.1.1-.2c.1-.2.1-.3.1-.4 0-.1-.1-.2-.3-.2h-.3-.1c-.2 0-.4.1-.6.2.7-.7 1.5-1.2 2.2-1.7-.9.3-1.7.6-2.5.9h.1l-3.8 3.2zm3.8-2.8c.1-.1.2-.1.2-.2v-.2h.3l-.1.1-.1.1c.1.2.1.3 0 .5-.2.1-.3.1-.4.1h-.1-.1s-.1 0 0-.1c0 0 .1-.1.1-.2.1.1.1 0 .2-.1zm.2-.4zM640.7 95l-.2-1.4-1.2 2.8zM636 97.8l-.4-1.1-1 1.3zM370 240.3c-.1.2-.2.4-.2.5v.1s0 .1.1.1h.1v-.7zM583.3 126.8c2-.3 3.8-.1 3.8-1.2-1.7.3-2.8.8-3.8 1.2zM88.3 290.7H88c-.3 0-.7.1-1.2.1.5-.1 1.3-.1 2.1-.1h-.6zM616.7 108.1c.3 0 .7-.1 1.5-.4-.5.1-1 .2-1.5.4zM616.7 108.1h-.2c-.1 0-.1 0-.1-.1.2-.2.3-.2.4-.3 0 0-.1 0-.1.1h-.1c-.1.1-.2.1-.2.2-.3.2-.7.4-1.4.8.6-.2 1.1-.5 1.7-.7zM626.8 102.5l-.2-.2c-.1 0-.1-.1-.2-.1v-.1-.1-.1c0-.1.1-.1.2-.2l-2 1.5c1-.6 1.5-.6 2.2-.7zM635.9 102c-.1 0-.2.1-.3.2l-.1.1-.3.3-.5.5c.4-.3.9-.6 1.4-.8-.1-.2-.1-.3-.2-.3zM612.4 110.5c0 .1-.1.1-.1.2-.1.2-.2.4-.2.5v.1c-.1.2 0 .3 0 .3h.1l.2-.1c.1 0 .1 0 .2-.1.2-.1.5-.3.9-.7.2 0 .3-.2.3-.3v-.2-.3c0-.1-.1-.3-.1-.4v-.1c0-.1 0-.1.2-.1 0-.2 0-.3-.2-.3-.1 0-.2.1-.3.2l-.1.1-.4.4v.1c-.2.3-.4.5-.5.7zM77.7 289.4l.8-.4-2.2-.7zM72.8 290.6h.8c.2.1.4.1.5.3l-.3-1.9-1.5 1.6h.5zM390 236.5c-.2-.1-.4-.2-.6-.2h-.5c-.3.1-.6.1-1.1.3l2.1.3.1-.4zM358.3 245.3l1 1.4.5-.1zM335.9 257.1h-.8-.1H334.7c-.1 0-.1 0-.1.1 0 0-.1 0-.1.1V257.6c0 .1.1.3.2.5.6-.1 1.1-.4 1.7-.7.5-.3 1-.5 1.6-.7-.3.1-.5.2-.8.3-.5 0-.9 0-1.3.1zM714 231.4c.1.1.1.3.2.3h.1l.1.1h.1l-.5-.4zM701.2 249.7l.6 1.3c.1-.2.2-.3.2-.4 0-.4-.5-.6-.8-.9zM701 249.5l.2.2-.1-.3-.1.1zM761.4 168.5c.2.1.3.2.4.2.2 0 .3-.1.5-.2-.3.1-.6 0-.9 0zM753.3 182.2c0-.1.1-.3.5-.4-.1-.2-.2-.2-.4-.2-.1 0-.2 0-.3.1-.2.1-.3.1-.4.1h-.1c-.1 0-.2-.1-.3-.2v.9c0 .4.2.6 1.3 1.2.4-.2.5-.3.4-.5-.1-.4-.6-.7-.7-1zM721.3 227.6c-.2-.1-.3-.1-.4-.1h-.1c-.2 0-.3.1-.5.3l1.3.1-.3-.3zM711.5 235.6l1.4.9.1-.1zM708.5 244.8c-.1 0-.1 0 0 0-.1.1-.2.1-.3.1h-.7-.1-.1v.1l.1.1.1.1.4.4c.2-.1.3-.4.3-.6l.3-.6c.1.3 0 .3 0 .4zM587 207.5h.2c0-.1.1-.2.1-.4l-.3.4zM587 207.5c-.1 0-.2-.1-.2-.1h-.1v.1c0 .1 0 .2.1.4 0-.1-.1-.1-.1-.1s0 .1-.1.2c0 .1 0 .3-.1.5l.5-1zM585.8 208.8c-.3.1-.5.2-.7.2h-.1c-.1 0-.1 0-.1-.1 0 0-.1 0-.1-.1s0-.3.1-.5c-.3.3-.5.6-.6.8v.1c-.1.2 0 .3 0 .4h.1c.1 0 .2-.1.3-.1.1 0 .1 0 .2-.1.4 0 .6-.3.9-.6zM591.1 204.1l.5-1.1c-.6.5-.7.7-.6.9 0 .1.1.2.1.2l-.3.7c.2-.1.3-.1.5-.2s.4-.1.5-.1c.1 0 .1 0 .2.1h.1c-.1-.2-.7-.3-1-.5zM595.3 201.8l-.1.8.2-1.4zM597.2 199.8c0 .7 1 .2.9.8.5-.6.7-1.3.8-2-.2.5-.7.9-1.7 1.2zM593.4 201.6c.1-.1.1-.1.2-.1.2-.2.5-.4.6-.5l-.2.2-.1.1c-.1 0-.3.1-.5.3l-.3.3c.1 0 .3.1.5.1h.1c.2 0 .4 0 .6-.2l-.9-.2zM592 201.6l-1 .7c.1.1.5.2.4.6l.6-1.3zM592.3 201l-.3.6.4-.2zM598.3 196.9c-.6.3-1.2.8-1.6 1.2 0 .1.1.1.1.2v.1c0 .1.1.1.1.1.1 0 .2-.1.3-.2.3-.6.7-1 1.1-1.4zM602.7 192.7s0 .1.1.1l-1.8 1.5v-.2l-.3.4c.5-.3 1-.3 1.8-.4.2-.4.3-.7.3-.9 0-.2 0-.3-.1-.4l.1-.1h-.1z"/><path class="st0" d="M596.7 198.1c0-.1 0-.1 0 0l-.1-.1s-.1 0-.1.1c-.5.2-.6.6-.6.9.2-.3.5-.6.8-.9zM599.4 196.3c.3 0 1-.1.9-.3l-.9.3zM595.9 199c-.2.3-.3.5-.4.7h.2v.1h0c.1-.3.2-.6.2-.8z"/><path class="st0" d="M600.7 194.5c-.4.2-.8.7-1.6 1.4-.1-.2-.1-.4-.1-.6v-.6c0-.4-.1-.7-.6-.7-.5.5-.6.8-.6 1v.4c0 .1 0 .3-.1.5.2-.2.3-.4.4-.5l.1-.1c.1 0 .1-.1.1-.1v.6l.1.1c.1 0 .2 0 .4-.2-.2.4-.5.7-.8 1 .4-.2.7-.4 1.1-.5h-.1l1.7-1.7zm-1.4 1.8s.1 0 0 0zm0-.1s0 .1.1.1c-.1 0-.2 0-.1-.1-.1.1-.1.1 0 0 0 .1 0 0 0 0-.1-.1-.1-.2-.1-.3.2-.1.2-.1.3-.1v.1c-.1.1-.2.3-.2.3zM603.3 192.8l.3.8.1-1.6zM605 191.1l.4.6.2-.8zM624.8 173.1c-.9.2-1.8.2-1.6.8.7-.2 1.2-.5 1.6-.8zM611.6 185.4c0 .1 0 .1 0 0l.1.1c.1 0 .1-.1.2-.3-.1.1-.2.1-.3.2zM612.3 184.7h.2c.1-.1.2-.2.2-.3l.3-.3c-.3.3-.5.4-.7.6zM608.5 188.2c.1.1.2.1.2.2.1 0 .1.1.1.2 0 0 0 .1-.1.1l.1-.1.6-.8c-.3.3-.6.3-.9.4zM604.8 188c.1.2.2.3.3.3h.2l.1-.1c.1 0 .2-.1.3-.2 0-.1.1-.1.1-.2l.3-.6c-.1-.1-.2-.2-.3-.2-.2 0-.3.1-.5.3 0 0-.1.1-.1.2-.1.2-.3.3-.4.5 0 .1 0 0 0 0zM604.1 188.7c0 .1.1.1.1.1.1 0 .1-.1.2-.2s.1-.3.2-.4c-.2.2-.3.4-.5.5zM613.9 182.8c0-.1 0-.2-.1-.2 0 0-.1 0-.1.1h-.1c-.1.1-.2.2-.3.4-.1 0-.1.1-.1.2 0 0 0 .1.1.1 0 .1.1.1.1.2s.1.1.1.2c0 0 0 .1-.1.1 0 .1.1.2.1.2.1 0 .1-.1.2-.2v-.1c0-.1.1-.2.1-.3v-.1c.1-.3.1-.4.1-.6zM801.3 10.5h-.9l-.1.5zM801.8 9.3l-.2-1.2-.3.3s-.1 0-.1.1c-.1.1-.2.1-.3.1l.9.7zM947 280.4l1.2-.7.1-.4zM940.7 282.2c-.1.1-.3.1-.5.1H939.3h-.1-.1c-.1 0-.2.1-.2.2l1 .3.8-.6zM573.5 174.4l-.2-1.1c-.2.1-.3.3-.3.4-.1.2.3.4.5.7zM515.7 225.5s.1 0 0 0zM494 244.2c-.1 0-.3 0-.5.2.3-.1.6-.1.8 0 0-.2-.1-.2-.3-.2zM481.6 256.6s.1.1 0 0c.1.1.1.1 0 0 .2.1.3 0 .5-.1v-.3-.1c0-.1 0-.2.1-.4v-.3-.1c0-.1 0-.1-.1-.1h-.1-.1c-.1 0-.2.1-.3.2l-.1.1v.4c0 .1 0 .2-.1.3v.1c.2.2.2.3.2.3zM505.6 233c0 .2.1.2.2.2s.2 0 .3-.1c.2 0 .3-.1.4-.1.1 0 .2 0 .2.2.2-.5.4-.8.4-1 0-.2-.2-.5-.8-.9-.4.1-.5.3-.5.4-.1.3.3.6.2.9.1.2 0 .3-.4.4zM549 193.6c.1.1.2.1.3.1h.1c.2 0 .3-.1.5-.2l-1.1-.1.2.2zM560.2 186.7l-1-.8-.2.1zM566.1 178.5s.1 0 0 0h.5c.1 0 .1-.1.1-.1 0-.1-.1-.2-.4-.5-.2.1-.3.3-.5.5-.1.2-.3.4-.5.5l.2-.2c.3-.2.4-.2.6-.2zM859.2 287.1c1.8-.1 3.3.1 3.7-.4-1.5.1-2.7.2-3.7.4zM896.6 280.7c-.7.1-1.2.1-1.4.1.5 0 .9-.1 1.4-.1zM894.9 280.8c.3-.1.4-.1.5-.1h-.1-.1c-.1 0-.2.1-.3.1-.3.1-.8.2-1.5.3l1.8-.3h-.3zM911.1 279.2c-.1-.1-.3-.3-.5-.3h-.2c-.1 0-.2-.1-.3-.1h-.2l1.2.4zM927.8 277.2c0-.1-.1-.1-.2-.1h-.1c-.2 0-.5 0-.8.1h-.2c-.4.1-.8.2-1.3.3h-.2c-.5.1-1.1.3-1.7.4-.6.2-1.3.3-2 .5h-.1c-.6.2-1.3.3-1.9.5-.1 0-.1 0-.2.1-.6.2-1.2.3-1.7.5-.1 0-.1 0-.2.1-.5.1-1 .3-1.3.4h-.1c-.4.1-.7.2-.9.3h.2c.2 0 .5 0 .9-.1h.1c.4-.1.9-.2 1.4-.3h.2c.5-.1 1.1-.3 1.7-.4.1 0 .2-.1.3-.1.6-.2 1.2-.3 1.9-.5.1 0 .2 0 .3-.1.6-.2 1.2-.3 1.8-.5.1 0 .3-.1.4-.1.6-.2 1.1-.3 1.6-.4.1 0 .2-.1.3-.1.3-.1.5-.1.8-.2.7-.2 1.2-.3 1.5-.4l-.5.1zM930 276.6c-.1 0-.3.1-.5.1l-.9.3 1.5-.3c0-.1 0-.1-.1-.1zM889.8 282.2c.1 0 .1 0 0 0h.7c.2-.1.5-.1.8-.2.2 0 .3-.1.4-.1 0 0 0-.1.1-.1 0-.1.1-.1.1-.2s0-.1.1-.2h.1s.1-.1.2 0c.1-.1.1-.1 0-.1h-.2-.1c-.1 0-.2.1-.3.1h-.1c-.1 0-.3.1-.4.2h-.1c-.1 0-.2.1-.3.1 0 0-.1 0-.1.1-.1.1-.2.1-.3.1h-.1c-.1.1-.2.1-.3.2-.1 0-.2.1-.2.1zM900.4 282.4c-1.6.3-3.4.6-3.4.7l2.7-.4c-.1-.1.3-.2.7-.3zM900.4 282.4c.9-.2 1.7-.3 2.1-.5-.5 0-1.4.2-2.1.5zM905.8 281.8l-1.9.3 2.7-.4z"/></g><path class="st0" d="M800.4 97.9l-.1.4 1-.4zM801.6 95.5c-.1.2-.4.6-.7.5l.9.7-.2-1.2z"/></svg>