<svg id="Layer_1" data-name="Layer 1" xmlns="http://www.w3.org/2000/svg" viewBox="0 0 359.67 149.68"><defs><style>.cls-1{fill:#fbaa26}.cls-2{fill:#e15829}</style></defs><title>PolyDeli_logo</title><path class="cls-1" d="M166.98 11.61L160.95 0h30.41v54.41h-3.12V23.22h-27.29l6.03-11.61zM168.24 118.34h-17.3v31.34h17.3v-4.44h-12.57v-10.48h12.2v-4.44h-12.2v-7.53h12.57v-4.45zM215.89 118.34v31.34h13.94v-4.44h-9.21v-26.9h-4.73zM275.45 118.34h4.73v31.34h-4.73z"/><path class="cls-2" d="M135 173.45H73c-.34 0-.83 0-.83.44v8.28c0 .24.19.49.68.49H84v18.13H73.38a1.2 1.2 0 0 0-1 .93v7.6a.62.62 0 0 0 .59.68h47.22c.83 0 1.07-.29 1.07-.92v-7.41c0-.39-.19-.88-1.07-.88h-11.28V196h27.87c3.07 0 21.49-1.56 21.49-11.16 0-5.84-9.7-11.39-23.27-11.39zm-8.53 14h-17.56v-4.77h17.78c1.12 0 3.85.73 3.85 2.48s-3.26 2.27-4.09 2.27zM213.19 173.45h-9.65c-16.13 0-26.95 4.29-31.19 8.33-2.49 2.39-5.12 5.7-5.12 9.41a13.35 13.35 0 0 0 5.55 10.48c5.56 4 13.84 8.33 33.82 8.33h8.82c24.37 0 34.45-10.43 34.45-19.34.01-8.73-14.22-17.21-36.68-17.21zm-4.29 28.07c-7.21 0-12.77-5.07-12.77-10.28 0-4.92 6-9.31 12.23-9.31 8.19 0 13.06 5.8 13.06 10.14s-4.42 9.45-12.52 9.45zM347.68 195.13a1.19 1.19 0 0 0-1.22-1.36h-17.79c-.83 0-1.07 1-1.07 1.46v5.55h-28.21v-18.12h11a.9.9 0 0 0 1-1v-6.92a1.18 1.18 0 0 0-1.31-1.31H264c-.73 0-1.12.34-1.12.83v7.5a.9.9 0 0 0 1 .88h10.77v18.13H264c-1 0-1.27.49-1.27.88V209a1 1 0 0 0 1 1h82.89a1.09 1.09 0 0 0 1.07-1.22zM405.91 182.42v.1l-9.65 7.75-8.38-7.85h7.26c.39 0 .63 0 .63-.54v-8c0-.34-.39-.44-1-.44h-47.58a.91.91 0 0 0-1 .92v7.55c0 .29.34.49.88.49h11l18.42 14.77v3.6H364.1c-.29 0-.68.19-.68.49v8.24c0 .24 0 .49.54.49h50.58c.29 0 .34-.29.34-.58v-8.33c0-.19-.29-.29-.63-.29h-12.53V197l18.37-14.62h11.11c.39 0 .63-.29.63-.78v-7.75c0-.34-.63-.44-1-.44h-32.32c-.49 0-.78.34-.78 1v7.46c0 .29.34.54.88.54z" transform="translate(-72.16 -105.16)"/><path class="cls-1" d="M171 227.54a14 14 0 0 0-5.34-3.1 24 24 0 0 0-7.47-.93h-6.58v31.34h6.5a24.16 24.16 0 0 0 7.37-.87 15.24 15.24 0 0 0 10.37-14.8 15 15 0 0 0-4.85-11.64zm-3.41 19.93a10.71 10.71 0 0 1-3.82 2.25 17.75 17.75 0 0 1-5.3.67h-2.13v-22.44h2.13q6 0 9.15 2.86a10.89 10.89 0 0 1 3.45 8.36 10.71 10.71 0 0 1-3.51 8.3z" transform="translate(-72.16 -105.16)"/></svg>