<svg id="Layer_1" xmlns="http://www.w3.org/2000/svg" xmlns:xlink="http://www.w3.org/1999/xlink" viewBox="0 0 1017.6 403.8"><style>.st0{fill:#1c8153}.st1{fill:#1a945b}.st2{fill:#199358}.st3{fill:#1d8857}.st4{fill:#3b313b}.st5{fill:#2d4c43}.st6{fill:#1b754c}.st7{fill:#6e853b}.st8{fill:#324240}.st9{fill:#225c43}.st10,.st11,.st12,.st13,.st14{clip-path:url(#SVGID_2_);fill:#9c1f5d}.st11,.st12,.st13,.st14{fill:#a32336}.st12,.st13,.st14{fill:#841c50}.st13,.st14{fill:#571032}.st14{fill:#68113b}.st15,.st16,.st17,.st18,.st19{clip-path:url(#SVGID_2_);fill:#620f37}.st16,.st17,.st18,.st19{fill:#6f1440}.st17,.st18,.st19{fill:#801947}.st18,.st19{fill:#741742}.st19{fill:#aa2265}</style><path d="M777.8 188.5c6.4.5 14.6-4.6 15.9-9.9 2-7.9-2.2-17-11.6-15.9-5.6.6-7.8 5-9.4 10-1.1 3.6-2.8 7.2-.5 10.5 1.3 2 3.2 5.1 5.6 5.3M247.5 343.3c-5.7-.1-6.3 2.8-10.2 2.9-23.7 1-94-53.2-167.1-54-2.2 0-4.9 0-7.5.1-.3 0-.6-.3-.5-.6.3-1.8.5-3.6.8-5.4.2-1.2.4-2.5.6-3.8 0-.1.1-.3.2-.3 27.2-20.1 88.7-63.7 89.2-102.3.3-23.1-23.4-29.5-40.5-29.7C61 149.6 6.1 181.1.2 184.5c-.3.2-.3.5-.1.8l4.6 5.4c.1.2.4.2.6.1 4.8-1.9 60.4-24 103.9-23.5 24 .3 25.9 8.4 25.8 14.5-.2 18.3-38.8 55-67.8 82.8-.3.3-.9 0-.9-.4 1-7.6 2-15.1 2.9-22.2.4-3.5.9-7 1.3-10.2.3-3.2.7-6.3 1-9.1 1-9.6 1.7-14.4 2-16.3 0-.3-.2-.5-.5-.6l-13.5-1.5c-.3 0-.5.2-.6.4-.2 1.9-.9 6.7-2 16.3-.3 2.8-.6 5.9-1 9.1-.3 3.2-.8 6.6-1.3 10.1-.9 7-1.9 14.4-2.8 21.9-1 6.9-2.1 13.8-3 20.4 0 .1-.1.2-.1.3-7.5 7.7-12.5 13.5-12.8 16.3 0 .2 0 .3.2.4l3.2 2.9c.1.1.3.2.4.1.7-.1 2.8-.5 5.4-.6.3 0 .6.3.5.6 0 .2-.1.4-.1.6-1.6 9.5-1.9 11.5-2.2 13.4 0 .3.5 1.2.7 1.3l12.3 2.3c.3 0 1.1-.6 1.2-.9.3-1.9.8-4.1 2.4-13.7.1-.8.3-1.7.4-2.6 0-.3.3-.4.5-.4 84 6.6 138.9 64.2 174.3 64.6 12.2.1 22.2-6 22.3-12.5.2-6.5-4.2-11.2-9.9-11.3M722.4 344.4c-5.7-.1-6.3 2.8-10.2 2.9-23.7 1-94-53.2-167.1-54-2.2 0-4.9 0-7.5.1-.3 0-.6-.3-.5-.6.3-1.8.5-3.6.8-5.4.2-1.2.4-2.5.6-3.8 0-.1.1-.3.2-.3 27.2-20.1 88.7-63.7 89.2-102.3.3-23.1-23.4-29.5-40.5-29.7-51.5-.6-106.4 30.9-112.2 34.4-.3.2-.3.5-.1.8l4.6 5.4c.1.2.4.2.6.1 4.8-1.9 60.4-24 103.9-23.5 24 .3 25.9 8.4 25.8 14.5-.2 18.3-38.8 55-67.8 82.8-.4.3-.9 0-.9-.4 1-7.6 2-15.1 2.9-22.2.4-3.5.9-7 1.3-10.2.3-3.2.7-6.3 1-9.1 1-9.6 1.7-14.1 1.9-16 0-.3-.2-.5-.5-.6l-13.5-1.5c-.3 0-.5.2-.6.4-.2 1.9-.9 6.4-2 16-.3 2.8-.6 5.9-1 9.1-.3 3.2-.8 6.6-1.3 10.1-.9 7-1.9 14.4-2.8 21.9-1 6.9-2.1 13.8-3 20.4 0 .1-.1.2-.1.3-7.5 7.7-12.5 13.5-12.8 16.3 0 .2 0 .3.2.4l3.2 2.9c.1.1.3.2.4.1.7-.1 2.8-.5 5.4-.6.3 0 .6.3.5.6 0 .2-.1.4-.1.6-1.6 9.5-1.9 12.7-2.2 14.5 0 .3.1.5.4.6l13.4 2.4c.3 0 .5-.1.6-.4.3-1.9.7-5.1 2.3-14.7.1-.8.3-1.7.4-2.6 0-.3.3-.4.5-.4 84 6.6 138.9 64.2 174.3 64.6 12.2.1 22.2-6 22.3-12.5.1-6.6-4.3-11.4-10-11.4"/><path d="M271.9 131.5c2.3-.3 3.3 20.3 3.4 21.8v.2c.1 13.4-3.5 36.7-9.6 57.7-.1.2-.4.2-.4-.1 1.7-40.4 5.5-79.4 6.6-79.6m-91.5 82.3c4.4-.1 5.9 14.9 3.9 20.2-2.7 7.3-12.6 16.9-19.1 21.9-.1.1.2-2.1.2-2.2 1.1-17.1 6.3-39.8 15-39.9m104.8-62.5c-.4-32.5-15.9-31-15.9-31-20.7.3-20 59.6-19.3 114.4.1 6.1.3 8.3.5 13.6-7.1 16.4-14.8 32.9-19.6 32.9-6.1.1-10.4-11.3-10.5-21.8-.3-27.8 11.2-38.1 16.2-38.1 2 0 2.2-2.6 2.3-3.3l1.6-8.2c.4-1.9.6-3.1-3.1-3-.2 0-.4.1-.6.1-11.3.2-26.7 15.1-31.7 47.4-9.3 17.7-15.2 32.3-25.2 32.4-8.3.1-12.2-5.7-13.7-17.1 0-.1 0-.1.1-.2 20.7-16.6 32.7-23.3 32.5-38.4-.2-17.7-11.6-24-18-23.9-22.2.3-33.9 32.2-33.6 52.2 0 2.8.1 3.7.7 6.8 0 .1 0 .1-.1.2-7.4 4.3-10.6 6.1-18.4 8.9-.6.2-.9 1-.5 1.5 2.5 3.6 3.5 6.6 4.9 7.5.5.3 1.2.4 1.8.2 6.5-2.4 10.2-3.9 15.8-7.3.1 0 .2 0 .3.1 4.2 8.8 13.1 19.1 26.6 18.9 14.4-.2 19.4-10.8 26.8-23.1.1-.1 0-.1 0 0 4.9 16.1 14.5 22.9 24.2 22.8 13-.2 18.2-17.8 22.3-27.1 1.1-2.5-1.5 2.5 0 0 2.9 38.8 9.8 51.7 14.6 52.3 2.1.2 8.2-2.1 9.9-3.2 3.9-2.4.6-2.6-.3-4.1-6.3-10.6-11.1-35.5-11-71.3 12.3-29.2 20.7-63.5 20.4-91.1M752.6 132.2c1.1 2.8 3 10 2.9 16.5-.1 19.2-4.5 42.2-10.6 63.6 1.4-43.7 5-78 7.7-80.1m13 13.5s-.8-26.5-12.7-26.5c-21.6-.1-21.1 14.9-21.4 124.8v7.1c-7.5 17.9-14.8 29.8-18.7 29.8-6.7 0-9.4-12.8-9.4-19.5 0-6.7 5.9-43.1 20.8-43.1 0 0 2-9 .3-10.7-.6-.6-2.3-.9-4.9-.9-14.2 0-30.8 19.5-33.1 50-3.1 10.8-5.3 19.2-8.8 19.2-3.3 0-1.5-34.4-1.1-40.3 0-.6-.2-1.3-.6-1.7-.8-1-2.5-2.5-5.1-2.5-2.5 0-5.8 1.8-5.8 4.5 0 2.1-.2 4.8-.4 7.9-3.9 14.6-12.9 40.5-26.8 40.5-6.4 0-4.8-21.1-4.8-21.1 0-13.4 12.6-45.6 26-45.6 4.7 0 5.8 3.3 6 4.3 0 .2.2.3.3.3l6.1-.3c.2 0 .3-.2.3-.3-.1-8.4-5-14.9-17.3-14.9-19.2-.1-40.6 32.5-40.7 56.8 0 0 1.7 32.6 21.5 32.6 12.6 0 22.2-11.7 28.9-24.8 1.1 9.4 4.4 16.7 12.6 16.7 4.3 0 7.4-6.5 10.3-15.8 2.9 14.6 13.2 24.1 25.6 24.1 5.8 0 9.7-3.5 12.4-8.3 2.8-5.1 5-10.3 6.9-16.1.5 8.6 1.1 17.1 2.7 25.6 1.1 5.9 2.5 12.1 5.6 17.2 2.3 3.8 5.3 6.3 9.7 6.8 2 .2 6.7-4.2 8.6-6.5.6-.8-.3-1.5-.8-1.7-5.8-2.5-13.7-19.7-13.6-65.3v-7.2c10.4-27.8 21.3-64.1 21.4-95.1M891.1 141.7c.8 0 1.3 4.7 1.4 14.8.1 9.8-3.9 27.5-8.9 37.2-.2.3-.7.2-.7-.2.2-35.1 6.1-51.8 8.2-51.8m-51.8 127.7c.3 7.7-4.2 20.2-11.5 20.3-2.3 0-4.7-4.1-3.5-11.5 1.1-7.2 9.4-18.9 11.3-21.2.1-.2.4-.2.6 0 .8 1.5 2.8 6.2 3.1 12.4m-51.5 15.5c-.4.2-.7.4-1.1.6-.2 0 .5-.3 1.1-.6m222.7-7.5c-.5-.3-1.1-.1-1.4.4-4.1 7.1-29.2 31.1-49.8 31.4-20.2.3-36.1-10.8-36.5-43.8-.3-24.9 6.5-46.6 6.4-53.3-.1-5.6-9.8-5.6-9.8-5.6-16.1.2-32.5 35.3-36.1 43.7-.2.3-.7.2-.7-.1.2-7.1 1.1-23.7 1.3-39.4v-1.4c8.8-13.9 15.1-36.5 16.1-51.6 0 0 1.3-25.3-15.3-25.1-11.6.1-17.1 1.3-17.8 80.4 0 .1 0 .2-.1.2-9.3 9.9-17.4 18.3-26 27.9-.1.2-.4.2-.5 0-9.9-12.4-22.5-21.3-22.7-31.6 0 0-.1-1.6-1.4-1.6-2.3 0-8.9-.2-11.2 0-.4 0-.8.4-.8.8v1.9c0 3.3.7 4.9 1.8 7.8v.2c-2.3 17.7-8.4 57.3-17.2 65.7-.1.1-.2.1-.3.1-2.2-.2-6.8-4.1-7.1-25.4-.2-18.8 4.7-40.6 5.5-48.1.1-1.3-.9-2.5-2.2-2.5l-11.2-.3c-1.2 0-2.3.9-2.4 2.1-.7 8.7-6.2 39.7-6.1 48.4.1 10 1.4 39 20.9 38.8 5.7-.1 12-9 12.9-10.5 7.9-13.1 12.9-35.7 15.7-53.6 0-.3.4-.4.6-.2 5.8 5.6 10.5 11.4 16.1 18.8.1.1.1.3 0 .4-9.5 12.1-16.6 17.2-18.3 29.8-1.2 9 6.4 14.8 12.6 14.7 18.3-.2 29-11.1 28.7-28.8-.1-8.4-7.2-19.3-8.6-20.9-.1-.1-.1-.3 0-.4 7.6-8.2 12.5-13 20.8-20.9.2-.2.6-.1.6.2 0 17.9.1 43.2.5 68.5 0 .3 0 .6.2.8 1.6 1.5 11 1.1 13.9.8.5-.1.9-.4 1-1 2.5-20.7 19.3-67.9 28.6-69.4.2 0 .4.2.4.4-1.7 23.7-2.9 22.9-2.7 41.7.4 33.3 19.5 51.6 51.2 51.2 27.4-.3 54-26.9 57.4-35.2.2-.4 0-.9-.4-1.2l-6.6-5.2z"/><path class="st0" d="M412.3 63z"/><path class="st1" d="M412.3 63v0"/><path class="st2" d="M373.1 67.8c-.3-.2-.6-.3-.9-.5.2.2.6.4.9.5"/><path class="st3" d="M335.2 126.7v-1 1"/><path class="st4" d="M407.9 195.4c0-.1-.1-.2-.1-.3 0 0 .1 0 .1-.1.1.2.1.3 0 .4"/><path class="st5" d="M371.5 198.2l-.1-.3c0 .1 0 .2.1.3"/><path class="st0" d="M404.1 107.9l-.9 3.3.9-3.3M406.7 94c-.1.1-.2.3-.3.4.1-.2.2-.3.3-.4"/><path class="st6" d="M406.1 112.5c-.1-.1-.1-.2-.1-.3 0 .1.1.2.1.3"/><path class="st7" d="M346.3 74.8c.6.1 1.1-.1 1.7-.3-.6.2-1.2.3-1.7.3M379 99.4c.1-1.7-.4-3.3-1.8-4.6-.4-.4-.5-1.2-.3-1.8.3-1.2 1-2.3 1.3-3.5 1.5-5.9.8-11.5-2.1-17-.7-1.3-1.2-2.7-1.7-4-.3.2-.6.5-1 .7-.3-.2-.6-.3-.9-.5.6-1.4 1.1-2.9 1.8-4.3.5-1 .2-1.9-.7-2.3-.7-.2-1.9.1-2.6.5-1 .6-1.8 1.6-3.1 2.7.4-.8.6-1.2.7-1.6 1-3 2.1-6 2.9-9.1.4-1.5-1-2.2-2.6-1.4-1.4.7-2.8 1.4-4.5 2.2.2-.9.4-1.6.6-2.4.2-.8.2-1.7.3-2.5.3-1.7-.7-3-2.8-3.2h-1.8c0-.6.1-1.1 0-1.5-.4-3-.6-6.1-1.2-9.1-.3-1.7-1.6-3.2-3.5-4.1-1.7-.9-3.5-1-5.5-.2.1-.8.1-1.4.2-1.9.4-4.1.3-8.1-1.7-11.9-1.1-2.2-2.4-2.9-5-2.7-.7-1.8-1.5-3.6-2.2-5.5-1.9-5.2-5.6-8.7-12.1-9.9-3.4-.6-4.9-.4-6.2 2.4-1.1 2.3-1.7 4.8-2.2 7.3-.5 2.2-.7 4.4-1 6.7-.8-.3-1.4-.5-1.9-.7-1.4-.4-2.7 0-2.9 1.3-.3 1.6-.7 3.3-.4 4.8.7 2.8 1.7 5.5 2.9 8.2.7 1.5 2.1 2.8 1.2 4.6-.1.2.1.6.1.9.3 3.1 1.7 5.8 4.2 8.2-4.8 2.6-5.8 6.4-5.1 10.7.7 4.2 2.9 8 5.6 11.5-.2.2-.3.5-.6.6-1.7.7-2.6 1.9-2 3.5.3.9.9 1.7 1.5 2.4 1.1 1.2 2.4 2.2 3.6 3.3-1.1 0-2 0-3 .1-.5.1-1 .5-1.5.8.3.4.6.9 1.1 1.2.7.4 1.6.5 2.4.8.6.2 1.1.5 1.8.8-.9.7-1.6 1.1-2.2 1.6-1.7 1.3-1.7 2.5 0 3.9.5.4 1.1.9 1.7 1 2.2.3 2.9 1.8 3.7 3.3.3.5.5 1 .9 1.4 1.4 1.5 2.5 3 .8 4.8v.1c0 .4-.2.9 0 1.1 1.5 1.4 1.3 2.8 0 4.2 0 .1 0 .1.1.2.2.4.5.7.7 1.1 1.5 1.7 3.2 3.3 4.4 5.1 2.6 4 6.5 6.9 10.3 9.9.4.3.7.9.7 1.4-.1 3 .2 5.9 3.4 7.8 2.5 1.5 5.3 2.8 7.8 4.3 1.6 1 3.2 2.1 4.5 3.4 2 2 1.7 4.5 2.1 6.9 2.6-.3 4.1 1.4 5.9 2.5.5.3 1.1.6 1.6 1-.8-4.3-1.4-8.6-2.3-12.8-.3-1.6.2-2.8 1.1-4.1.7-2.3 1.1-4.8 2.2-6.9 2.2-4.4 3.9-8.8 5-13.4.9-3.2.5-5.7-.7-8.3M414.2 63.4z"/><path class="st8" d="M398.2 201.1c-.5 4.4-1 8.7-1.5 13.1-.2-1.1-.5-2.1-.7-3.2-.2-1.1-.1-2.3-.1-3.5.8-2.2 1.5-4.3 2.3-6.4m11.1-5.6c-.6.7-1.2 1.4-1.9 2-.1.1-.2.1-.2.2.1-.6.2-1.2.2-1.8-.6.6-1.2 1.3-1.9 1.9-.3-.3-.5-.7-.7-1.2-.3-1.1-.4-2.3-.8-3.3-.2-.6-.8-1.2-1.3-1.7-.4.4-.8.8-1.1 1.3-.3-.3-.6-.7-.8-1-.6.7-1.3 1.3-1.8 2.1-.3.4-.2 1-.3 1.5l-.3 3c-.2.6-.5 1.2-.8 1.7-.3.6-1 1.4-1.5 1.4h-.1c.7-2 1.4-4.1 2.2-6.1-.4.5-.8.9-1.1 1.4-.6 1.2-.9 2.5-1.5 3.6-.1.2-.2.3-.3.5-.3-.3-.5-.6-.7-.9-.3-.6-.5-1.3-.4-2 .5-3.5-2-6.1-2.9-9.2 0-.2-.3-.2-1-.6-.3.7-.5 1.3-.7 1.9-.1-.3-.3-.7-.4-1-.1-.2-.3-.2-1-.6-.6 1.7-1.2 3.2-1.8 4.7-.4 1-.7 2.5-1.5 3-2.4 1.6-2.6 4.2-3 6.4-.4 2.1-.6 4.1-1.4 6.1-.2.4-.3.7-.6.9h-.1c-1-.4-1.5-.3-1.9.5-.1 0-.1 0-.2-.1-1-.4-1.5-.2-2 .5-.3-.3-.6-.6-.8-.9-.5.4-1 .7-1.5 1.1-.2-.2-.4-.5-.6-.7-1.4 1-2.6 1.9-3.9 2.7.9 2.5 1.8 5.1 2.6 7.6.4 2.9.8 5.8 1.2 8.8 3.1-.5 6.3-1 9.4-1.3 2.3-.2 4.7-.1 7.1-.1 3.1 0 6.2.1 9.3.1.7 0 1.4.1 2 .2 1.1.3 1.9.4 2.2-.4 1.3.3 2.8.8 2.5-1.2-.1-.5-.1-1.7.1-2.2 1.6-9.8 2.8-19.3 4-28.8"/><path class="st9" d="M370.2 194.3c-1-1.6-1.9-3.1-2.9-4.7-3.9-6.3-7.9-12.6-10-19.6.3-.9.5-1.8.8-2.7.5-1.7 1.1-3.4 1.5-5.2.2-1 0-1.8-1.3-2.3-1-.4-1.6-1.2-1.8-2.3-.4-2.3-1-4.5-1.5-6.8-.3 0-.5.1-.8.1-.9-2.1-1.7-4.3-2.7-6.4-1-2.3-2.4-2.5-4.5-.9-.3-1.2-.5-2.3-.8-3.5-.4-1.2-.7-2.4-1.4-3.5-.6-1-1.4-2-2.4-2.6-.9-.5-2.2-.3-3.5-.4-.1-.6-.2-3.3-.3-4.1 0-.3-.1-.4 0-2.8-.4 0-.5-1.6-.9-3.2-.8-3.2-2.4-4.9-6.9-4.8 0-1.4.2-2.3.1-3.6 0-.4-.7-.9-1.1-.9-.5 0-1.3.4-1.6.8-.6.7-.9 1.7-1.3 2.3-1-1.3-1.7-2.8-2.9-3.9-1.3-1.3-3.5-1.5-5.4-1.1-.3-1.5-1.3-2.9-1.2-4.2-2.8-3.2-4.6-5.3-8.2-4.2-.6-2.5-1.1-5.1-1.9-7.6-.2-.7-.9-1.8-1.6-1.8-.8-.1-1.8.6-2.5 1.1-.6.4-.8 1-1 1.3-2.1-1.9-4-3.9-6.2-5.6-3.7-2.9-10.9-1.7-12.5 2.1-1.6 4-1.7 8.2 1.3 11.9 1.5 1.8 3.6 3.2 5.3 4.8-.1 0-.2 0-.3.1-.8.5-1.5 1-2.3 1.5.6.6 1.1 1.2 1.8 1.8 1.5 1.2 4.1 1.3 4.4 3.6 1.8 3.9 5 6.6 9.6 8.1-1.1.5-2.1 1-3 1.5-.2.2-.5.4-.7.6-1.4 1.5-.9 2.9 1.4 3.2 1.3.2 2.6 0 3.9 0 .8 0 1.6-.1 2.3-.1-1.9 8.3 2.6 13.5 10.3 16.8-.6 1-1.5 2-1.6 2.9-.1 1.3 1.4 1.9 2.8 2.3 1 .2 2 .3 3 .5h.4c-2.9 2-2.9 4.9.2 6.8 1.3.8 2.9 1.2 4.3 1.8-.9 1.4-.6 2.8.9 3.9 1.5 1.2 3.3 2.1 4.9 3.2 3.1 2.2 6.8 3.2 10.5 4 3.1.7 6.2 1.3 7.6 4.3.5.9 1.2 1.8 1.8 2.7 1.4 2.9 2.8 5.9 4.4 8.7 2.1 3.8 4.4 7.6 6.6 11.4.3-.8.8-1.5 1.1-2.3.4.6.7 1.2 1.1 1.9.5-1.2 1.3-2.4 1.6-3.6.1-.4.3-.7.5-.9.1 0 .3 0 .4-.1l-.1-.1c.7-.3 1.6-.1 2.3-.2"/><path class="st1" d="M414.2 63.4v0"/><path class="st2" d="M375.2 68.2c-.3-.2-.6-.3-.9-.5.3.2.6.3.9.5"/><path class="st4" d="M409.3 195c0-.1-.1-.2-.1-.3 0 0 .1 0 .1-.1.1.2.1.3 0 .4"/><path class="st5" d="M373.6 197.7c0-.1-.1-.2-.1-.3 0 .1.1.2.1.3"/><path class="st9" d="M372 179.3c.5.3 1 .6 1.7 1v-.5.5c-.7-.4-1.2-.7-1.7-1m7.6-4c-.3.1-.7.1-.9.2.2 0 .5-.1.9-.2m34.6-9.3c-.4-.9-1.6-1.1-2.6-.5-.6-.3-1.5-.2-2.2.4-.6.6-1.3 1.1-1.8 1.8-.5.6-.9 1-1.2 1.3-.3-.1-.7-.2-1.2-.4 0 .3 0 .5-.1.8-.4-.1-1-.3-1.9-.6-.2 2.6-.5 5.2-.7 7.8-.7 1.2-1.3 2.4-2 3.6-1.5 3.4-2.9 6.9-4.4 10.3-.4 1-.9 1.9-1.4 2.9-.1-1.8-.2-3.6-.4-5.3-.1-3.7-.3-7.3-.4-11-.7-.4-1.4-.7-2-1.1-.4-11-.8-22-1.2-33.1 0-.5-.1-1-.1-1.5 4.4-1.5 4.1-2.5 4.5-6.3.1-.5.4-1.2.9-1.5 1.6-1.4 3.6-2.5 5-4.1 1-1.1 1.7-2.5 2-3.9.5-2.3-1.5-3.5-4-2.5-.6.2-1.2.5-1.6.7 1.8-3.8 3.8-7.7 5.7-11.7l.9-3.3c.7-2.7.3-4-1.8-5.2 1.4-2.8 2.7-5.6 4.1-8.3.1-.1.2-.3.3-.4l.7-.6c0-.8-.1-1.4-.1-2.3-.1-4.3-.7-7.6.6-11.5.3-.9 1.2-1.5 1.8-2.3-1.3-2.9-4.3-4-7.2-3.7 1.5-3 3.3-6.1 4.6-9.3.5-1.2.5-2.7 0-3.9-.5-1.1-1.8-1.9-2.8-2.9 2.6-1.6 5.1-3.5 6.4-6.4 1.3-2.9.6-4.9-2.5-6.5 2.3-2 4.4-4 4.9-6.9.3-1.7-.3-2.5-2.4-2.6-.1 0-.2 0-.4-.1.1-.1.1-.2.2-.3 1-2.8 2.2-5.5 2.9-8.4.5-2.2.1-4.5-1.6-6.4-1.4-1.6-3.4-1.9-5.1-1.9-.9-2.2-1.7-4.2-2.7-6.2-.3-.6-1.3-1.4-1.9-1.4-.8.1-1.7.8-2.1 1.4-.7 1-1 2.3-1.5 3.5-.9-.4-1.7-.9-2.5-1.3-1.2-.7-2.3-.8-3.5 0-2.4 1.4-3.5 3.4-3.6 5.8-.1 1.5.4 3.1.6 4.8-.6.1-1.2.2-1.8.2-4.1-.1-5.9 1.4-5.5 4.9.2 2.1.8 4.2 1.2 6.3-2.9.7-4.1 2.3-3.5 5 .2 1 .6 2 1.2 2.8.7.9.6 1.6-.1 2.5-2.1 2.7-4.4 5.4-3.9 8.9.3 2.2 1.2 4.4 1.8 6.5-2.5.4-4.2 2.2-4.7 5.2.6 1.4 1 2.8 1.7 4.1 2.9 5.5 3.6 11.2 2.1 17.1-.3 1.2-1 2.3-1.4 3.5-.2.6-.1 1.4.3 1.8 1.4 1.4 2 2.9 1.8 4.6 1.2 2.6 1.6 5.1.9 8-1.2 4.7-2.9 9.1-5.1 13.5-1.1 2.2-1.5 4.6-2.3 7 1.7 2 3.4 3.9 5 5.9.3.4.5.9.5 1.4-.2 1.6.6 2.9 2.2 3.6.9.4 1.1.8 1.1 1.6.2 13.2.6 26.5.2 39.7-.2-1.5-.3-3-.5-4.6h-.2.2c-.1-1.5-.2-2.9-.4-4.4-1.4-8.4-2.9-16.9-4.4-25.3-.1-.3-.2-.7-.3-1-.5-.3-1.1-.6-1.6-1-1.8-1.1-3.2-2.9-5.9-2.5 0 .1-.7-.2-.7-.1-.6-.2-.6.1-1.5.2v.9c1.2 7 2.4 14 3.5 21.1.8 5.4 1.5 10.7 2.3 16.1.1 1.5.2 2.9.3 4.4.4 4.4.7 8.8 1.1 13.2v.1c0 .2 0 .4.1.6.1.7.1 1 .3 2l-.1-.2c-1.3-3.2-3.4-5-4.9-7.7-.8.2-1.8.1-2.5.6-1.1.1-2.3-.3-2.7 1.3-.3 1.3-.8 2.5-1.4 3.7.7 1.3 1.2 2.6 1.9 3.9 1.1 2.2 2.3 4.5 3.3 6.8.7 1.8 1.5 3.6 2.2 5.4.6-.4 1.3-.8 1.9-1.1.1.2.2.4.3.7.7-.4 1.5-.9 2.2-1.4l.3.3c.7.5 1.5.7 2-.1.1-.1.1-.2.2-.3.7.5 1.4.6 1.9-.2 0 0 0-.1.1-.1.9.3 1.6.1 2.2-.4 1.2.4 2-.1 2.6-1.1.9-1.7 1-3.4 1.4-5.2.4-1.9.5-4.1 2.9-5.5.8-.4 1-1.7 1.4-2.6.3-.7.7-1.5 1-2.3 1.1 2.3 3 4.4 2.6 7.2-.1.5.1 1.2.4 1.7.3.5 1 1.2 1.5 1.2.4 0 .9-.4 1.2-.8.3.2.5.4.8.4.4 0 1.1-.7 1.4-1.2.6-1 1-2.1 1.5-3.1.3-.5.7-.8 1.1-1.2.1 0 .3 0 .4.1.1-.4 0-.9.3-1.3.2-.2.4-.4.5-.6.2.2.4.5.5.7.4.9.4 1.9.8 2.9.4 1.1 1.3 1.7 2.6.8.1 0 .1-.1.2-.1.4.3 1 .2 1.8-.3.7-.5.8-1.1 1.4-1.7.1-.2.1-.4.1-.6 0-.1-.1-.1-.1-.2 0 0 .1 0 .1-.1.9-7.4 1.9-15 4-22.2.6-2.1 1.4-4.1 1.8-6.2.4-1 .2-2.1-.3-3.2"/><path class="st0" d="M408.6 94.2c-.1.1-.2.3-.3.4.1-.1.2-.3.3-.4"/><path class="st6" d="M408.1 112.6c-.1-.1-.1-.2-.1-.3 0 .1 0 .2.1.3"/><defs><path id="SVGID_1_" d="M387.6 226.1c-45.7 3.1-81.2 29-79.3 58 1.3 19.4 23.6 35 51.9 42.3l15.2 4.8s2.9.7 4.1 2.2c0 0 1.8 2.7 1.1 6.3-.7 3.6 2.9 9.7 4.5 11.9 1.6 2.2 9.6 11.9 9.6 11.9s-92.4 15.7-92.7 25.8c-.3 10.1-2.7 14.6-2.7 14.6s109.3-18.4 110.4-30.1c0 0 .8-5.9-1.1-11.5-1.9-5.6-2.2-12.9-.3-18 1.9-5.1 5.9-9.4 12.6-12.2 25.7-10.9 34.4-18.1 34.5-18.1 0 0-.2 0-.5.1 15.6-11.2 24.1-26.7 23-42.7-1.8-26.6-37.9-44.9-79.2-45.4-3.6-.3-7.3-.2-11.1.1"/></defs><clipPath id="SVGID_2_"><use xlink:href="#SVGID_1_" overflow="visible"/></clipPath><path class="st10" d="M436 323.6c14.6-5.5 26.7-16.1 27-16.4.3-.3 15.3-13.9 15.5-34.7 0 0 .3-12.2-5.7-20.2s-27.8-22.8-51.8-24c-24-1.2-27.2-.3-29.4-.3-1.3 0-39.3-.7-59.3 14.1 0 0-6.9 3.3-17.5 18.8 0 0-11.6 17.6-1.1 37.9 0 0 14.1 17.1 42.2 25.9 0 0 18.5 4.3 22.8 6.3 0 0 2.7 1.3 2.4 6.5 0 0-1.9 7.3 9.9 19.4 11.8 12.1.2.2.2.2s9.1 10.4 9.6 17.3c0 0-96.8 19.9-101.1 28.4 0 0 109.6-18.2 110.5-29.6.9-11.4-1.4-9.8-2.6-20 0 0-1.8-14.3 10.1-20.7"/><path class="st11" d="M326.8 246.2s-18 13.1-17.7 35.9c0 0-3.3 16.4 18.7 29l15.7 8.5 113.1-7.5s18.9-10.2 21.7-36.8c0 0 2.3-20.8-12.9-30 0 0-10.5-9.3-25.2-12.9-14.8-3.6-107.2 9-107.2 9l-6.2 4.8z"/><path class="st12" d="M458.4 311c-1.4 1-3.1 2.1-4.6 3.1-.1 0-1.4.2-1.6.2-.4 0-.8-.1-1.2 0-7.5 1.2-15.1 2.5-22.6 3.5l-49.5 6.9c-4.8.7-9.6 1.2-14.4 1.8v.2l4.4 1c-5-1.3-10.1-2.3-15-3.8-3.6-1.1-6.9-2.8-10.4-4.2.6-.1 1.2-.3 1.8-.3 12.2-.8 24.4-1.7 36.6-2.5 9.8-.7 19.6-1.4 29.3-2.1 14.1-1 28.2-2.1 42.3-3.1 1.1-.1 2.2-.2 3.2-.3"/><path class="st13" d="M413.5 329.3h.1s0-.1-.1-.1-.1.1-.2.1c.1-.1.1-.1.2 0"/><path class="st14" d="M340 318.1c.9-.2 1.8-.4 2.7-.4 11.1-.7 22.1-1.3 33.2-2.1 15.5-1 31-2.1 46.5-3.2 9.9-.7 19.7-1.5 29.5-2.3 1.8-.1 3.6-.5 5.5-.7.9-.1 3.6-.8 4.2-.6-.7.5-2.6 2-3.3 2.5-1.1.1-3.4.3-4.5.4-14.1 1-28.2 2.1-42.3 3.1-9.8.7-19.6 1.4-29.3 2.1-12.2.8-24.4 1.7-36.6 2.5-.6 0-1.2.2-1.8.3-1.4-.6-2.6-1.1-3.8-1.6"/><path class="st15" d="M368.4 327.7l-3.8-1v-.2l14.4-1.8c16.5-2.3 33-4.5 49.4-6.9 7.6-1.1 15.1-2.4 22.6-3.5.4-.1 2.8-.5 3.2-.4l-3.1 2c-.7 0-3.7.6-4.4.7l-70.5 10.2c-2.2.3-4.6 1-6.7 1.4-.3-.1-.3-.1-.7-.2"/><path class="st15" d="M452.3 314.3c.1 0 .2-.1.4-.1-.2 0-.3 0-.4.1"/><path class="st10" d="M470.1 297.8c.1-.1.2-.3.4-.4-.2.1-.3.3-.4.4"/><path class="st12" d="M433.9 231c-1.6.3-3.2.8-4.9.9-5.4.5-10.8.8-16.2 1.2-3.2.2-6.4.2-9.6.6-2.3.3-4.6 1-6.9 1.6-2.7.7-5.4 1.7-8.1 2.1-4.9.7-9.9 1.1-14.9 1.6-.4 0-.9.2-1.3.3-1.6-.1-3.3-.2-4.9-.3-9.3.7-18.4-.2-27.6-1.4-1.1.6-2.3 1.2-3.4 1.8 5.5 1.5 11.2 2.1 16.9 2.3 6.6-.3 13.2-.5 19.8-.8 10.1-1.3 20.2-2.5 30.3-3.8 1.9-.2 3.7-.6 5.6-.9 2.3-.2 4.6-.5 6.9-.7 3.7-.7 7.5-1.4 11.2-2.1 3.1-.6 6.1-1.1 9.2-1.7-.8-.3-1.4-.5-2.1-.7"/><path class="st14" d="M396.4 235.3c-2.7.7-5.4 1.7-8.1 2.1-4.9.7-9.9 1.1-14.9 1.6-.4 0-.9.2-1.3.3-1.6-.1-3.3-.2-4.9-.3.2-.4.5-.7.8-1.2-.7 0-1.3-.1-1.9-.1v-.3c1.1-.1 2.1-.2 3.2-.3 7.8-.8 15.6-1.7 23.4-2.4 1.1-.3 2.4.3 3.7.6"/><path class="st16" d="M404.1 230.5c-2 1.8-4.5 1.8-6.9 2l-15 1.5c-.3 0-.6 0-1-.3 7.7-1 15.3-2.1 22.9-3.2M380.3 234.2c-.3 0-.6.1-.9.1v-.3c.3 0 .6-.1 1-.1-.1.1-.1.2-.1.3"/><path class="st17" d="M354 233.3c.2 0 .3.1.5.1v.1c-.2 0-.4-.1-.5-.1-.1 0 0 0 0-.1"/><path class="st16" d="M392.8 311c-.4 0-.7.1-1.1.1.4-.1.7-.1 1.1-.1"/><path class="st11" d="M408 295.1c-.1 0-.3.1 0 0-.3 0-.2 0 0 0zM408 295.1c.1-.1.3-.1.4-.2v.2h-.4z"/><path class="st18" d="M413.5 329.3s-.1 0-.1-.1c0 0 .1-.1.2-.1 0 0 0 .1.1.1-.2 0-.2 0-.2.1"/><path class="st13" d="M415.4 328l.1-.1s0-.1-.1-.1c0 0-.1.1-.2.1.1.1.1.1.2.1"/><path class="st15" d="M328.5 245.1c0-.1.1-.1 0 0zM328.9 244.8c.1 0 .1 0 0 0z"/><path class="st15" d="M444.2 233.4c-.5-.2-1.8-.7-2.3-.9-.4 0-1 0-1.4.1-5.2 1.3-7.1 2-12.3 3.3.1.1-2.6.7-2.5.8-.5.1-1 .2-1.5.4-5.1 1-10.1 2.2-15.2 2.9-9.3 1.3-18.6 2.5-28 3.2-9.8.7-19.7.8-29.5 1.1-2.9.1-5.7.1-8.6.2-3-.1-5.9-.3-8.9-.4-1.5 0-2.5-.9-4-.8-.1 0-.8.8-1 .8-.1.1-.5.4-.6.5-.1.2-.5.3-.6.5.5.1 1.6.5 2 .5l12.5.3c3.3 0 6.5.1 9.8.1 3.6 0 7.2.1 10.8.1 2.9-.2 5.8-.3 8.7-.6 10.4-1 20.9-2 31.3-3.1 2.8-.3 5.6-.8 8.4-1.2.2-.1.4-.2.6-.2 4.1-.9 8.2-1.8 12.2-2.8 5.6-1.3 11.3-2.7 17.1-4.1.2-.1.5-.2.8-.4-.1 0 .5-.1.4-.1.4-.1.2-.1.6-.2.4.2 1 .2 1.2 0"/><path class="st13" d="M436 322.8l.1-.3.2.2c-.1.1-.2.1-.3.1"/><path class="st15" d="M454 313.1c.1 0 .2 0 .4-.1-.2.1-.3.1-.4.1"/><path class="st19" d="M340.6 285c-.5 0-.9.1-1.4.1.4-1.1.9-.8 1.4-.1M338.1 285.1c-.4 0-.7.1-1.1.1.4 0 .7 0 1.1-.1"/><path class="st15" d="M348.2 310.2c-5.4-.5-10.9-.5-16.4-.7-1.6 0-4.6.2-6.2.3.5.4 1.7 1 2.3 1.4.6.1 1.9-.1 2.5-.1 4.7.1 9.3.1 14 .3 2.6.1 5.3.7 7.9.8 7.6.3 15.2.5 22.8.5 4.8 0 9.6-.3 14.5-.4.1-.4.2-.9.3-1.3-1.8.1-3.6.2-5.4.2-12.1-.1-24.2.1-36.3-1"/><path class="st15" d="M471.4 295.3c-3.3 1.3-6.7 2.7-10 4-.5.2-1 .5-1.6.6-6.1 1.3-12.2 2.7-18.3 3.9-5.3 1.1-10.6 1.9-16 2.9-3.1.5-6.1 1-9.2 1.5l-9.3.9c-4.6.5-9.1 1.1-13.7 1.6-.4 0-.7.1-1.1.1-.8 0-1.6-.1-2.4-.1-.1.4-.2.9-.3 1.3 2.9-.1 5.9 0 8.8-.3 6.3-.6 12.7-1.4 19-2.3 4.1-.5 8.2-1.2 12.3-1.8 3-.5 6-.9 9-1.5 5.4-1.1 10.8-2.3 16.2-3.5 4.6-1.6 9.1-3.1 13.7-4.7.6-.2 1.6-.3 2.2-.5l.1-.1c.2-.3 0-.1.2-.3.4-.7.9-1.6 1.4-2.4-.3.5-.7.6-1 .7"/><path class="st14" d="M432 288.7c.7-.1 1.4-.2 2-.3 8.1-1.9 16.1-3.9 24.2-5.9.3-.1.7-.1 1-.2 6.2-1.7 12.6-3.5 18.8-5.3 0-.5.2-1.3.2-1.8 0 .1-.6.1-.7.1-.8.1-1.6.3-2.4.6-.3.1-.7.2-1 .3-.6.2-1.3.4-1.9.6-.8.2-1.6.5-2.3.7-3.9 1-7.8 1.9-11.7 2.8-5.8 1.4-11.6 2.9-17.3 4.3-2.8.7-5.7 1.4-8.5 2.1-4.8 1.2-9.5 2.3-14.3 3.4l-11.4 2.7c-4.2 1-8.5 2.1-12.8 2.9-10.8 2.1-21.7 3.3-32.6 3.9-.3.1-.7.1-1 .2-10.8.7-21.7 1.4-32.5 2.2l-2.7.3c-1.1.1-8.1.8-7.4 1.1 1.3 1.3 2.7 2.4 4 3.5 2.2-.2 4.5-.5 6.7-.7 8.6-.8 17.1-1.5 25.7-2.3 2-.2 4.1-.4 6.1-.5 4.6-.6 9.1-1.1 13.7-1.7 7.5-1 15.1-1.9 22.6-2.9.8-.1 1.6-.1 2.4-.2 5.1-.7 10.1-1.4 15.2-2.1 2.7-.4 5.3-.9 8-1.3 8.7-1.3 17.4-2.7 26.1-4 6.1-1.1 12.3-2.1 18.4-3.2.7-.1 1.5-.2 2.2-.3 2.1-.4 4.8-.8 6.9-1.1.1-.6.4-1 .5-1.6-.1 0 .1-.3.2-.7l.2-.7c-.5 0-2 .3-2.5.4-6.6 1.1-13.1 2.2-19.7 3.4-10.3 1.8-20.6 3.5-30.9 5.3-4.4.5-8.7 1.1-13.1 1.7 5.9-1.5 11.8-2.9 17.7-4.4.8-.2 1.5-.5 2.3-.8"/><path class="st17" d="M478 265.9c-.3 0-1.8.3-2.1.3-7.3 1.6-14.6 3.5-22 4.9-7.9 1.4-15.9 2.2-23.9 3.3h-1.5c-8.5.9-16.9 1.7-25.4 2.7-14.4 1.6-28.8 3.3-43.2 4.8-6.2.6-12.4 1.1-18.5 1.7-.5 0-.9.1-1.4.1-.4 0-.7.1-1.1.1-.4 0-.7.1-1.1.1-2.5.2-5 .4-7.5.5-.5.1-1.1.2-1.6.3-1.4.1-2.9.3-4.3.4-1.4.1-2.9.1-4.3.4-1.6.3-2.5.2-4 .5-.7.1-1.7.1-2.4.3-.9.3-1.8.2-2.5.4-.9.3-.8.3-1.8.4.1.6.1 1.2.2 1.8 2.1-.2 4.2-.4 6.3-.7h1.3c3.7-.2 7.3-.4 11-.6 3.8-.4 7.6-.8 11.3-1.1 7-.7 13.9-1.3 20.9-2h1.2c3.4-.4 6.8-.8 10.3-1.3 1.5-.2 2.9-.3 4.4-.5 10.2-1.1 20.3-2.3 30.5-3.4 6.5-.7 13.1-1.4 19.7-2.1.6-.1 1.1-.2 1.7-.4 0-.2.5 0 .5-.2 1-.3 1.8-.2 1.8-.2.6-.1 1-.1 1.6-.2 4.4-.5 6.9-1.1 11.3-1.8 6.6-1 13.2-2.1 19.8-3.2 4.7-1.1 10.7-2.3 15.5-3.4-.5-.6-.7-1.3-.7-1.9"/><path class="st18" d="M419.1 271.7c0-.2 0-.3-.1-.5 0 .2 0 .4.1.5m58.3-8.8c-.2-.5-.3-1.5-.5-2-3.9 1.1-7.5 2.1-11.4 3.2-.3.1-.5.2-.8.2-5.2 1.2-10.5 2.6-15.8 3.5-6.4 1-12.9 1.6-19.3 2.3-3.5.4-7.1.6-10.6.9-2.6.1-5.3.2-7.9.4-14.1 1.4-28.2 2.3-42.3 1.7-1.4-.1-2.9-.2-4.3-.4-2.9-.1-5.7 0-8.5-.2-6.4-.6-12.8-1.1-19.1-2-5.4-.7-9.6-1.4-15-2.3-1.1-.2-4.9-1.1-5.4-1.3-.7-.1-3.1-1.9-3.9-2-.5 1.2-1.2 3.3-1.5 4.2-.3.8 3.1 1 6.7 1.3.8.3 1.7.3 2.5.4 2.8.5 5.6 1 8.5 1.5.6 0 1.2.1 1.8.1l1.7.3c.7.1 1.4.1 2.1.2.8.1 1.6.3 2.4.4l14.2 1.6c1.3.1 2.6.1 3.9.2h1.6c7.9.2 15.8.8 23.6.5 9.8-.3 19.6-1.2 29.3-1.8 2.6-.2 5.3-.6 7.9-.8.9 0 1.7-.1 2.6-.1 8.3-.7 16.7-1.1 25-2.2 6.3-.9 12.4-2.7 18.6-4 0-.2-.1-.3-.1-.5 0 .2.1.3.1.5.6-.1 1.1-.2 1.7-.4l11.1-3"/><path class="st19" d="M340.4 284.2c-.4 0-.7.1-1.1.1.4-.1.8-.1 1.1-.1"/><path class="st17" d="M471.7 250.7c-.3-.4-1.4-1.4-1.6-1.8-5.5 1-14 2.9-19.5 3.9l-5.4.6c-12.9 1.4-25.8 2.9-38.7 4.3-6.8.7-13.7 1.1-20.6 1.7l-2.5.2c-.5.1-1 .3-1.5.3-8.2.6-16.5 1.1-24.7 1.7-9.2.7-18.4 1.3-27.6 2-1.2.1-2.5 0-3.7 0-2.2-.1-4.5.3-6.6-.3-.9-.2-1.7-.2-2.5-.6-.5-.2-1-.5-1.5-.7-.3-.1-.8-.3-1.1-.3-.1.4-1.2 2.3-1.3 2.7 3.6-.2 13.5 1.5 17.1 1.3 13-.9 26-1.8 39-2.8l12.6-.9c4.9-.5 9.8-.9 14.7-1.4 12.4-1.2 24.9-2.5 37.3-3.7 3.6-.4 7.1-.8 10.7-1.2.7-.2 1.4-.3 2.1-.5 1.7-.2 3.4-.4 5-.7 2.7-.5 5.5-1 8.2-1.5 2.7-.5 5.4-1 8.1-1.6.8-.2 1.7-.3 2.5-.5.3 0 .9-.1 1.5-.2M450.7 236c-.2-.4-2.9-.8-3-1.2-4 1.4-20.4 5.4-24.3 6-3.4.5-6.9 1.1-10.3 1.7-3.9.8-7.8 1.6-11.8 2.3-10.7 1.9-21.4 3.7-32 5.5-3.1.5-6.3.8-9.4 1.2-.3.1-.5.3-.8.3-8.7 1-17.5 2.1-26.2 3.1-1.9.2-3.9.5-5.8.7 0 .1-1.6 0-1.7 0-.6 0-1.2 0-1.8.1-1 0-2 .1-3 .1s-2-.1-3 0c-.3.5-1 1.5-1.4 2 2.3-.2 5.9 0 8.2-.2.6 0 1.3.1 1.9 0 7.8-.8 15.7-1.6 23.5-2.4.5-.1 1-.3 1.5-.3 12.9-2 25.8-4 38.7-6.1 6.5-1.1 13.1-2.3 19.6-3.4 3.4-.6 6.9-1.1 10.3-1.7 3.8-.7 7.5-1.4 11.3-2.2.8-.2 1.7-.4 2.5-.6 0-.1 5.9-1.6 5.8-1.7.7-.1 10.5-3 11.2-3.2"/><path class="st12" d="M435.7 230.3c-1.6.3-3.2.8-4.9.9-5.4.5-10.7.8-16.1 1.2-3.2.2-6.4.2-9.6.6-2.3.3-4.5 1-6.8 1.5-2.7.7-5.3 1.7-8.1 2.1-4.9.7-9.9 1.1-14.8 1.6-.4 0-.9.2-1.3.3-1.6-.1-3.3-.2-4.9-.3-9.2.7-18.3-.2-27.4-1.4-1.1.6-2.3 1.2-3.4 1.8 5.5 1.5 11.1 2 16.8 2.2 6.6-.3 13.1-.5 19.7-.8 10-1.2 20.1-2.5 30.1-3.7 1.9-.2 3.7-.6 5.6-.9 2.3-.2 4.6-.5 6.8-.7l11.1-2.1c3-.6 6.1-1.1 9.1-1.7-.6-.2-1.3-.4-1.9-.6"/><path class="st14" d="M395.9 235.2c-2.7.7-5.3 1.7-8.1 2.1-4.9.7-9.9 1.1-14.8 1.6-.5 0-.9.2-1.3.3-1.6-.1-3.3-.2-4.9-.3.2-.3.5-.7.8-1.2-.7 0-1.3-.1-1.9-.1 0-.1 0-.2-.1-.3 1.1-.1 2.1-.2 3.2-.3 7.8-.8 15.5-1.7 23.2-2.4 1.3-.2 2.6.4 3.9.6"/><path class="st16" d="M406.1 229.8c-2 1.8-4.4 1.8-6.8 2-5 .5-9.9 1-14.9 1.5-.3 0-.6 0-1-.3 7.5-1 15.1-2.1 22.7-3.2M382.4 233.5c-.3 0-.6.1-.9.1v-.3c.3 0 .6-.1.9-.1v.3M394.8 309.8c-.4 0-.7.1-1.1.1.4 0 .8 0 1.1-.1"/><path class="st18" d="M415.4 328s-.1 0-.1-.1c.1 0 .1-.1.2-.1 0 0 0 .1.1.1l-.2.1zM439.8 231.8c-.7-.2-1.4-.7-2.1-.9-3 .6-6.1 1.1-9.1 1.7l-11.1 2.1c-2.3.2-4.6.5-6.8.7-1.9.3-3.7.7-5.6.9-10 1.3-20.1 2.5-30.1 3.7-6.5.3-13.1.5-19.7.8-5.6-.2-11.3-.7-16.8-2.2-.5.3-.9.7-1.4 1-.3-.1-.7-.2-1-.3-.5.3-.9.7-1.4 1 5.9 1.8 11.9 2.5 18 2.5 8.9.5 17.7-.2 26.6-1.2 10.5-1.2 21-2.8 31.4-4.2 1.8-.3 3.6-.7 5.4-1.1 0-.1-.1-.2-.1-.3 0 .1.1.2.1.3.6 0 1.2 0 1.7-.1 4.7-.8 9.3-1.6 14-2.5 2.1-.4 4.1-1.1 6.2-1.6-.1 0 .4 0 .3-.1.6-.1.8 0 1.5-.2"/><path class="st12" d="M375.9 329.8s2.9.7 4.1 2.2c0 0 1.8 2.7 1.1 6.3-.7 3.6 2.9 9.7 4.5 11.9 1.6 2.2 9.6 11.9 9.6 11.9s-92.4 15.7-92.7 25.8c-.3 10.1-2.7 14.6-2.7 14.6s109.3-18.4 110.4-30.1c0 0 .8-5.9-1.1-11.5-1.9-5.6-2.2-12.9-.3-18 1.9-5.1 6-9.3 12.6-12.2 6.6-2.9 21.7-10 21.9-10.1.1-.1-71 8.2-71 8.2l3.6 1z"/><path class="st13" d="M381 336.1v.6c0 .4-.1.9-.1 1.4 4.9.4 9.9.7 15.2 1.2-1.1.2-1.7.3-2.4.4-4.2.6-8.3 1.2-12.4 1.7.1.6.3 1.1.4 1.7.2 0 .5-.1.7-.1 7.5-1 15.1-2.1 22.6-3.1 1.4-.2 4.1-.2 5.5-.4.6-1.1 1.7-2.4 2.6-3.3-4.7.2-11.2.7-15.9.7-5.5 0-7.3-.3-16.2-.8M427.1 325c-8.2 1.4-16.4 2.8-24.6 4.3-7.4 1.3-14.7 2.7-22 4.1.2.6.3 1.2.4 1.8v.1c2-.3 4-.7 6-.9 10.5-1.1 22.3-2 32.8-3 .8-.5.9-.5 1.8-.9s3.5-1.5 4-1.8c-2.8.2-8.7.5-11.4.7l-.1-.4 12.3-2.1c1-.4 2-.5 3-.8.1 0 3.2-.6 3.4-.7 1.4-.5 2.2-1.1 3.6-1.7-2.3.3-7 .9-9.2 1.3M392.9 359.3c4.9-1.4 9.9-2.8 14.9-4.2v-.1l-.3-2.4c-5.3 1.6-10.8 3.3-16.1 4.9.2.3.5.6.7.9.2.3.4.5.6.8M408 356.5c-4.1 1.7-8.3 3.5-12.5 5.3l-.6.3c.4.5.7 1 1 1.5 3.6-1.5 7.3-3.2 10.9-4.7.4-.2 1-.4 1.4-.6.1-.6-.1-1.2-.2-1.8M385.2 349.9c.4.6.9 1.2 1.3 1.8 7-1.6 14.3-3.4 21.3-5 .1-.7.3-1.4.4-2-7.6 1.7-15.3 3.4-22.9 5.1M400.1 371.7c3.3-.6 6.9-1.1 10.2-1.7 0-.7.1-1.5 0-2.2-3.5.6-7.4 1.4-10.9 2 .3.6.5 1.2.7 1.9M400.6 374.3c.1.7.2 1.5.3 2.3h1.2c2.5.1 4.9.2 7.3.3.1-.7.5-1.5.5-2.2-3.1-.1-6.3-.3-9.3-.4M309.9 388.3c.4-.8 99-10.1 99.3-10.8-2.8 0-5.5-.1-8.3-.1.1.7-98.5 10.2-98.5 10.8 2.4 0 4.9 0 7.3.1M439 322.4c-1.2.1-2.5.1-4 .2-14.6 1.5-29.2 3.2-43.8 4.8-4.5.5-9.1 1.1-13.6 1.7-.4.1-1.6.5-2 .7-1.6-.4-2.9-1-4.5-1.3 6.7-.9 13.9-2 20.6-2.7 16.5-1.9 33-3.7 49.6-5.6.6-.1 2-.3 2.7-.2-1.4.6-3.6 1.7-5 2.4M435.9 230.4c-.2-.1-.4-.2-.6-.2h.1c-.1 0-.2 0-.3-.1-4.3-1.4-9-1.6-13.5-1.9-7.1-.5-14.2-1.3-21.4-1.6-6.8-.3-13.6 0-20.3.7-5.9.6-11.7 1.6-17.4 3-6.7 1.3-13.1 3.4-19.5 5.8-.5.2-1 .4-1.4.6h.3c-.8.3-1.5.6-2.3.9 9.1 1.2 18.3 2.1 27.6 1.4.2-.3.4-.5.6-.8.4 0 .8 0 1.2-.1.2-.3.5-.7.8-1.1 7.6-.8 15.2-1.6 22.8-2.3 1.2-.1 2.5.5 3.8.7 2.3-.5 4.5-1.3 6.8-1.6 3.2-.4 6.4-.4 9.6-.6 5.4-.4 10.8-.7 16.2-1.2 1.6-.1 3.3-.6 4.9-.9 1.3-.4 2-.7 2-.7"/><path class="st7" d="M534.7 142.9c-.1-.8-1.2-1.6-2-2.3-.5-.4-1.3-.4-1.9-.6l-3.3-.6c-.2-.1-.4-.1-.6-.2 1.3-.5 2.7-1.1 4-1.7 2.2-1.1 3.4-2.5 3.4-4.9 0-4.5-4.5-6.9-8.6-6.9-2.3 0-4.6.4-6.8.7-1.3.2-2.5.5-3.8.7-.5-3.3-2.7-4.4-6.5-4.1-3.4.3-6.8 1.5-10.1 2.3-.5.1-1 .3-1.7.6.3-.7.4-1 .5-1.3.5-1.1.6-2.1-.6-2.9-1.3-.9-2.6-.8-3.8.1-1 .7-2 1.5-2.9 2.2-3.6-3.2-8.9-3.7-13.7-1.3-5.8 2.9-10.6 7-15.5 10.9-.2.1-.3.2-.5.3-.1-.1-.2-.1-.3-.2-.9-1.5-2.3-2.2-4.2-1.7-1.5.4-2.9.9-4.3 1.5-5.5 2.5-9.5 6.5-13.1 10.7-1.5 1.6-2.9 3.3-4.4 4.9-.6.7-1.2 1.3-1.8 2 0 .1-.1.1-.1.2-2.8 1.1-5.5 2.4-8.1 3.8-3.2 1.7-6.4 3.3-9.9 5.1 1-7.2 1.8-14.3 2.9-21.3.7-4.7 1.8-9.3 2.7-14 .2-.7.1-1.5.3-2.2.3-.3 8.9-9.5 12-14.7.6-.9 1.2-1.9 1.7-2.9 1.8-3.2 2.5-5.1.9-6.4-.1-.2-.3-.3-.4-.5-.1-.3 1-1.1 1.2-1.3 1-1.2 2.2-2.3 3.1-3.5.6-.8 1.1-1.9.5-2.7-.7-1.1-2.3-1.1-3.5-1.6.3-.2.6-.5.8-.7 5.7-5.6 11-11.5 13.5-18.8.6-1.6.2-2.4-1.7-3.2.6-.9 1.1-1.8 1.9-2.6 1.8-1.8 3.9-3.5 5.6-5.4 3.1-3.7 3.6-7 .4-10.4v-.3l.3.3c1.7-1.4 3.6-2.7 4.9-4.4.3-.4.7-.9.6-1.4-.1-.5-.5-.9-1-1.2-.5-.2-1.1-.3-1.7-.4.4.1 3.2-7.4 3.4-8.1 1.2-3.2 2.1-6.4 2.6-9.7.2-1.4.3-2.8.1-4.1-.6-3.5-2.8-4.6-6.6-3.3-1.1.4-2.1 1-3.3 1.6.4-1.2.8-2.1 1.1-3.1.3-1.1.6-2.1.6-3.2.1-3.1-2.1-4.4-5.5-3.1-3.9 1.4-6.6 3.9-8.8 6.9-2.3 3.3-4.5 6.6-6.7 9.9-.1-1.1-.1-2.3-.4-3.4-.1-.5-.5-1.1-.9-1.3-.4-.1-1.1.2-1.6.5-2.6 1.6-3.2 4-3.5 6.5-.3 2.3-.2 4.7-.3 6.7-1.3.7-2.6 1.2-3.5 2-3.1 2.8-5 6.1-6.2 9.8-1.1 3.4-1.7 6.8-2.6 10.2-1.9-.9-2.8-.7-3.7 1.4-1.1 2.5-1.4 5.2-1.1 7.9.2-.1.3-.3.5-.4-.1.1-.3.3-.5.4v1.6c.4 3.2.9 6.4 1.3 9.6.2 1.1.4 2.2.7 3.6-1.8-1.2-3.3-1.8-5-.9-.5.8-1.3 1.5-1.6 2.4-1.3 3.8-1.9 7.8-.9 11.7l.1 2.5c.5 2 1 4 1.4 6.1 0 .2-.2.6-.4.8-2.8 1.6-3.3 4.1-3.1 6.7.1 1.3.6 2.6 1 3.9.1.3.2.7.3 1 0 .1.1.2.1.3.1.2.2.3.2.5l.1.1c.7 1.6 1.6 3.6 2.1 4.1.9.8 1.5 4.5 1.8 5.9.1 1.7-.1 3.4-.4 5.1-2.2 13.1-4.6 26.2-6.9 39.3v.7c2.5 1 2.5.9 4.4-1.1l1.8-1.8c1-.8 2.4-.7 2.9.3s.6 2.2.9 3.3c.1-.1.4 4 .5 3.9 2.2-3.1 4.9-10.3 8.7-12.3 4.5-2.3 9.3-4.6 14.1-6.7 1.9 0 3.7.3 5.5.9 3.1 1 6.1 2.2 9.3 3 5.1 1.2 10.4 2.2 15.5 3.3 1.8.6 3.6 1.3 5.5 1.6 1.9.3 3.9.5 5.7.3 3.1-.5 3.9-2 2.7-4.5.8.2 1.5.5 2.2.6.8.2 1.6.3 2.3.5.8.1 1.6.2 2.4.2 1 0 2.5.6 2.7-.7.1-.5-1.1-1.2-1.7-1.8 2.5-.3 5.2-.6 7.8-1 4.8-.3 9.1-1.7 12.5-4.7.2-.4.5-.8.6-1h9.1c1.4 0 2.3-.7 2.7-1.6.3-.6-.2-1.5-.4-2.3 1.6-.2 3.7-.3 5.6-.7 2.3-.5 4.6-1.1 6.8-2 .9-.5 1.7-1.8 1.6-2.5"/></svg>