<svg id="Layer_1" xmlns="http://www.w3.org/2000/svg" viewBox="0 0 976.3 976.3"><style>.st0{fill:none}.st1{fill:#fff}.st2{fill:#007042}</style><g id="Master_Logo_2_x2F_2011_2_"><path class="st0" d="M164.5 479.5l4.5 74.9-11.2.7-3.5-58.5h-.2l-8.1 59.2-6.2.4-15.1-57.8h-.2l3.5 58.5-11.2.7-4.5-74.9 16.9-1 11.8 43.2h.2l6.5-44.3 16.8-1.1zM188.3 553.2l-12.5.7 9.3-75.7 16-1 18.3 74.1-12.5.7-3.3-16.5-14.1.8-1.2 16.9zm2.5-28l10.4-.6-7-31.9h-.2l-3.2 32.5zM247 493.1c-.9-6.4-4.4-8.1-7.3-7.9-4.2.3-6.3 3.1-6 7.8.8 12.8 27.3 17.3 28.5 37.7.7 12.3-7.2 19.7-19.2 20.4-11.9.7-19.4-8.4-20.6-19.6l12.1-2.5c1 7.5 4.2 11.1 8.4 10.8 4.5-.3 7.3-2.8 7.1-7.3-.9-14.8-27.3-17.2-28.6-38.7-.7-11.9 6.1-19.1 18.8-19.9 10.5-.6 17.2 6.6 18.9 17.1l-12.1 2.1zM276.6 484l-12.5.7-.7-11.2 37.8-2.3.7 11.2-12.5.7 3.8 63.7-12.9.8-3.7-63.6zM313.3 545.7l-4.5-74.9 34.5-2.1.7 11.3-21.6 1.3 1.2 19.3 16.6-1 .7 11.2-16.6 1 1.3 22 23-1.4.7 11.2-36 2.1zM372.3 542.2l-12.9.8-4.5-74.9L373 467c14.4-.9 22.2 4.8 23.1 20.8.7 12-3.7 17.2-7.9 19.4l12.9 33.3-13.1.8-11-30.5c-1.6.3-4.3.6-6.6.7l1.9 30.7zm-2.5-41.3l4.6-.3c7-.4 9.4-3.2 8.9-12.1-.5-8.9-3.3-11.4-10.2-10.9l-4.6.3 1.3 23zM433.7 538.5l-4.5-74.9 12.9-.8 3.8 63.7 20.2-1.2.7 11.2-33.1 2zM471.3 479.3c-.6-10.6 5.1-19.6 18.6-20.4 13.5-.8 20.2 7.4 20.9 18l2.3 38.6c.6 10.6-5.1 19.6-18.6 20.4-13.5.8-20.2-7.4-20.9-18l-2.3-38.6zm15.2 37.5c.3 5.6 2.2 8.2 7.3 7.9 5.2-.3 6.7-3.1 6.4-8.7l-2.3-38c-.3-5.6-2.2-8.2-7.4-7.9-5.2.3-6.7 3.1-6.3 8.7l2.3 38zM542.1 493.9l21.1-1.3 2.3 38-6.2.4-2.7-5.5c-3.6 4.8-6.6 7.1-12.6 7.4-10.2.6-17.7-6.2-18.4-18.2l-2.3-38.6c-.6-10.6 5.1-19.6 17.7-20.3 12.9-.8 19.9 8.2 20.5 19.4l.3 4.8-12.2.7c-.7-11.2-3.1-14-8.2-13.7-3.1.2-5.6 2.2-5.2 8.5l2.3 38.5c.3 4.8 2 7.8 6.5 7.5 5.2-.3 6.9-3.3 6.4-10.8l-.4-7.3-8.2.5-.7-10zM575.1 473.1c-.6-10.6 5.1-19.6 18.6-20.4 13.5-.8 20.2 7.4 20.9 18l2.3 38.6c.6 10.6-5.1 19.6-18.6 20.4-13.5.8-20.2-7.4-20.9-18l-2.3-38.6zm15.1 37.5c.3 5.6 2.2 8.2 7.4 7.9 5.2-.3 6.7-3.1 6.4-8.7l-2.3-38c-.3-5.6-2.2-8.2-7.3-7.9-5.2.3-6.7 3.1-6.4 8.7l2.2 38zM651.7 525.5l-.6-10.1c14.6-24.3 22.5-37.7 21.9-48.7-.4-5.9-2.8-8.4-6.3-8.2-4.1.2-6 3.6-5.8 8.2l.3 5.1-12.2.7-.2-3.5c-.7-11 5.9-19.9 17.9-20.7 10.6-.6 17.9 6.8 18.4 15.6.7 11.8-2.5 20.8-20.9 50.2l22.7-1.4.6 10.6-35.8 2.2zM709.6 445.8l10.2-.6-18.4 78.4-10.2.6 18.4-78.4zM726.7 521l-.6-10.1c14.6-24.3 22.5-37.7 21.9-48.7-.4-5.9-2.8-8.4-6.3-8.2-4.2.3-6 3.6-5.8 8.2l.3 5.1-12.2.7-.2-3.5c-.7-11 5.9-19.9 17.9-20.7 10.6-.6 17.9 6.8 18.4 15.6.7 11.8-2.5 20.8-20.9 50.2l22.7-1.4.6 10.6-35.8 2.2zM769.6 462.8c-.8-14.1 4.2-20.9 17-21.6 12.9-.8 18.7 5.3 19.5 19.5l2.2 35.9c.8 14.1-4.2 20.9-17 21.6-12.9.8-18.7-5.3-19.5-19.4l-2.2-36zm24.1-4.7c-.3-4.9-2.6-7-6.4-6.8-3.8.2-5.9 2.6-5.6 7.5l2.5 42.3c.3 4.9 2.6 7 6.4 6.8 3.8-.2 5.9-2.6 5.6-7.5l-2.5-42.3zM829 455.3l-10.2.6-.4-7c5.5-3.2 10.6-6.7 14.7-10.6l6.5-.4 4.6 76-11.6.7-3.6-59.3zM875.1 452.5l-10.2.6-.4-6.9c5.5-3.3 10.6-6.7 14.7-10.6l6.5-.4 4.5 76-11.6.7-3.5-59.4z"/></g><path class="st1" d="M976.3 488.1c0 269.6-218.5 488.2-488.1 488.2S0 757.7 0 488.1 218.6 0 488.1 0s488.2 218.5 488.2 488.1z"/><path class="st2" d="M537.2 211c-4.3-.8-24.9-4.2-49.1-4.2-24.2 0-44.8 3.5-49.1 4.2-2.5.4-3.4-2-1.5-3.4 1.7-1.3 50.6-38.5 50.6-38.5s48.9 37.2 50.6 38.5c1.9 1.5 1 3.9-1.5 3.4zm-84.5 241.8s-2.6.9-3.3 3.2c10.2 7.9 17.3 25.8 38.7 25.8 21.4 0 28.4-17.9 38.7-25.8-.7-2.3-3.3-3.2-3.3-3.2s-13.4 3.2-35.4 3.2-35.4-3.2-35.4-3.2zm35.4-30.2c-5.9 0-7.2-2.3-11.3-2.2-3.9 0-11.4 3.1-13 5.9.1 1.4.6 2.7 1.7 3.9 8.6 1.3 12.6 6.1 22.6 6.1s13.9-4.8 22.6-6.1c1-1.1 1.6-2.4 1.7-3.9-1.6-2.8-9.1-5.9-13-5.9-4 0-5.3 2.2-11.3 2.2zm487.5 92.3c-.6 11.7-1.7 23.2-3.1 34.7-55.2 9.2-75-40.1-131.6-37.6 3.4 12 6.1 24.3 8.2 36.7 46.7 0 65.5 43.6 117.4 37.2-2.7 13.4-6 26.5-9.8 39.5-41.1 4.1-55.5-36.8-103.1-35.6.4 6.8.6 13.6.6 20.5 0 3.8-.1 7.6-.2 11.4 40.5-.5 53.7 37 92.3 35.2-4.8 13.1-10.2 26-16.1 38.5-27.7-1.5-37.3-37.1-79.5-34.3-1.3 9.1-2.9 18.1-4.8 27 36.7-2.6 44.6 31.2 70.8 33.9-6.7 12.2-13.9 24.1-21.6 35.7-15.6-8.3-29.1-33.5-58.5-35 3-9.3 5.7-18.8 7.9-28.4-26.2 0-56.1-10.2-81.2-33.1 8.1-46.3-63.7-93.5-63.7-127.4 0-36.8 18.6-57.2 18.6-106.9 0-36.9-17.9-76.8-44.9-104.2-5.2-5.3-10.6-9.6-16.7-13.5 24.8 30.7 43.9 67.1 43.9 109.2 0 46.8-21.8 71.4-21.8 114.6s63.1 80.5 63.1 125c0 17.5-5.6 34.6-24 68.2 28.3 28.3 65.3 43.8 89.1 43.8 7.7 0 11.9-2.3 14.6-8.4 2.4-5.2 4.6-10.5 6.8-15.9 25.7 1 37.4 24.3 51.6 33.6-7.8 10.4-16 20.6-24.6 30.3-9.5-10.6-22.3-28.3-41-33.2-3.4 6.5-6.9 12.9-10.6 19.2 16.1 4.4 27.2 20.7 35.7 31.3-9.2 9.5-18.8 18.7-28.8 27.5-6.2-9.7-15.9-22-26.8-28.6-4 5.4-8.2 10.7-12.5 15.9 9.3 6.3 17.4 17.5 22.7 26.7-11.5 9.3-23.4 18-35.8 26.2-6.1-49.6-73.8-83.5-55.5-141.1-6 10.1-13.1 22.8-13.1 38.1 0 41.7 44.3 74.7 47.9 116.1-9.2 5.5-18.6 10.7-28.2 15.6-1.6-45.5-48.6-95.2-48.6-132.6 0-41.7 54.6-83.5 54.6-132.7 0-49.2-63-83.3-63-126.5s26.8-68 26.8-123.4c0-40.6-19.3-81.6-49-107.8-5.3-4.6-10.4-8.3-16.7-11.6 28.1 33.7 44.3 64.2 44.3 110.5 0 52.1-30.7 80.9-30.7 131.9s61.8 79.3 61.8 126.8-57.5 87.6-57.5 136.4c0 44.4 50.7 88.7 51.4 141.4-11.1 4.8-22.4 9.3-33.9 13.3 6.4-53.2-50.6-108.1-50.6-151.5 0-47.5 59.7-88.3 59.7-139.5s-60.6-75-60.6-127.6 37.2-81.6 37.2-139.7c0-45.3-22.3-86-55-111.2-.7-.5-1.4-1.1-2.1-1.6-3.1-2.3-5.6.5-3.4 3.2 23.1 28.9 35.5 58 35.5 101.2 0 53.1-42.8 96.3-42.8 147.7 0 60.7 57.4 78.1 57.4 127.9 0 49.8-61.6 89.6-61.6 142.5 0 49 58.3 103.5 48.3 160.1-11.7 3-23.5 5.6-35.5 7.8 10.9-70.5-46.2-121.1-46.2-167.2 0-49.9 63.7-94.4 63.7-143.2 0-46-45.8-61-51.8-108.1-.8-6.4-6-11.2-13.1-10-9.3 1.7-21.2 7.8-39.9 7.8s-30.6-6.1-39.9-7.8c-7.1-1.2-12.3 3.6-13.1 10-6 47.1-51.8 62.1-51.8 108.1 0 48.8 63.7 93.3 63.7 143.2 0 46.1-57.1 96.7-46.2 167.2-12-2.2-23.9-4.8-35.5-7.8-10-56.6 48.3-111 48.3-160.1 0-52.9-61.6-92.7-61.6-142.5s57.4-67.2 57.4-127.9c0-51.5-42.8-94.6-42.8-147.7 0-43.2 12.4-72.4 35.5-101.2 2.2-2.7-.4-5.5-3.4-3.2-.7.5-1.4 1-2.1 1.6-32.6 25.2-55 65.9-55 111.2 0 58 37.2 87.2 37.2 139.7s-60.6 76.4-60.6 127.6c0 51.2 59.7 92 59.7 139.5 0 43.4-57.1 98.3-50.6 151.5-11.5-4-22.8-8.4-33.9-13.3.8-52.7 51.4-97 51.4-141.4 0-48.8-57.5-88.9-57.5-136.4S349 582.1 349 531.1s-30.7-79.9-30.7-131.9c0-46.3 16.3-76.9 44.3-110.5-6.2 3.2-11.4 6.9-16.7 11.6-29.8 26.2-49 67.3-49 107.8 0 55.4 26.8 80.2 26.8 123.4s-63 77.3-63 126.5 54.6 91.1 54.6 132.7c0 37.3-47 87.1-48.6 132.6-9.6-4.9-19-10.1-28.2-15.6 3.5-41.4 47.9-74.4 47.9-116.1 0-15.2-7.1-27.9-13.1-38.1 18.2 57.5-49.4 91.5-55.5 141.1-12.3-8.2-24.3-17-35.8-26.2 5.3-9.2 13.5-20.4 22.7-26.7-4.3-5.2-8.5-10.5-12.5-15.9-10.9 6.6-20.6 18.9-26.8 28.6-10-8.8-19.5-17.9-28.8-27.5 8.5-10.7 19.6-27 35.7-31.3-3.7-6.3-7.3-12.7-10.6-19.2-18.7 4.9-31.5 22.7-41 33.2-8.6-9.8-16.8-19.9-24.6-30.3 14.2-9.3 26-32.7 51.6-33.6 2.1 5.4 4.4 10.7 6.8 15.9 2.8 6.1 6.9 8.4 14.7 8.4 23.8 0 60.7-15.4 89.1-43.8-18.4-33.6-24-50.7-24-68.2 0-44.5 63.1-81.8 63.1-125s-21.8-67.8-21.8-114.6c0-42.1 19-78.5 43.9-109.2-6.2 3.9-11.5 8.2-16.7 13.5-27 27.3-44.9 67.3-44.9 104.2 0 49.7 18.6 70 18.6 106.9 0 33.9-71.9 81.1-63.7 127.4-25.1 22.8-55 33.1-81.2 33.1 2.3 9.6 4.9 19.1 7.9 28.4-29.5 1.6-43 26.7-58.5 35-7.7-11.6-14.9-23.5-21.6-35.7 26.3-2.7 34.1-36.5 70.8-33.9-1.9-8.9-3.5-17.9-4.8-27-42.2-2.8-51.8 32.8-79.5 34.3-5.9-12.6-11.3-25.4-16.1-38.5 38.6 1.8 51.8-35.7 92.3-35.2-.1-3.8-.2-7.6-.2-11.4 0-6.9.2-13.7.6-20.5-47.5-1.1-62 39.7-103.1 35.6-3.8-12.9-7.1-26.1-9.8-39.5 51.9 6.4 70.7-37.2 117.4-37.2 2.1-12.5 4.9-24.7 8.2-36.7-56.6-2.5-76.4 46.8-131.6 37.6-1.4-11.4-2.5-23-3.1-34.7 64.2 7.2 88.3-45.6 146.8-39.2 5.5-14 11.9-27.5 19.1-40.5-73.3-12.9-98.2 48.4-166.4 39C7.6 211.1 223.2 0 488.1 0S968.7 211.1 976 474.2c-68.2 9.4-93.1-51.9-166.4-39 7.2 13 13.6 26.5 19.1 40.5 58.5-6.4 82.6 46.4 146.9 39.2zM278.3 310.2c-35.9-14.7-79.4-11.3-116.6 12.6-5.8-34.6-24.5-65.3-51.2-83.8-3.7-2.5-7.5-.1-7.2 4.2 5.6 73.1-37.1 136.5-89.6 192.2 54.1 16.3 100.2-53.4 170.4-29.1 25.2-37.6 57.2-70.2 94.2-96.1zM488.1 266c-45.3 0-83.3 25.6-93.2 58.7-.8 2.5.3 4.2 3.2 2.9 8.2-3.7 17.4-5.4 27.5-5.4 18.5 0 34.8 6.8 44.4 18.6 4.3 14 4.6 34.4-.2 46-7.6-1.7-10.3-7.6-17.8-7.6-7.4 0-13.2 5.2-25.8 5.2-12.6 0-14.1-6-22.4-6-9.7 0-11.5 10-11.5 21.4 0 50.5 46.4 120 95.8 120s95.8-69.5 95.8-120c0-11.3-2.3-21-12.5-22.3-5.1 3.6-9.7 6.9-21.4 6.9-12.6 0-16.1-5.2-23.5-5.2-8.9 0-8 18.9-18.7 20-7.1-17.1-7.4-38.9-1.5-58.4 9.6-11.8 25.9-18.6 44.4-18.6 10.1 0 19.4 1.8 27.5 5.4 2.9 1.3 4-.3 3.2-2.9-10-33.1-47.9-58.7-93.3-58.7zm72.2 72.4c-10.9 0-23.6 3.3-31.6 12.3-.8 2.4-.8 6 .4 8.5 19.7-6.7 37.1-7 45.5 2.4 4.5-4.1 5.9-7.7 5.9-12-.1-6.6-6.8-11.2-20.2-11.2zm-158.5 23.1c9.5-9.5 29.5-9.1 50.3-1.4.9-10.4-17.6-21.7-36.1-21.7-13.4 0-20.1 4.5-20.1 11.1 0 4.3 1.4 7.9 5.9 12zm312.3-170.9c-35.8 2.5-66.9 14.8-92 35.3 10.7-30.3 24.2-56.7 41.4-82.4-45.5 4.8-83.6 21.5-111.4 50l-21.7-57 48.3-42.7-64.7-4.6-25.8-60.1-25.8 60.1-64.6 4.6 48.3 42.7-21.7 57c-27.8-28.5-65.9-45.1-111.4-50 17.1 25.7 30.7 52.1 41.4 82.4-25.1-20.5-56.2-32.8-92-35.3 21.5 27.6 40.5 57 54.6 88.6 1.6 3.6 5 4.7 8.7 2.9 49-24.3 104.2-38.1 162.7-38.1 58.4 0 113.7 13.7 162.7 38.1 3.7 1.8 7.1.7 8.7-2.9 13.8-31.6 32.8-61 54.3-88.6zm78.1 215.7c70.2-24.3 116.3 45.4 170.4 29.1-52.5-55.8-95.2-119.2-89.6-192.2.3-4.3-3.5-6.7-7.2-4.2-26.7 18.5-45.5 49.3-51.2 83.8-37.2-23.9-80.7-27.3-116.6-12.6 37 25.9 69 58.5 94.2 96.1zM752.2 959.9h-3.3v-20.4h-7.5v-2.9h18.3v2.9h-7.5v20.4zM774.9 954.5l7-17.9h5.1v23.2h-3.3v-19.4h-.1l-7.8 19.4h-2.1l-7.7-19.4v19.4h-3.2v-23.2h5.1l7 17.9z"/></svg>