<svg id="Layer_1" data-name="Layer 1" xmlns="http://www.w3.org/2000/svg" viewBox="0 0 288 237.85"><defs><style>.cls-1{fill:#99999a}.cls-2{fill:#b1e3e3;fill-rule:evenodd}.cls-3{fill:#00bfd6}.cls-4{fill:#fff}.cls-5{fill:none;stroke:#fff;stroke-miterlimit:10;stroke-width:1.15px}.cls-6{fill:#f42534}.cls-7{fill:#8f1336}</style></defs><title>StudentChoice_logo</title><path class="cls-1" d="M322.63 144.19a6.24 6.24 0 0 0-.16-.73 20 20 0 0 0-3.64-7.33 5.66 5.66 0 0 0-.43-.44 6 6 0 0 0-1-.72h-.07A6.65 6.65 0 0 0 315 134l-.51-.07h-.47a18.39 18.39 0 0 0 2.38-7.93 6.78 6.78 0 0 0-2.23-5.31 6.71 6.71 0 0 0-3.28-1.6l.66-3.23c1.78-8.65-12.45-15.33-16.29-16.7a6 6 0 0 0-.68-.23l-.25-.06c-.27-.07-.52-.11-.71-.15l-.56-.07h-.81a4.06 4.06 0 0 0-.74 0 8.49 8.49 0 0 0-3.19-.18 7.71 7.71 0 0 0-6.49 7.29l-.42 4.94A117 117 0 0 0 253 80.87a116.34 116.34 0 0 0-162.62 25 118.33 118.33 0 0 0-8.17 12.8c-1.1.11-2.22.26-3.35.43a67 67 0 0 0-30.54 13.2c-10.15 8.17-14.87 18.34-13.32 28.63s9.1 15.78 17.84 19.07a7.25 7.25 0 0 0-.77 0 8.12 8.12 0 0 0-3.34-.16c-.86.13-3.16.48-8 5.45-4 4.1-5.58 7.38-5.08 10.63.6 3.91 4 6.91 10 8.94 6.77 2.26 15.94 2.92 24.12 1.66.81-.12 1.62-.26 2.42-.4.94 3.38 2 6.7 3.26 10q-1.12 1.2-2.14 2.42C63.6 230.18 59.11 244 61 256.46c1.49 9.65 6.1 17.33 13.35 22.21 5.59 3.76 12.48 5.67 20.5 5.67a55.91 55.91 0 0 0 8.46-.67 69.21 69.21 0 0 0 16.31-4.67l.49-.18c.79-.3 1.57-.62 2.34-.95l.16-.07.25-.11a114.11 114.11 0 0 0 62.28 18.49 115.59 115.59 0 0 0 17.6-1.35 113.63 113.63 0 0 0 73.72-43.76 28.93 28.93 0 0 0 12.53.61 35.47 35.47 0 0 0 9-2.64 34.09 34.09 0 0 0 9.26-4.93l.27-.21.08-.06a60.27 60.27 0 0 0 10.4-10.7 7.41 7.41 0 0 0 1.33-7.06c-1-3.37-2.12-5.68-3.56-7.2a6.73 6.73 0 0 0-.53-.52c-.12-.11-.24-.21-.37-.31a6.61 6.61 0 0 0-2.46-1.2h-.2a6.45 6.45 0 0 0-2.2-.08 7.05 7.05 0 0 0-1.33-.26c0-.2-.05-.4-.08-.6a14.08 14.08 0 0 0-10.75-11.75 114.41 114.41 0 0 0 2-15.43 116.61 116.61 0 0 0 .52-22l.86-.37h.11c.57-.2 1.13-.42 1.67-.65l.16-.07a31.39 31.39 0 0 0 7.09-4.13l.36-.27a67.28 67.28 0 0 0 9.65-9.77l.75-.89c.1-.12.2-.24.29-.36a7.94 7.94 0 0 0 1.32-6.03z" transform="translate(-34.73 -58.34)"/><path class="cls-2" d="M292.8 164.89a108.78 108.78 0 1 1-124.07-91 108.78 108.78 0 0 1 124.07 91" transform="translate(-34.73 -58.34)"/><path class="cls-3" d="M184.18 285a110.27 110.27 0 1 1 109-127.06A110.27 110.27 0 0 1 201 283.69a110.75 110.75 0 0 1-16.82 1.31zm.13-217.58a107.3 107.3 0 1 0 16.27 213.35 107.29 107.29 0 0 0 89.72-122.38A107.47 107.47 0 0 0 184.31 67.4z" transform="translate(-34.73 -58.34)"/><path class="cls-4" d="M124.43 160.83l-4 18.88c-.59 2.68 3.2 2 7.29-1.92a51.6 51.6 0 0 0 7.84-10c.4-.66.87-.83 1.25-.29a13.5 13.5 0 0 1 2.35 4.93 1.47 1.47 0 0 1-.26 1.54 62.37 62.37 0 0 1-9.45 9.94 26.35 26.35 0 0 1-12.26 5.28c-4.29.66-8.13-.94-7.7-5.3l1.75-21-17.81 2.71c-3.8.59-6.88-1.24-9.2-3.37a1.58 1.58 0 0 1 .57-2.78c4.81-1.84 10.76-5.95 9.72-12.67-.65-4.19-6.13-6.74-16-5.23-11.89 1.83-22 8.68-21 15.4 1.71 11.11 40.43 8.54 42.29 20.63 1.38 9-7.38 18.8-31.07 22.45-13.74 2.12-26.18-2.16-26.63-5.08-.34-2.24 6.79-8.43 7.57-8.55a1.14 1.14 0 0 1 1 .24 28.31 28.31 0 0 0 20.49 4.73c4.78-.74 17.09-3.73 16.38-8.31-1.12-7.31-42.83-2.09-46.07-23.14-2.66-17.25 18.94-31.26 38.34-34.24 17.84-2.75 27.56 3.34 29 12.6 1.13 7.31-2.26 13.82-7.22 18.57l10.24-1.57 1.88-22.14a1.18 1.18 0 0 1 1-1.16c1.85-.29 14.26 6.39 13.53 10.09l-2.29 11 4.09-.63c.88-.14 1.6.05 1.54 1a14.53 14.53 0 0 1-2.08 5.91 1.66 1.66 0 0 1-1.07.86z" transform="translate(-34.73 -58.34)"/><path class="cls-5" d="M124.43 160.83l-4 18.88c-.59 2.68 3.2 2 7.29-1.92a51.6 51.6 0 0 0 7.84-10c.4-.66.87-.83 1.25-.29a13.5 13.5 0 0 1 2.35 4.93 1.47 1.47 0 0 1-.26 1.54 62.37 62.37 0 0 1-9.45 9.94 26.35 26.35 0 0 1-12.26 5.28c-4.29.66-8.13-.94-7.7-5.3l1.75-21-17.81 2.71c-3.8.59-6.88-1.24-9.2-3.37a1.58 1.58 0 0 1 .57-2.78c4.81-1.84 10.76-5.95 9.72-12.67-.65-4.19-6.13-6.74-16-5.23-11.89 1.83-22 8.68-21 15.4 1.71 11.11 40.43 8.54 42.29 20.63 1.38 9-7.38 18.8-31.07 22.45-13.74 2.12-26.18-2.16-26.63-5.08-.34-2.24 6.79-8.43 7.57-8.55a1.14 1.14 0 0 1 1 .24 28.31 28.31 0 0 0 20.49 4.73c4.78-.74 17.09-3.73 16.38-8.31-1.12-7.31-42.83-2.09-46.07-23.14-2.66-17.25 18.94-31.26 38.34-34.24 17.84-2.75 27.56 3.34 29 12.6 1.13 7.31-2.26 13.82-7.22 18.57l10.24-1.57 1.88-22.14a1.18 1.18 0 0 1 1-1.16c1.85-.29 14.26 6.39 13.53 10.09l-2.29 11 4.09-.63c.88-.14 1.6.05 1.54 1a14.53 14.53 0 0 1-2.08 5.91 1.66 1.66 0 0 1-1.07.86z" transform="translate(-34.73 -58.34)"/><path class="cls-4" d="M161.56 173.87c-.12.52-.15 1.62 1.4.68s5.5-3.84 10.71-12.13c.4-.66.77-.82 1.24-.39a13.37 13.37 0 0 1 2.24 4.84 1.42 1.42 0 0 1-.26 1.54c-2.85 3.53-10.64 13.21-18.54 14.43-3.12.48-6.12-.85-6.94-4.92-3.74 4.87-7.19 7.09-11 7.68-6.24 1-10.43-2.89-9.84-9.46l1.8-21.33c0-1 1.73-2.36 7.39-3.23s6.32.22 6.07 1.16l-4.45 21.64c-1.09 5.26 1.87 5 5.17.5a29.24 29.24 0 0 0 5.89-14.88l.7-8.39c0-1 1.54-2.33 7.19-3.2s6.5.1 6.26 1.13z" transform="translate(-34.73 -58.34)"/><path class="cls-5" d="M161.56 173.87c-.12.52-.15 1.62 1.4.68s5.5-3.84 10.71-12.13c.4-.66.77-.82 1.24-.39a13.37 13.37 0 0 1 2.24 4.84 1.42 1.42 0 0 1-.26 1.54c-2.85 3.53-10.64 13.21-18.54 14.43-3.12.48-6.12-.85-6.94-4.92-3.74 4.87-7.19 7.09-11 7.68-6.24 1-10.43-2.89-9.84-9.46l1.8-21.33c0-1 1.73-2.36 7.39-3.23s6.32.22 6.07 1.16l-4.45 21.64c-1.09 5.26 1.87 5 5.17.5a29.24 29.24 0 0 0 5.89-14.88l.7-8.39c0-1 1.54-2.33 7.19-3.2s6.5.1 6.26 1.13z" transform="translate(-34.73 -58.34)"/><path class="cls-4" d="M197.11 105.33c.11-.62.31-1.25 1.09-1.37 2.15-.33 15.87 7.14 15.09 11.15l-10.81 52.26c-.11.62-.05 1.61 1.6.65s5.58-4 10.86-12.45c.49-.67.87-.83 1.35-.31a13.49 13.49 0 0 1 2.36 4.93 1.72 1.72 0 0 1-.26 1.54c-2.93 3.64-10.88 13.55-18.88 14.78-3.7.57-7.26-.48-7.87-3.78a16.06 16.06 0 0 1-10.17 6.55c-6.92 1.07-11.73-3.58-12.75-10.21-1.64-10.62 5.82-23.75 19-25.77a12.63 12.63 0 0 1 6.16.45zm-4.71 56.21c.28-4-2-5.78-5.3-5.27-4.78.74-8.38 6.48-7.6 11.55.4 2.63 2 4.29 4.49 3.9 1.66-.25 4.07-2.72 5.08-4.58a1.21 1.21 0 0 1 .9-.63 3.59 3.59 0 0 1 1.87 1.11z" transform="translate(-34.73 -58.34)"/><path class="cls-5" d="M197.11 105.33c.11-.62.31-1.25 1.09-1.37 2.15-.33 15.87 7.14 15.09 11.15l-10.81 52.26c-.11.62-.05 1.61 1.6.65s5.58-4 10.86-12.45c.49-.67.87-.83 1.35-.31a13.49 13.49 0 0 1 2.36 4.93 1.72 1.72 0 0 1-.26 1.54c-2.93 3.64-10.88 13.55-18.88 14.78-3.7.57-7.26-.48-7.87-3.78a16.06 16.06 0 0 1-10.17 6.55c-6.92 1.07-11.73-3.58-12.75-10.21-1.64-10.62 5.82-23.75 19-25.77a12.63 12.63 0 0 1 6.16.45zm-4.71 56.21c.28-4-2-5.78-5.3-5.27-4.78.74-8.38 6.48-7.6 11.55.4 2.63 2 4.29 4.49 3.9 1.66-.25 4.07-2.72 5.08-4.58a1.21 1.21 0 0 1 .9-.63 3.59 3.59 0 0 1 1.87 1.11z" transform="translate(-34.73 -58.34)"/><path class="cls-4" d="M230 164.63a18.34 18.34 0 0 0 9.07-4 42.69 42.69 0 0 0 8.81-10.14c.4-.66.87-.83 1.35-.31 1.07 1.13 1.82 3.41 2.26 4.94a1.48 1.48 0 0 1-.26 1.54 53.51 53.51 0 0 1-9.64 10 28.26 28.26 0 0 1-12.86 5.34c-10.24 1.58-17.77-2.65-19.08-11.13-1.73-11.21 6.69-22 19.17-23.91 6.24-1 10.87 1.92 11.67 7.09C242 153.51 231 161.39 225 162.3a1.64 1.64 0 0 1-.79 0 14.6 14.6 0 0 1-3.17-1.8c.89 3.16 4.33 4.82 8.92 4.11m1.72-13.61c-.14-.88-1.12-1.42-2.77-1.17-4.1.63-7.92 4.31-8.08 8.43 3.81-1.19 11.28-4.53 10.86-7.26" transform="translate(-34.73 -58.34)"/><path class="cls-5" d="M230 164.63a18.34 18.34 0 0 0 9.07-4 42.69 42.69 0 0 0 8.81-10.14c.4-.66.87-.83 1.35-.31 1.07 1.13 1.82 3.41 2.26 4.94a1.48 1.48 0 0 1-.26 1.54 53.51 53.51 0 0 1-9.64 10 28.26 28.26 0 0 1-12.86 5.34c-10.24 1.58-17.77-2.65-19.08-11.13-1.73-11.21 6.69-22 19.17-23.91 6.24-1 10.87 1.92 11.67 7.09C242 153.51 231 161.39 225 162.3a1.64 1.64 0 0 1-.79 0 14.6 14.6 0 0 1-3.17-1.8c.96 3.18 4.37 4.84 8.96 4.13zm1.68-13.63c-.14-.88-1.12-1.42-2.77-1.17-4.1.63-7.92 4.31-8.08 8.43 3.81-1.18 11.27-4.53 10.85-7.26z" transform="translate(-34.73 -58.34)"/><path class="cls-4" d="M264.94 146c0-1-.35-1.64-1.13-1.52-3.8.59-10.56 13.1-12.11 19.23l-.56 2.18c-.43 1.76-.61 2.49-4.22 3-3.22.49-5 .57-4.85-1.65l2.57-30.63c.14-1 1.24-2.29 7-3.17s7.09 0 6.85 1l-1.28 6.59c3.27-4.69 8.67-9.82 14.51-10.72 5.65-.87 7.84 2.29 6.72 7.35l-3.83 18.55c-.1.62-.05 1.61 1.6.65s5.58-4 11-12.46c.4-.66.87-.83 1.35-.31 1.07 1.13 1.82 3.41 2.26 4.94a1.48 1.48 0 0 1-.26 1.54c-2.93 3.65-11 13.57-19.08 14.81-4.19.65-8-.86-7.7-5.3z" transform="translate(-34.73 -58.34)"/><path class="cls-5" d="M264.94 146c0-1-.35-1.64-1.13-1.52-3.8.59-10.56 13.1-12.11 19.23l-.56 2.18c-.43 1.76-.61 2.49-4.22 3-3.22.49-5 .57-4.85-1.65l2.57-30.63c.14-1 1.24-2.29 7-3.17s7.09 0 6.85 1l-1.28 6.59c3.27-4.69 8.67-9.82 14.51-10.72 5.65-.87 7.84 2.29 6.72 7.35l-3.83 18.55c-.1.62-.05 1.61 1.6.65s5.58-4 11-12.46c.4-.66.87-.83 1.35-.31 1.07 1.13 1.82 3.41 2.26 4.94a1.48 1.48 0 0 1-.26 1.54c-2.93 3.65-11 13.57-19.08 14.81-4.19.65-8-.86-7.7-5.3z" transform="translate(-34.73 -58.34)"/><path class="cls-4" d="M299 133.95l-3.88 18.86c-.59 2.68 3.1 2 7.28-1.92a51.78 51.78 0 0 0 7.75-10c.4-.66.87-.83 1.33-.4a14.38 14.38 0 0 1 2.37 5 2.06 2.06 0 0 1-.26 1.54 68.5 68.5 0 0 1-9.56 9.86 26.1 26.1 0 0 1-12.15 5.36c-4.39.68-8.13-.94-7.8-5.28l1.85-21-3.31.51c-.88.14-1.61-.05-1.64-.94a14.49 14.49 0 0 1 2.17-6 1.71 1.71 0 0 1 1.08-.77l2.34-.36 1.88-22.14a1.16 1.16 0 0 1 .91-1.24c1.95-.3 14.27 6.48 13.53 10.09l-2.28 11.13 5.46-.84c.87-.13 1.59 0 1.54 1a13.23 13.23 0 0 1-2.09 5.91 1.83 1.83 0 0 1-1.06.86z" transform="translate(-34.73 -58.34)"/><path class="cls-5" d="M299 133.95l-3.88 18.86c-.59 2.68 3.1 2 7.28-1.92a51.78 51.78 0 0 0 7.75-10c.4-.66.87-.83 1.33-.4a14.38 14.38 0 0 1 2.37 5 2.06 2.06 0 0 1-.26 1.54 68.5 68.5 0 0 1-9.56 9.86 26.1 26.1 0 0 1-12.15 5.36c-4.39.68-8.13-.94-7.8-5.28l1.85-21-3.31.51c-.88.14-1.61-.05-1.64-.94a14.49 14.49 0 0 1 2.17-6 1.71 1.71 0 0 1 1.08-.77l2.34-.36 1.88-22.14a1.16 1.16 0 0 1 .91-1.24c1.95-.3 14.27 6.48 13.53 10.09l-2.28 11.13 5.46-.84c.87-.13 1.59 0 1.54 1a13.23 13.23 0 0 1-2.09 5.91 1.83 1.83 0 0 1-1.06.86z" transform="translate(-34.73 -58.34)"/><path class="cls-4" d="M102.32 277.14c-20.66 3.18-32.43-6.48-34.77-21.69-3.27-21.25 16.52-48.25 47.13-53 17.84-2.75 27.53 2.54 28.7 10.15 2.41 15-19.8 25-24.67 25.75a2.28 2.28 0 0 1-1.42-.18 21 21 0 0 1-3.63-2.83 1.06 1.06 0 0 1 .41-1.86c3.36-1.51 14.25-6 13.35-11.83-.61-4-7.44-4.24-14-3.24-17.35 2.67-31.72 18.85-29.07 36.11 1.7 11 11.08 15.56 20.24 14.15 12-1.85 19.11-6.83 26.64-13.68.79-.72 1.39-.71 1.84-.38a8 8 0 0 1 2.85 4.25 2 2 0 0 1-.54 1.68c-6.48 7.19-19 14.41-33.07 16.57" transform="translate(-34.73 -58.34)"/><path class="cls-5" d="M102.32 277.14c-20.66 3.18-32.43-6.48-34.77-21.69-3.27-21.25 16.52-48.25 47.13-53 17.84-2.75 27.53 2.54 28.7 10.15 2.41 15-19.8 25-24.67 25.75a2.28 2.28 0 0 1-1.42-.18 21 21 0 0 1-3.63-2.83 1.06 1.06 0 0 1 .41-1.86c3.36-1.51 14.25-6 13.35-11.83-.61-4-7.44-4.24-14-3.24-17.35 2.67-31.72 18.85-29.07 36.11 1.7 11 11.08 15.56 20.24 14.15 12-1.85 19.11-6.83 26.64-13.68.79-.72 1.39-.71 1.84-.38a8 8 0 0 1 2.85 4.25 2 2 0 0 1-.54 1.68c-6.46 7.22-19.02 14.46-33.06 16.6z" transform="translate(-34.73 -58.34)"/><path class="cls-4" d="M162.59 244c.14-1-.26-1.66-1-1.54-3.9.6-10.65 13.12-12.2 19.24l-.46 2.17c-.52 1.78-.61 2.49-4.22 3-3.31.51-5.1.58-4.85-1.65l5.82-69.75a1.48 1.48 0 0 1 1.19-1.38c2-.31 15.87 7.13 15 11.16l-7 33.81c3.27-4.69 8.67-9.82 14.51-10.72 5.56-.85 7.9 2.08 6.82 7.34l-3.83 18.55c-.11.61-.05 1.61 1.6.65s5.58-4 10.86-12.45c.49-.67.87-.83 1.35-.31a13.44 13.44 0 0 1 2.36 4.93 1.71 1.71 0 0 1-.26 1.54c-2.93 3.65-11 13.57-19.07 14.81-4.19.65-8.12-.85-7.7-5.3z" transform="translate(-34.73 -58.34)"/><path class="cls-5" d="M162.59 244c.14-1-.26-1.66-1-1.54-3.9.6-10.65 13.12-12.2 19.24l-.46 2.17c-.52 1.78-.61 2.49-4.22 3-3.31.51-5.1.58-4.85-1.65l5.82-69.75a1.48 1.48 0 0 1 1.19-1.38c2-.31 15.87 7.13 15 11.16l-7 33.81c3.27-4.69 8.67-9.82 14.51-10.72 5.56-.85 7.9 2.08 6.82 7.34l-3.83 18.55c-.11.61-.05 1.61 1.6.65s5.58-4 10.86-12.45c.49-.67.87-.83 1.35-.31a13.44 13.44 0 0 1 2.36 4.93 1.71 1.71 0 0 1-.26 1.54c-2.93 3.65-11 13.57-19.07 14.81-4.19.65-8.12-.85-7.7-5.3z" transform="translate(-34.73 -58.34)"/><path class="cls-4" d="M195.88 259.34c-9.75 1.5-15-4.17-16.14-11.49-2-13 9.39-26.49 12.71-27 1.56-.24 5 2.32 7.39 4.55a9.64 9.64 0 0 1 4.91-2.45c5.75-.89 8.63 3.56 9.43 8.73a24.35 24.35 0 0 1-1.83 12.75c2.08-.12 4.38-1.37 6.26-4.06.65-1 1.47-2.12 2.27-3.44.4-.66.87-.83 1.25-.29 1.17 1.12 1.92 3.4 2.36 4.93a1.47 1.47 0 0 1-.26 1.54c-1.17 1.48-5 6.77-10.5 7.61a22.18 22.18 0 0 1-5.16.2c-3.41 4.42-7.9 7.7-12.67 8.44m-.25-21.72a20.52 20.52 0 0 1-.19-2.57c-3 3.76-5.13 8.17-4.54 12 .56 3.61 3 5.52 6 5.07a12 12 0 0 0 5.92-3c-3.61-2-6.27-5.72-7.16-11.47m11.7-1.8c-.22-1.46-1-1.94-1.78-1.82a2.19 2.19 0 0 0-1.57 2.74 9.67 9.67 0 0 0 3 5.63 14.91 14.91 0 0 0 .39-6.55" transform="translate(-34.73 -58.34)"/><path class="cls-5" d="M195.88 259.34c-9.75 1.5-15-4.17-16.14-11.49-2-13 9.39-26.49 12.71-27 1.56-.24 5 2.32 7.39 4.55a9.64 9.64 0 0 1 4.91-2.45c5.75-.89 8.63 3.56 9.43 8.73a24.35 24.35 0 0 1-1.83 12.75c2.08-.12 4.38-1.37 6.26-4.06.65-1 1.47-2.12 2.27-3.44.4-.66.87-.83 1.25-.29 1.17 1.12 1.92 3.4 2.36 4.93a1.47 1.47 0 0 1-.26 1.54c-1.17 1.48-5 6.77-10.5 7.61a22.18 22.18 0 0 1-5.16.2c-3.43 4.41-7.91 7.69-12.69 8.42zm-.25-21.72a20.52 20.52 0 0 1-.19-2.57c-3 3.76-5.13 8.17-4.54 12 .56 3.61 3 5.52 6 5.07a12 12 0 0 0 5.92-3c-3.64-2.06-6.3-5.74-7.19-11.49zm11.7-1.8c-.22-1.46-1-1.94-1.78-1.82a2.19 2.19 0 0 0-1.57 2.74 9.67 9.67 0 0 0 3 5.63 14.91 14.91 0 0 0 .35-6.54z" transform="translate(-34.73 -58.34)"/><path class="cls-4" d="M219.68 222.75c.14-1 1.63-2.35 7.38-3.23s6.7.07 6.46 1.1l-5.22 25.06c0 .6-.05 1.6 1.6.65s5.58-4 11-12.46c.4-.66.87-.83 1.35-.31a11.89 11.89 0 0 1 2.26 4.94 1.64 1.64 0 0 1-.16 1.52c-2.93 3.64-11.08 13.58-19.08 14.81-4.19.64-8.11-.85-7.8-5.28zm8.17-7.84c-3.9.6-6.89-1.33-7.39-4.55-.71-4.58 3.67-9.85 9-10.67 4-.62 7 1.42 7.5 4.63.71 4.58-3.69 9.75-9.15 10.59" transform="translate(-34.73 -58.34)"/><path class="cls-5" d="M219.68 222.75c.14-1 1.63-2.35 7.38-3.23s6.7.07 6.46 1.1l-5.22 25.06c0 .6-.05 1.6 1.6.65s5.58-4 11-12.46c.4-.66.87-.83 1.35-.31a11.89 11.89 0 0 1 2.26 4.94 1.64 1.64 0 0 1-.16 1.52c-2.93 3.64-11.08 13.58-19.08 14.81-4.19.64-8.11-.85-7.8-5.28zm8.17-7.84c-3.9.6-6.89-1.33-7.39-4.55-.71-4.58 3.67-9.85 9-10.67 4-.62 7 1.42 7.5 4.63.75 4.58-3.65 9.74-9.11 10.58z" transform="translate(-34.73 -58.34)"/><path class="cls-4" d="M267.08 221.44c.56 3.61-1.63 10.13-4.27 11.14a17.09 17.09 0 0 1-2.32.45c-1.17.18-3.4.62-3.56-.45s1.32-1.8 1.11-3.16c-.16-1.07-1.54-1.56-4-1.18-4.87.75-8.28 5.17-7.59 9.65.78 5.07 4.87 5.73 9.94 5a18.58 18.58 0 0 0 9.06-4 44.54 44.54 0 0 0 8.82-10.14c.4-.66.87-.83 1.25-.29a13.45 13.45 0 0 1 2.35 4.93 1.47 1.47 0 0 1-.26 1.53 59.4 59.4 0 0 1-9.64 10 28.52 28.52 0 0 1-12.84 5.37c-10.43 1.61-17.77-.66-19.36-11-1.82-11.79 6.87-22.11 18.86-24 8-1.23 11.78 2 12.43 6.17" transform="translate(-34.73 -58.34)"/><path class="cls-5" d="M267.08 221.44c.56 3.61-1.63 10.13-4.27 11.14a17.09 17.09 0 0 1-2.32.45c-1.17.18-3.4.62-3.56-.45s1.32-1.8 1.11-3.16c-.16-1.07-1.54-1.56-4-1.18-4.87.75-8.28 5.17-7.59 9.65.78 5.07 4.87 5.73 9.94 5a18.58 18.58 0 0 0 9.06-4 44.54 44.54 0 0 0 8.82-10.14c.4-.66.87-.83 1.25-.29a13.45 13.45 0 0 1 2.35 4.93 1.47 1.47 0 0 1-.26 1.53 59.4 59.4 0 0 1-9.64 10 28.52 28.52 0 0 1-12.84 5.37c-10.43 1.61-17.77-.66-19.36-11-1.82-11.79 6.87-22.11 18.86-24 8.01-1.29 11.8 1.96 12.45 6.15z" transform="translate(-34.73 -58.34)"/><path class="cls-4" d="M289.25 237.78a18.32 18.32 0 0 0 9.06-4 42.59 42.59 0 0 0 8.82-10.14c.4-.66.87-.83 1.35-.31 1.07 1.13 1.82 3.41 2.26 4.94a1.47 1.47 0 0 1-.26 1.54 53.37 53.37 0 0 1-9.64 10 28.25 28.25 0 0 1-12.84 5.35c-10.24 1.58-17.77-2.65-19.08-11.13-1.73-11.21 6.69-22 19.17-23.91 6.24-1 10.87 1.92 11.67 7.08 1.46 9.46-9.51 17.33-15.45 18.25a1.64 1.64 0 0 1-.79 0 14.6 14.6 0 0 1-3.17-1.8c.89 3.16 4.34 4.82 8.92 4.11m1.69-13.63c-.14-.88-1.12-1.42-2.77-1.17-4.1.63-7.92 4.31-8.09 8.43 3.81-1.19 11.28-4.53 10.86-7.26" transform="translate(-34.73 -58.34)"/><path class="cls-5" d="M289.25 237.78a18.32 18.32 0 0 0 9.06-4 42.59 42.59 0 0 0 8.82-10.14c.4-.66.87-.83 1.35-.31 1.07 1.13 1.82 3.41 2.26 4.94a1.47 1.47 0 0 1-.26 1.54 53.37 53.37 0 0 1-9.64 10 28.25 28.25 0 0 1-12.84 5.35c-10.24 1.58-17.77-2.65-19.08-11.13-1.73-11.21 6.69-22 19.17-23.91 6.24-1 10.87 1.92 11.67 7.08 1.46 9.46-9.51 17.33-15.45 18.25a1.64 1.64 0 0 1-.79 0 14.6 14.6 0 0 1-3.17-1.8c.87 3.17 4.32 4.84 8.9 4.13zm1.69-13.63c-.14-.88-1.12-1.42-2.77-1.17-4.1.63-7.92 4.31-8.09 8.43 3.82-1.18 11.29-4.53 10.87-7.26z" transform="translate(-34.73 -58.34)"/><path class="cls-4" d="M313.87 145.53a14.38 14.38 0 0 0-2.37-5c-.46-.43-.94-.26-1.33.4a51.78 51.78 0 0 1-7.75 10c-4.18 3.94-7.87 4.61-7.28 1.92l3.86-18.9 5.46-.84a1.83 1.83 0 0 0 1.06-.86 13.23 13.23 0 0 0 2.09-5.91c0-1-.67-1.09-1.54-1l-5.46.84 2.28-11.13c.74-3.61-11.58-10.39-13.53-10.09a1.16 1.16 0 0 0-.91 1.24l-1.88 22.14-2.34.36a1.71 1.71 0 0 0-1.08.77 14.49 14.49 0 0 0-2.17 6c0 .89.76 1.08 1.64.94l3.31-.51-1 11.87c-4.22 6-7.29 8.28-8.7 9.09-1.65 1-1.7 0-1.6-.65l3.83-18.55c1.12-5.06-1.07-8.22-6.72-7.35-5.85.9-11.25 6-14.51 10.72l1.28-6.59c.24-1-1.09-1.93-6.85-1s-6.85 2.16-7 3.17L242.94 157a37.89 37.89 0 0 1-3.88 3.69 18.34 18.34 0 0 1-9.07 4c-4.58.71-8-1-8.92-4.11a14.6 14.6 0 0 0 3.17 1.8 1.64 1.64 0 0 0 .79 0c5.94-.92 16.91-8.79 15.45-18.25-.79-5.17-5.43-8-11.67-7.09-12.48 1.92-20.9 12.7-19.17 23.91a15.33 15.33 0 0 0 .34 1.62 25.08 25.08 0 0 1-5.93 5.52c-1.65 1-1.7 0-1.6-.65l10.81-52.26c.78-4-12.94-11.48-15.09-11.15-.78.12-1 .75-1.09 1.37l-3.26 38.42a12.63 12.63 0 0 0-6.16-.45c-13.16 2-20.62 15.15-19 25.77v.2a23.27 23.27 0 0 1-5.78 5.28c-1.55.94-1.52-.16-1.4-.68l5-24.33c.24-1-.71-2-6.26-1.13s-7.15 2.2-7.19 3.2l-.7 8.39a29.24 29.24 0 0 1-5.89 14.88c-3.3 4.5-6.25 4.75-5.17-.5l4.45-21.64c.25-.94-.51-2-6.07-1.16s-7.34 2.23-7.39 3.23l-1.67 19.76a38.31 38.31 0 0 1-3 3.21c-4.09 3.92-7.87 4.61-7.29 1.92l4-18.88 4.09-.63a1.66 1.66 0 0 0 1.07-.86 14.53 14.53 0 0 0 2.08-5.91c.06-.91-.67-1.1-1.54-1l-4.09.63 2.29-11c.73-3.7-11.68-10.38-13.53-10.09a1.18 1.18 0 0 0-1 1.16l-1.88 22.14-10.24 1.57c5-4.75 8.35-11.26 7.22-18.57-1.43-9.26-11.15-15.35-29-12.6-19.4 3-41 17-38.34 34.24 3.37 21.03 45.08 15.78 46.21 23.09.71 4.58-11.61 7.57-16.38 8.31a28.31 28.31 0 0 1-20.49-4.73 1.14 1.14 0 0 0-1-.24c-.78.12-7.91 6.31-7.57 8.55.45 2.92 12.89 7.2 26.63 5.08 23.69-3.65 32.45-13.48 31.07-22.45C98 165.5 59.28 168.07 57.57 157c-1-6.72 9.09-13.57 21-15.4 9.85-1.52 15.33 1 16 5.23 1 6.72-4.92 10.84-9.72 12.67a1.58 1.58 0 0 0-.57 2.78c2.32 2.14 5.4 4 9.2 3.37l17.84-2.75-1.75 21c-.43 4.36 3.41 6 7.7 5.3a26.35 26.35 0 0 0 12.26-5.28c.75-.61 1.47-1.25 2.16-1.89 1.59 2.83 4.75 4.22 8.78 3.6 3.8-.59 7.25-2.81 11-7.68.82 4.06 3.83 5.4 6.94 4.92 4.58-.7 9.12-4.26 12.68-7.81a10.3 10.3 0 0 0 10.42 4.25 16.06 16.06 0 0 0 10.17-6.55c.61 3.3 4.16 4.35 7.87 3.78 4.89-.75 9.76-4.76 13.48-8.58 3.38 3.61 9 5.13 15.76 4.08a28.26 28.26 0 0 0 12.85-5.37c.2-.15.39-.31.58-.46l-.09 1.09c-.16 2.22 1.63 2.15 4.85 1.65 3.61-.56 3.79-1.29 4.22-3l.56-2.18c1.55-6.13 8.31-18.64 12.11-19.23.78-.12 1.18.52 1.13 1.52l-1.21 14.16c-.31 4.44 3.51 5.95 7.7 5.3 4.53-.7 9-4.11 12.66-7.63.17 3.73 3.71 5.11 7.81 4.47a26.1 26.1 0 0 0 12.04-5.43 68.5 68.5 0 0 0 9.56-9.86 2.06 2.06 0 0 0 .31-1.54zm-122 22.09a3.59 3.59 0 0 0-1.87-1.11 1.21 1.21 0 0 0-.9.63c-1 1.85-3.43 4.32-5.08 4.58-2.53.39-4.09-1.27-4.49-3.9-.78-5.07 2.83-10.81 7.6-11.55 3.31-.51 5.58 1.24 5.3 5.27zm37.08-17.78c1.65-.25 2.64.29 2.77 1.17.42 2.73-7 6.07-10.86 7.26.14-4.13 3.96-7.81 8.05-8.44z" transform="translate(-34.73 -58.34)"/><path class="cls-6" d="M316.76 145.09a14.46 14.46 0 0 0-2.37-5c-.46-.43-.94-.26-1.33.4a52 52 0 0 1-7.75 10c-4.18 3.94-7.87 4.6-7.29 1.92l3.88-18.86 5.46-.84a1.83 1.83 0 0 0 1.07-.86 13.2 13.2 0 0 0 2.08-5.91c0-1-.67-1.09-1.54-1l-5.46.84 2.28-11.13c.74-3.61-11.58-10.39-13.53-10.09a1.16 1.16 0 0 0-.91 1.24l-1.88 22.14-2.34.36a1.72 1.72 0 0 0-1.08.77 14.51 14.51 0 0 0-2.16 6c0 .89.76 1.08 1.64.94l3.32-.51-1 11.87c-4.22 6-7.29 8.28-8.7 9.09-1.65 1-1.71 0-1.6-.65l3.83-18.55c1.12-5.06-1.07-8.22-6.72-7.35-5.85.9-11.25 6-14.52 10.72l1.28-6.59c.24-1-1.1-1.93-6.85-1s-6.85 2.15-7 3.17l-1.7 20.32a37.61 37.61 0 0 1-3.88 3.69 18.33 18.33 0 0 1-9.06 4c-4.58.7-8-1-8.92-4.12a14.58 14.58 0 0 0 3.17 1.81 1.67 1.67 0 0 0 .79 0c5.94-.92 16.91-8.79 15.45-18.25-.79-5.17-5.43-8-11.67-7.08-12.48 1.92-20.9 12.7-19.17 23.91a15.3 15.3 0 0 0 .34 1.62 25.08 25.08 0 0 1-5.93 5.52c-1.65 1-1.7 0-1.6-.65l10.81-52.26c.78-4-12.94-11.48-15.09-11.15-.78.12-1 .75-1.09 1.37l-3.26 38.42a12.61 12.61 0 0 0-6.16-.45c-13.16 2-20.62 15.15-19 25.77v.2a23.25 23.25 0 0 1-5.78 5.28c-1.55.94-1.52-.16-1.4-.68l5-24.33c.24-1-.71-2-6.26-1.13s-7.14 2.2-7.19 3.2l-.7 8.39a29.25 29.25 0 0 1-5.89 14.88c-3.3 4.5-6.25 4.76-5.17-.5l4.45-21.64c.26-.94-.51-2-6.07-1.16s-7.34 2.23-7.39 3.23l-1.67 19.76a38.35 38.35 0 0 1-3 3.21c-4.09 3.92-7.87 4.61-7.29 1.92l4-18.87 4.09-.63a1.67 1.67 0 0 0 1.07-.86 14.53 14.53 0 0 0 2.08-5.91c.06-.91-.67-1.09-1.54-1l-4.09.63 2.29-11c.73-3.7-11.68-10.37-13.53-10.09a1.18 1.18 0 0 0-1 1.15l-1.88 22.14-10.24 1.58c5-4.76 8.34-11.26 7.22-18.57-1.42-9.26-11.14-15.35-29-12.6-19.4 3-41 17-38.33 34.24 3.24 21.06 44.95 15.84 46.07 23.15.7 4.58-11.61 7.57-16.38 8.31a28.31 28.31 0 0 1-20.49-4.73 1.14 1.14 0 0 0-1-.24c-.78.12-7.91 6.31-7.56 8.55.45 2.92 12.88 7.2 26.63 5.08 23.69-3.65 32.45-13.48 31.07-22.45-1.86-12.09-40.58-9.52-42.3-20.63-1-6.73 9.09-13.57 21-15.4 9.84-1.52 15.33 1 16 5.22 1 6.72-4.92 10.84-9.72 12.67a1.58 1.58 0 0 0-.57 2.78c2.32 2.14 5.4 4 9.2 3.37l17.84-2.75-1.75 21c-.42 4.36 3.41 6 7.7 5.3a26.33 26.33 0 0 0 12.26-5.28c.75-.61 1.47-1.24 2.16-1.89 1.59 2.83 4.75 4.22 8.78 3.6 3.8-.59 7.25-2.81 11-7.68.82 4.06 3.82 5.4 6.94 4.92 4.58-.7 9.12-4.26 12.68-7.81a10.3 10.3 0 0 0 10.42 4.25 16 16 0 0 0 10.17-6.55c.61 3.3 4.16 4.35 7.87 3.78 4.89-.75 9.76-4.76 13.48-8.58 3.38 3.61 9 5.13 15.76 4.08a28.25 28.25 0 0 0 12.84-5.37c.2-.15.39-.31.59-.47l-.09 1.09c-.16 2.22 1.63 2.15 4.84 1.65 3.61-.56 3.8-1.29 4.22-3l.56-2.18c1.55-6.13 8.31-18.64 12.11-19.23.78-.12 1.18.52 1.13 1.52l-1.21 14.16c-.31 4.44 3.51 5.95 7.7 5.3 4.53-.7 9-4.11 12.66-7.63.17 3.73 3.71 5.11 7.81 4.47a26.11 26.11 0 0 0 12.15-5.36 68.52 68.52 0 0 0 9.56-9.86 2.07 2.07 0 0 0 .25-1.59zm-122 22.09a3.57 3.57 0 0 0-1.87-1.11 1.22 1.22 0 0 0-.9.64c-1 1.85-3.43 4.32-5.08 4.58-2.53.39-4.09-1.27-4.49-3.9-.78-5.07 2.82-10.81 7.6-11.55 3.31-.51 5.58 1.24 5.3 5.27zm37.08-17.78c1.66-.26 2.64.29 2.77 1.17.42 2.73-7 6.07-10.86 7.26.13-4.13 3.96-7.83 8.05-8.44z" transform="translate(-34.73 -58.34)"/><path class="cls-4" d="M114.07 233.52a1.06 1.06 0 0 0-.41 1.86 21 21 0 0 0 3.63 2.83 2.28 2.28 0 0 0 1.42.18c4.87-.75 27.08-10.76 24.67-25.75-1.17-7.6-10.87-12.9-28.7-10.15-30.61 4.71-50.4 31.71-47.13 53 2.34 15.21 14.11 24.87 34.77 21.69 14-2.16 26.6-9.38 33.07-16.57a2 2 0 0 0 .54-1.68 8 8 0 0 0-2.85-4.25c-.45-.33-1.05-.34-1.84.38-7.53 6.85-14.64 11.83-26.64 13.68-9.16 1.41-18.54-3.13-20.24-14.15-2.66-17.25 11.72-33.44 29.07-36.11 6.53-1 13.35-.76 14 3.24.89 5.82-10 10.28-13.36 11.8zM227.85 214.9c5.46-.84 9.85-6 9.15-10.59-.49-3.21-3.5-5.25-7.5-4.63-5.36.83-9.74 6.09-9 10.67.5 3.22 3.5 5.15 7.35 4.55z" transform="translate(-34.73 -58.34)"/><path class="cls-4" d="M310.74 228.29c-.43-1.53-1.18-3.81-2.26-4.94-.48-.52-1-.35-1.35.31a42.59 42.59 0 0 1-8.82 10.14 18.33 18.33 0 0 1-9.06 4c-4.58.71-8-1-8.92-4.11a14.6 14.6 0 0 0 3.17 1.8 1.64 1.64 0 0 0 .79 0c5.94-.92 16.91-8.79 15.45-18.25-.79-5.17-5.43-8-11.67-7.08-12.48 1.92-20.9 12.7-19.17 23.91.07.44.16.86.26 1.28a36.45 36.45 0 0 1-3.71 3.54 18.58 18.58 0 0 1-9.06 4c-5.07.78-9.16.11-9.94-5-.69-4.48 2.72-8.9 7.59-9.65 2.44-.38 3.81.11 4 1.18.21 1.37-1.27 2.09-1.11 3.16s2.39.63 3.56.45a17.09 17.09 0 0 0 2.32-.45c2.64-1 4.83-7.53 4.27-11.14-.65-4.19-4.43-7.4-12.43-6.17-12 1.85-20.68 12.17-18.86 24 .07.47.17.91.27 1.35a24.58 24.58 0 0 1-6.16 5.74c-1.65 1-1.6-.05-1.6-.65l5.22-25.06c.24-1-.71-2-6.46-1.1s-7.24 2.21-7.38 3.23L218.14 241a8.21 8.21 0 0 1-5.8 3.46 24.35 24.35 0 0 0 1.83-12.75c-.79-5.17-3.68-9.61-9.43-8.73a9.64 9.64 0 0 0-4.91 2.45c-2.34-2.23-5.83-4.79-7.39-4.55-3.31.51-14.7 14-12.71 27q.11.71.27 1.39a25.4 25.4 0 0 1-6.07 5.69c-1.65 1-1.7 0-1.6-.65l3.83-18.55c1.09-5.26-1.26-8.19-6.82-7.34-5.85.9-11.25 6-14.51 10.72l7-33.81c.88-4-12.94-11.48-15-11.16a1.48 1.48 0 0 0-1.19 1.38l-5.82 69.75c-.26 2.24 1.53 2.16 4.85 1.65 3.61-.56 3.7-1.27 4.22-3l.47-2.17c1.55-6.13 8.31-18.64 12.2-19.24.78-.12 1.18.52 1 1.54l-1.12 14.14c-.41 4.46 3.51 5.95 7.7 5.3 4.9-.75 9.77-4.68 13.51-8.48 2.67 3.39 7 5.32 13.2 4.37 4.78-.74 9.26-4 12.67-8.44a22.18 22.18 0 0 0 5.16-.2 11.33 11.33 0 0 0 3.72-1.3v.14c-.31 4.44 3.61 5.93 7.8 5.28 4.82-.74 9.69-4.65 13.45-8.44 3.35 4.16 9.15 5 16.48 3.83a28.52 28.52 0 0 0 12.87-5.43 39.87 39.87 0 0 0 4.24-3.78c3.38 3.62 9 5.14 15.77 4.09a28.25 28.25 0 0 0 12.84-5.37 53.37 53.37 0 0 0 9.64-10 1.47 1.47 0 0 0 .25-1.5zm-113.88 23.82c-2.92.45-5.41-1.46-6-5.07-.59-3.8 1.53-8.22 4.54-12a20.49 20.49 0 0 0 .19 2.57c.89 5.75 3.55 9.43 7.16 11.47a12 12 0 0 1-5.89 3.03zm10.07-9.73a9.67 9.67 0 0 1-3-5.63 2.19 2.19 0 0 1 1.57-2.74c.78-.12 1.55.36 1.78 1.82a14.91 14.91 0 0 1-.34 6.54zM288.17 223c1.65-.25 2.64.29 2.77 1.17.42 2.73-7 6.08-10.86 7.26.17-4.14 4-7.82 8.09-8.43z" transform="translate(-34.73 -58.34)"/><path class="cls-7" d="M128.89 160.14l2.53-.39a1.67 1.67 0 0 0 1.06-.86l.19-.31-3.57.55zM204.6 223.62l-.11.07.1-.08" transform="translate(-34.73 -58.34)"/><path class="cls-6" d="M117 233.08a1.06 1.06 0 0 0-.41 1.86 21 21 0 0 0 3.63 2.83 2.25 2.25 0 0 0 1.42.18c4.87-.75 27.08-10.76 24.67-25.75-1.17-7.6-10.87-12.89-28.71-10.15-30.61 4.71-50.4 31.71-47.13 53 2.34 15.21 14.11 24.87 34.77 21.69 14-2.16 26.6-9.38 33.07-16.57a2 2 0 0 0 .54-1.68 8 8 0 0 0-2.85-4.29c-.45-.33-1.05-.34-1.84.38-7.53 6.85-14.65 11.83-26.63 13.68-9.16 1.41-18.55-3.13-20.24-14.15C84.61 236.86 99 220.68 116.33 218c6.53-1 13.35-.76 14 3.24.87 5.85-10.01 10.32-13.33 11.84zM230.74 214.46c5.46-.84 9.85-6 9.15-10.59-.5-3.21-3.5-5.25-7.5-4.63-5.36.83-9.74 6.09-9 10.67.46 3.21 3.45 5.15 7.35 4.55z" transform="translate(-34.73 -58.34)"/><path class="cls-6" d="M313.63 227.84c-.44-1.53-1.19-3.81-2.26-4.94-.48-.52-1-.35-1.35.31a42.66 42.66 0 0 1-8.82 10.14 18.35 18.35 0 0 1-9.06 4c-4.58.7-8-1-8.92-4.12a14.68 14.68 0 0 0 3.18 1.77 1.67 1.67 0 0 0 .79 0c5.95-.92 16.91-8.79 15.45-18.25-.8-5.17-5.43-8-11.67-7.08-12.48 1.92-20.9 12.7-19.17 23.91.07.44.16.86.26 1.28a36.59 36.59 0 0 1-3.71 3.54 18.57 18.57 0 0 1-9.07 4c-5.07.78-9.16.11-9.94-5-.69-4.48 2.72-8.9 7.59-9.65 2.44-.38 3.81.11 4 1.18.21 1.37-1.27 2.09-1.11 3.16s2.39.63 3.56.45a17.12 17.12 0 0 0 2.32-.46c2.64-1 4.83-7.53 4.27-11.14-.65-4.19-4.43-7.4-12.43-6.17-12 1.84-20.68 12.17-18.86 24 .07.47.17.91.27 1.35a24.58 24.58 0 0 1-6.16 5.75c-1.65 1-1.6-.05-1.6-.65l5.22-25.05c.24-1-.71-2-6.46-1.1s-7.24 2.21-7.39 3.23L221 240.53a8.22 8.22 0 0 1-5.8 3.46 24.36 24.36 0 0 0 1.83-12.76c-.79-5.17-3.68-9.61-9.43-8.73a9.63 9.63 0 0 0-4.91 2.45c-2.34-2.23-5.83-4.79-7.39-4.55-3.31.51-14.7 14-12.71 27q.11.71.27 1.39a25.43 25.43 0 0 1-6.07 5.69c-1.65 1-1.7 0-1.6-.65l3.83-18.55c1.09-5.26-1.26-8.19-6.82-7.34-5.85.9-11.25 6-14.51 10.72l7-33.8c.88-4-12.94-11.48-15-11.17a1.48 1.48 0 0 0-1.19 1.38l-5.82 69.75c-.26 2.24 1.53 2.16 4.84 1.65 3.61-.56 3.7-1.27 4.22-3l.46-2.17c1.55-6.13 8.31-18.64 12.21-19.24.78-.12 1.18.52 1 1.54l-1.11 14.14c-.41 4.46 3.51 5.94 7.7 5.3 4.9-.75 9.77-4.69 13.51-8.48 2.67 3.39 7 5.32 13.2 4.37 4.78-.74 9.26-4 12.67-8.44a22.31 22.31 0 0 0 5.16-.2 11.34 11.34 0 0 0 3.72-1.3v.14c-.31 4.44 3.61 5.93 7.8 5.29 4.82-.74 9.69-4.65 13.44-8.44 3.35 4.16 9.14 5 16.48 3.83a28.57 28.57 0 0 0 12.84-5.37 40 40 0 0 0 4.24-3.78c3.38 3.62 9 5.14 15.77 4.09a28.23 28.23 0 0 0 12.84-5.37 53.46 53.46 0 0 0 9.64-10 1.48 1.48 0 0 0 .32-1.54zm-113.88 23.82c-2.92.45-5.41-1.46-6-5.07-.59-3.8 1.53-8.22 4.54-12a20.52 20.52 0 0 0 .19 2.57c.89 5.75 3.55 9.43 7.16 11.47a12 12 0 0 1-5.89 3.03zm10.08-9.73a9.66 9.66 0 0 1-3-5.63 2.19 2.19 0 0 1 1.57-2.74c.78-.12 1.55.36 1.78 1.82a14.91 14.91 0 0 1-.35 6.55zm81.23-19.39c1.65-.26 2.64.29 2.77 1.17.42 2.73-7 6.08-10.86 7.26.17-4.12 4.03-7.81 8.09-8.43z" transform="translate(-34.73 -58.34)"/><path class="cls-7" d="M289 233.75a1.71 1.71 0 0 1-.79 0A14.82 14.82 0 0 1 285 232a5.31 5.31 0 0 0 2.24 3 19.83 19.83 0 0 0 8.24-4 17.92 17.92 0 0 1-6.52 2.74M292.3 226.33c2-1.25 3.51-2.63 3.31-3.89-.14-.88-1.12-1.42-2.77-1.17a10 10 0 0 0-5 2.4 9.47 9.47 0 0 1 3.2-1.13c1.65-.26 2.64.29 2.77 1.17s-.5 1.75-1.53 2.63M265.15 231.33c-1.17.18-3.4.62-3.56-.45s1.32-1.8 1.11-3.17c-.16-1.07-1.54-1.56-4-1.18a9.28 9.28 0 0 0-4.83 2.3 9.28 9.28 0 0 1 3.05-1c2.44-.38 3.81.11 4 1.18.21 1.37-1.28 2.09-1.11 3.17s2.39.63 3.56.45a16.71 16.71 0 0 0 2.32-.46 3.81 3.81 0 0 0 1.49-1.18c-.56.15-1.29.26-2 .38M225.13 208.65c-.44-2.84 1.08-5.95 3.58-8.09-3.51 2-5.89 5.89-5.36 9.35.5 3.22 3.49 5.15 7.39 4.55a11.37 11.37 0 0 0 5.6-2.62 11.08 11.08 0 0 1-3.82 1.36c-3.9.6-6.89-1.33-7.39-4.55M116.34 218c6.53-1 13.35-.76 14 3.24.38 2.48-1.36 4.71-3.74 6.57 3.22-2.08 6-4.77 5.52-7.83-.61-4-7.44-4.24-14-3.24a35.72 35.72 0 0 0-16 6.87 35.51 35.51 0 0 1 14.22-5.61M194.61 220.67c-4 2-13.84 14.61-12 26.75q.11.71.27 1.39a32.06 32.06 0 0 1-4.38 4.47h.09a25.48 25.48 0 0 0 6.06-5.69c-.11-.46-.2-.92-.27-1.39-1.63-10.59 5.66-21.54 10.2-25.49M248.3 218.31c-6.82 4.36-10.92 12-9.62 20.48.07.47.17.91.27 1.35a32.09 32.09 0 0 1-4.38 4.49 24.64 24.64 0 0 0 6.16-5.75c-.1-.44-.19-.88-.27-1.35a20.29 20.29 0 0 1 7.84-19.22M281.59 213.21c-7 4.48-11 12.3-9.78 20.37.07.44.16.86.26 1.28a36.44 36.44 0 0 1-3.69 3.53c.59-.38 1.18-.78 1.76-1.24a36.27 36.27 0 0 0 3.71-3.54c-.1-.42-.19-.84-.26-1.28a20.41 20.41 0 0 1 8-19.11M135.16 254a2.11 2.11 0 0 0-1 .58 81.72 81.72 0 0 1-6.38 5.31 70 70 0 0 0 7.4-5.88M123.38 236.69a2.26 2.26 0 0 1-1.43-.18 21.28 21.28 0 0 1-3.63-2.83 1.15 1.15 0 0 1-.36-1l-1 .45a1.07 1.07 0 0 0-.41 1.86 21.3 21.3 0 0 0 3.63 2.84 2.29 2.29 0 0 0 1.43.18c2.38-.37 8.89-2.94 14.65-7.23-5.27 3.53-10.73 5.64-12.87 6" transform="translate(-34.73 -58.34)"/><path class="cls-7" d="M107 275.44c-20.67 3.18-32.43-6.48-34.78-21.69-2.2-14.27 6-31.13 20.92-42.1-16 10.9-25 28.52-22.7 43.36 2.34 15.21 14.11 24.87 34.78 21.69a62.63 62.63 0 0 0 27-11.14 63 63 0 0 1-25.22 9.88M149.33 265.23c-3.31.51-5.1.59-4.84-1.65l5.82-69.76v-.07a1.93 1.93 0 0 0-.61-.05 1.47 1.47 0 0 0-1.18 1.38l-5.82 69.76c-.26 2.23 1.53 2.16 4.84 1.65 2.49-.39 3.31-.85 3.74-1.68a14.23 14.23 0 0 1-2 .42M259.81 248.52c-7.34 1.13-13.13.33-16.48-3.83-.5.51-1 1-1.56 1.51 3.38 3.94 9.08 4.69 16.26 3.58a28.55 28.55 0 0 0 12.84-5.37l.27-.22a28.34 28.34 0 0 1-11.34 4.33M292.66 243.46c-6.79 1-12.39-.48-15.77-4.09-.49.5-1 1-1.53 1.49 3.4 3.44 8.88 4.89 15.52 3.87a28.29 28.29 0 0 0 12.85-5.37l.2-.16a28.35 28.35 0 0 1-11.27 4.27M229.89 253.12c-4.19.65-8.11-.85-7.8-5.29v-.13a11.4 11.4 0 0 1-3.72 1.3 22.2 22.2 0 0 1-5.16.19c-.34.45-.71.87-1.07 1.3a22.17 22.17 0 0 0 4.46-.23 11.29 11.29 0 0 0 3.72-1.3v.14c-.31 4.44 3.61 5.93 7.8 5.29a20 20 0 0 0 8.62-4.15 17.74 17.74 0 0 1-6.84 2.9M173.84 261.75c-4.19.65-8.11-.85-7.7-5.3l1.12-14.14c.14-1-.26-1.66-1-1.54a5 5 0 0 0-2.43 1.46 2.71 2.71 0 0 1 .65-.2c.78-.12 1.18.52 1 1.54l-1.12 14.14c-.41 4.45 3.51 5.94 7.7 5.3a20 20 0 0 0 8.66-4.16 17.83 17.83 0 0 1-6.88 2.9M200.55 257.64c-6.16.95-10.53-1-13.2-4.36-.5.5-1 1-1.55 1.51 2.68 3.23 7 5 13 4.11a17.51 17.51 0 0 0 8.07-3.76 16.42 16.42 0 0 1-6.29 2.5M207.45 247.4c-3.61-2-6.27-5.72-7.16-11.47a20.94 20.94 0 0 1-.2-2.56 29.13 29.13 0 0 0-1.73 2.39c0 .47.07 1 .15 1.43.89 5.75 3.55 9.43 7.16 11.47l-.41.34a14.07 14.07 0 0 0 2.19-1.6M211.61 240.67a14.94 14.94 0 0 0 .39-6.55c-.23-1.46-1-1.94-1.78-1.82a1.89 1.89 0 0 0-1.44 1.25c.66 0 1.25.58 1.45 1.83a15.72 15.72 0 0 1 .11 3.83 9 9 0 0 0 1.28 1.46M224.35 221a1.44 1.44 0 0 1 .25-.62c-1.44.63-2 1.3-2 1.88l-1.6 18.28a11.25 11.25 0 0 1-1.3 1.38 9.92 9.92 0 0 0 3.07-2.64zM159.81 236l-.29 1.42a32.46 32.46 0 0 1 6.55-7 29 29 0 0 0-6.26 5.56M311.25 222.78c-.44-.37-.86-.18-1.22.42a42.62 42.62 0 0 1-8.81 10.14l-.16.12a19.88 19.88 0 0 0 1.94-1.38 42.47 42.47 0 0 0 8.26-9.3M217.64 166.23c-.49.5-1 1-1.52 1.5 3.41 3.42 8.87 4.86 15.5 3.84a28.25 28.25 0 0 0 12.85-5.37l.2-.16a28.29 28.29 0 0 1-11.27 4.27c-6.79 1-12.37-.48-15.76-4.08M268.4 158.43l1.21-14.16c0-1-.35-1.64-1.13-1.52a5 5 0 0 0-2.37 1.44 2.55 2.55 0 0 1 .59-.18c.78-.12 1.18.52 1.13 1.52l-1.21 14.16c-.31 4.44 3.51 5.95 7.7 5.3a20 20 0 0 0 8.65-4.15 17.81 17.81 0 0 1-6.87 2.89c-4.19.64-8-.86-7.7-5.3M196.29 171a18.23 18.23 0 0 1-1.61 1.89c.92 2.8 4.25 3.68 7.7 3.14a19.46 19.46 0 0 0 8.46-4.07 17.28 17.28 0 0 1-6.68 2.81c-3.7.57-7.26-.48-7.87-3.78M194.94 164.86a4.85 4.85 0 0 1 1.56 1.05l.56-6.07c.28-4-2-5.78-5.3-5.27a8 8 0 0 0-4.12 2.06 7.32 7.32 0 0 1 2.34-.8c3.31-.51 5.58 1.24 5.3 5.27zM212.54 160.43a15.58 15.58 0 0 0 .34 1.63 31.85 31.85 0 0 1-4.24 4.31h.1a25.21 25.21 0 0 0 5.93-5.52 14.83 14.83 0 0 1-.34-1.63 20.4 20.4 0 0 1 8-19.11c-7 4.48-11 12.3-9.78 20.37M233.58 148.13a9.94 9.94 0 0 0-5 2.4 9.48 9.48 0 0 1 3.2-1.14c1.66-.26 2.64.29 2.77 1.17s-.5 1.75-1.53 2.63c2-1.24 3.5-2.63 3.31-3.89-.14-.88-1.12-1.42-2.77-1.17M115.94 161.15L98.1 163.9c-3.8.59-6.88-1.23-9.2-3.37a1.65 1.65 0 0 1-.51-1.81l-.7.28a1.58 1.58 0 0 0-.57 2.78c2.32 2.14 5.4 4 9.2 3.37l17.84-2.75-1.75 21c-.43 4.36 3.41 6 7.7 5.3a26.43 26.43 0 0 0 12-5.12 27.08 27.08 0 0 1-10.27 3.86c-4.29.66-8.13-.94-7.7-5.3zM133.6 174.13a39 39 0 0 1-3 3.21c-.45.43-.89.81-1.32 1.16a18 18 0 0 0 3.1-2.42 38.57 38.57 0 0 0 3-3.2l1.67-19.76a1.17 1.17 0 0 1 .21-.6 6.27 6.27 0 0 0-1.15.64 16.12 16.12 0 0 1-1 2.83zM192.86 166.06a1.21 1.21 0 0 0-.9.64 12.55 12.55 0 0 1-2.45 3 11.32 11.32 0 0 0 3.77-3.54 1 1 0 0 0-.43-.11M156.08 176.23c-.53.7-1.06 1.32-1.59 1.91a5.66 5.66 0 0 0 6.75 4.27 19.34 19.34 0 0 0 8.4-4 17.18 17.18 0 0 1-6.63 2.77c-3.12.48-6.12-.85-6.95-4.92M145.09 183.91c-4 .62-7.19-.77-8.77-3.6-.53.49-1.09 1-1.65 1.44 1.62 2.7 4.72 4 8.65 3.42a13.64 13.64 0 0 0 6.66-3.11 13 13 0 0 1-4.89 1.85M246.83 164.47l-.58.47c-.39.29-.79.57-1.2.84l-.09 1c-.16 2.22 1.63 2.14 4.84 1.65 2.5-.38 3.36-.85 3.79-1.69a14.28 14.28 0 0 1-2 .43c-3.22.49-5 .57-4.84-1.65zM93.25 155.87c3.61-2.25 6.71-5.8 5.94-10.81-.65-4.19-6.13-6.74-16-5.22-6.36 1-12.21 3.39-16.12 6.46a37.55 37.55 0 0 1 14.34-5.2c9.85-1.52 15.33 1 16 5.22s-1.39 7.31-4.16 9.55" transform="translate(-34.73 -58.34)"/><path class="cls-7" d="M90.53 182.62a3.3 3.3 0 0 1-1.36 2.92c2-1.18 3.38-2.59 3.14-4.18-1.13-7.31-42.84-2.09-46.08-23.14-1.41-9.14 4-17.37 12.27-23.53-9.26 6.28-15.55 15-14 24.79 3.24 21.06 45 15.83 46.08 23.14M96.11 190.76c-5 3.29-12.46 6-22.64 7.57-13.75 2.12-26.18-2.16-26.63-5.08-.25-1.63 3.44-5.33 5.78-7.29-.82.16-7.9 6.31-7.55 8.54.45 2.92 12.88 7.2 26.63 5.08 11.45-1.76 19.41-5 24.42-8.83M116.57 153.57l1.86-22a2.08 2.08 0 0 0-.74-.09 1.18 1.18 0 0 0-1 1.15l-1.79 21.15zM171.64 168.83a30 30 0 0 1-4 4 23.32 23.32 0 0 0 5.75-5.26v-.2c-1.15-7.46 2.19-16.15 8.84-21.37-7.82 5-11.86 14.53-10.62 22.63v.2M147.74 176.43a9.49 9.49 0 0 0 3.48-3.24 29.22 29.22 0 0 0 5.89-14.88l.71-8.39a1.23 1.23 0 0 1 .22-.63c-1.48.64-2 1.32-2 1.89l-.7 8.39a29.23 29.23 0 0 1-5.89 14.88 15.65 15.65 0 0 1-1.71 2M198.52 142l3.26-38.43a2.11 2.11 0 0 0-.7-.06c-.78.12-1 .75-1.09 1.37l-3.12 36.75a11.39 11.39 0 0 1 1.64.42M175.7 173.34c-.51.5-1 1-1.58 1.5a10.27 10.27 0 0 0 10.22 4 14.69 14.69 0 0 0 7.05-3.27 14.11 14.11 0 0 1-5.27 2 10.29 10.29 0 0 1-10.42-4.25M291.24 126.67l1.87-22a2.43 2.43 0 0 0-.86-.11 1.17 1.17 0 0 0-.91 1.24l-1.79 21.15zM285.52 136l3.32-.51-1 11.87a39.7 39.7 0 0 1-6.91 7.82c1.41-.82 4.48-3.14 8.69-9.08l1-11.87-3.32.51c-.88.14-1.6-.05-1.64-.94a14.32 14.32 0 0 1 1.91-5.59l-.45.07a1.72 1.72 0 0 0-1.08.77 14.52 14.52 0 0 0-2.17 6c0 .89.77 1.08 1.64.94M241.95 160.2l-.16.12a20.29 20.29 0 0 0 1.94-1.38 37.48 37.48 0 0 0 3.88-3.68l1.7-20.33a1.67 1.67 0 0 1 .27-.68c-1.53.65-2 1.34-2 1.94l-1.7 20.33a37.7 37.7 0 0 1-3.88 3.68M303.47 133.26l3.89-.6a1.82 1.82 0 0 0 1.07-.86l.19-.32-4.93.76zM296.56 160.58c-4.1.63-7.64-.75-7.81-4.47-.56.54-1.14 1.08-1.74 1.61.38 3.46 3.81 4.73 7.78 4.12a26.18 26.18 0 0 0 11.82-5.11 26.35 26.35 0 0 1-10 3.85M314.31 140c-.44-.34-.88-.17-1.26.45a51.92 51.92 0 0 1-7.75 10c-.45.42-.89.8-1.32 1.15a19.22 19.22 0 0 0 3.1-2.41 50.4 50.4 0 0 0 7.22-9.17" transform="translate(-34.73 -58.34)"/></svg>