<svg id="Layer_1" data-name="Layer 1" xmlns="http://www.w3.org/2000/svg" viewBox="0 0 282.2 282.2"><defs><style>.cls-1{fill:#3a9043}.cls-2{fill:#fff}.cls-3{opacity:.7}.cls-4{opacity:.6}.cls-5{opacity:.5}</style></defs><title>Tu-Taco</title><circle class="cls-1" cx="141.1" cy="141.1" r="141.1"/><path class="cls-2" d="M144 276.42a132.75 132.75 0 0 1-51.66-255A132.75 132.75 0 0 1 195.66 266 131.89 131.89 0 0 1 144 276.42zm0-264.71a132 132 0 0 0-51.38 253.6A132 132 0 0 0 195.38 22.08 131.16 131.16 0 0 0 144 11.71z" transform="translate(-2.9 -2.6)"/><g class="cls-3"><path class="cls-2" d="M79.24 223.58h-9.77v-80.44h-15v-9.77h39.76v9.77h-15zm-21-84.06h14.84V220h2.54v-80.48h15v-2.41H58.23zM115.67 133.58l20.43 90h-10l-5.61-25.77h-17.1l-6 25.77h-10l20.57-90zm13.49 86.27h2.4l-18.83-82.66h-1.87l-19 82.66h2.54l5.74-25.64h23.24zm-17.36-76.52l11.08 48.48h-22.17zm0 16.29l-6.41 28.58h12.82zM182.38 192.74c0 16.83-2 31.65-22 31.65-15.49 0-22.17-11-22.17-25.24v-41.27c0-14.29 6.81-25.24 22.3-25.24 17.89 0 21.9 11 21.9 31.65h-9.88c0-11.08-.53-21.9-12-21.9-8.81 0-12.42 7.21-12.42 15.49v41.26c0 8.28 3.47 15.62 12.29 15.62 10.55 0 12.15-9.48 12.15-22zm-40.46 6.41c0 12.15 5.48 21.63 18.43 21.63 15.09 0 18.29-11.48 18.29-24.3h-2.4c0 11-2.4 21.9-15.89 21.9-11.35 0-16-9.08-16-19.23v-41.27c0-10.15 4.81-19.23 16.16-19.23 13.49 0 15.76 10.82 15.76 21.9h2.4c0-14.82-5.07-24.17-18.16-24.17s-18.56 9.35-18.56 21.5zM233.52 199.15c0 14.42-6.28 25.24-22 25.24-15.49 0-22.17-11.08-22.17-25.24v-41.27c0-13.62 6.94-25.24 22.17-25.24s22 11.62 22 25.24zm-40.46 0c0 12 5.48 21.63 18.43 21.63 13.22 0 18.3-9.35 18.3-21.63v-41.27c0-11.62-5.48-21.77-18.3-21.77s-18.43 10.15-18.43 21.77zm2.4-40.06c0-10.15 4.27-20.3 16-20.3 12.15 0 15.89 9.88 15.89 20.43v39.26c0 10.68-3.87 19.76-15.89 19.76s-16-9.61-16-20.16zm28.18.13c0-8.55-2.8-16.69-12.15-16.69-9.08 0-12.42 8.15-12.42 16.56v39c0 8.55 3.2 16.56 12.42 16.56s12.15-7.48 12.15-16.16z" transform="translate(-2.9 -2.6)"/></g><g class="cls-4"><path class="cls-2" d="M140.38 14.93v53.4"/><path class="cls-2" d="M143.27 71.54a.61.61 0 0 1-.61-.61v-53.4a.61.61 0 1 1 1.22 0v53.4a.61.61 0 0 1-.61.61z" transform="translate(-2.9 -2.6)"/></g><path class="cls-2" d="M162.61 19.71l-5.97 47.16"/><path class="cls-2" d="M159.54 70.08h-.08a.61.61 0 0 1-.53-.68l6-47.16a.61.61 0 0 1 1.21.15l-6 47.16a.61.61 0 0 1-.6.53z" transform="translate(-2.9 -2.6)"/><g class="cls-4"><path class="cls-2" d="M183.45 22.27l-13.89 52.74"/><path class="cls-2" d="M172.46 78.22h-.16a.61.61 0 0 1-.43-.74l13.88-52.74a.61.61 0 0 1 1.18.31l-13.88 52.72a.61.61 0 0 1-.59.45z" transform="translate(-2.9 -2.6)"/></g><path class="cls-2" d="M203.19 32.87l-19.74 38.75"/><path class="cls-2" d="M186.35 74.83a.61.61 0 0 1-.54-.89l19.74-38.75a.61.61 0 1 1 1.09.55L186.89 74.5a.61.61 0 0 1-.54.33z" transform="translate(-2.9 -2.6)"/><g class="cls-4"><path class="cls-2" d="M214.52 55.54L195.51 78.2"/><path class="cls-2" d="M198.41 81.41a.61.61 0 0 1-.47-1l19-22.66a.61.61 0 1 1 .93.78l-19 22.66a.61.61 0 0 1-.46.22z" transform="translate(-2.9 -2.6)"/></g><path class="cls-2" d="M236.63 58.67L197.34 99.4"/><path class="cls-2" d="M200.24 102.61a.61.61 0 0 1-.44-1l39.29-40.73a.61.61 0 0 1 .88.85l-39.29 40.73a.61.61 0 0 1-.44.15z" transform="translate(-2.9 -2.6)"/><g class="cls-4"><path class="cls-2" d="M246.69 76.01l-49.35 43.13"/><path class="cls-2" d="M200.24 122.35a.61.61 0 0 1-.4-1.07l49.35-43.13a.61.61 0 0 1 .8.92l-49.35 43.13a.61.61 0 0 1-.4.15z" transform="translate(-2.9 -2.6)"/></g><path class="cls-2" d="M254.36 91.73l-35.09 29.97"/><path class="cls-2" d="M222.17 124.91a.61.61 0 0 1-.4-1.07l35.09-30a.61.61 0 1 1 .79.93l-35.09 30a.61.61 0 0 1-.39.14z" transform="translate(-2.9 -2.6)"/><path class="cls-2" d="M121.54 19.71l5.5 46.06"/><path class="cls-2" d="M129.94 69a.61.61 0 0 1-.6-.54l-5.5-46.06a.61.61 0 1 1 1.21-.14l5.5 46.06a.61.61 0 0 1-.55.68z" transform="translate(-2.9 -2.6)"/><g class="cls-4"><path class="cls-2" d="M100.71 22.27l12.99 51.91"/><path class="cls-2" d="M116.6 77.39a.61.61 0 0 1-.59-.46L103 25a.61.61 0 1 1 1.18-.3l13 51.91a.61.61 0 0 1-.44.74z" transform="translate(-2.9 -2.6)"/></g><path class="cls-2" d="M80.97 32.87l19.74 38.75"/><path class="cls-2" d="M103.6 74.83a.61.61 0 0 1-.54-.33L83.32 35.75a.61.61 0 0 1 1.09-.55l19.74 38.75a.61.61 0 0 1-.54.89z" transform="translate(-2.9 -2.6)"/><g class="cls-4"><path class="cls-2" d="M69.63 55.54L88.64 78.2"/><path class="cls-2" d="M91.54 81.41a.61.61 0 0 1-.47-.22l-19-22.66a.61.61 0 0 1 .93-.78l19 22.66a.61.61 0 0 1-.47 1z" transform="translate(-2.9 -2.6)"/></g><path class="cls-2" d="M46.57 57.68L86.81 99.4"/><path class="cls-2" d="M89.71 102.61a.61.61 0 0 1-.44-.19L49 60.7a.61.61 0 1 1 .88-.85l40.25 41.72a.61.61 0 0 1-.44 1z" transform="translate(-2.9 -2.6)"/><g class="cls-4"><path class="cls-2" d="M37.47 76.01l49.34 43.13"/><path class="cls-2" d="M89.71 122.35a.61.61 0 0 1-.4-.15L40 79.06a.61.61 0 1 1 .8-.92l49.35 43.13a.61.61 0 0 1-.4 1.07z" transform="translate(-2.9 -2.6)"/></g><path class="cls-2" d="M29.79 91.73l35.09 29.97"/><path class="cls-2" d="M67.78 124.91a.61.61 0 0 1-.4-.15l-35.09-30a.61.61 0 1 1 .79-.93l35.09 30a.61.61 0 0 1-.4 1.07zM131.7 82h4.46c2.18 0 5.7 0 6.67-.06a.89.89 0 0 1 .63 1.51.78.78 0 0 1-.57.25c-1 0-4.51.06-6.73.06h-1.57q0 9.62-.19 24.08-.19 13.08-.19 17.73h1.51a1 1 0 0 1 .6.22.92.92 0 0 1 .35.6 1 1 0 0 1-.25.66.81.81 0 0 1-.63.28l-1.07.06-1.45-.06h-.63a20.15 20.15 0 0 0-2.07.06.89.89 0 0 1-.6-.25.81.81 0 0 1-.28-.63.86.86 0 0 1 .88-.88 16.33 16.33 0 0 1 1.89-.06q0-4.65.19-17.73.19-14.52.19-24.08h-1.14c-1.38 0-4.9-.06-6.67-.06a.86.86 0 0 1-.88-.88.89.89 0 0 1 .25-.6.81.81 0 0 1 .6-.22h6.7zM160 120.87a7.38 7.38 0 0 0 .68 3.75 4.93 4.93 0 0 0 2.64 1.72.83.83 0 0 1 .55.8.91.91 0 0 1-.31.71.83.83 0 0 1-.8.15 5.64 5.64 0 0 1-4-3.44l-.12-.43q-1.66 3.44-6 3.44-5.22 0-6.51-6.88a43.78 43.78 0 0 1-.55-7.49q0-3.25.18-8.6l.12-5.28a14.68 14.68 0 0 1-1.54-.06.7.7 0 0 1-.55-.31 1.05 1.05 0 0 1-.25-.68.73.73 0 0 1 .28-.55.94.94 0 0 1 .64-.25q2.46.12 5.1.12a.84.84 0 0 1 .86.86.94.94 0 0 1-.25.64.79.79 0 0 1-.61.28h-2l-.12 5.28q-.18 5.16-.18 8.29a50.94 50.94 0 0 0 .49 7.43 8.79 8.79 0 0 0 1.69 4.11 4 4 0 0 0 3.16 1.29 5.11 5.11 0 0 0 3.19-.86 5.6 5.6 0 0 0 1.72-2.89 26.07 26.07 0 0 0 .77-5.13q.21-3.16.34-10V105q0-1.35.06-2 0-2.7.06-3.87h-1.6a.82.82 0 0 1-.58-.28.88.88 0 0 1-.28-.64.79.79 0 0 1 .28-.61.87.87 0 0 1 .58-.25h5a.84.84 0 0 1 .86.86.94.94 0 0 1-.25.64.79.79 0 0 1-.61.28h-1.66q-.06 1.17-.06 3.93-.06.61-.06 2v1.78q-.06 6-.31 9.34a3.7 3.7 0 0 1-.06.8 1.39 1.39 0 0 1 .06.43q-.05 2.72-.05 3.46zM152 93l1.83-4.63s0-.85 1.06-.57l1.79.53s1 .32.2 1.18c0 0-3.17 3.53-3.49 3.49a4.13 4.13 0 0 1-1.39 0z" transform="translate(-2.9 -2.6)"/><g class="cls-5"><path class="cls-2" d="M143.38 230.13v34.13"/><path class="cls-2" d="M146.28 267.23a.37.37 0 0 1-.37-.37v-34.13a.37.37 0 1 1 .73 0v34.14a.37.37 0 0 1-.36.36z" transform="translate(-2.9 -2.6)"/></g><path class="cls-2" d="M148.46 226.64l9.38 40.27"/><path class="cls-2" d="M160.74 269.87a.37.37 0 0 1-.36-.28L151 229.32a.37.37 0 1 1 .71-.17l9.37 40.27a.37.37 0 0 1-.27.44z" transform="translate(-2.9 -2.6)"/><path class="cls-2" d="M137.7 226.64l-5.29 41.07"/><path class="cls-2" d="M135.3 270.67a.37.37 0 0 1-.32-.41l5.29-41.07a.37.37 0 0 1 .73.09l-5.29 41.07a.37.37 0 0 1-.41.32z" transform="translate(-2.9 -2.6)"/><g class="cls-5"><path class="cls-2" d="M154.36 229.97l12.41 30.14"/><path class="cls-2" d="M169.67 263.07a.37.37 0 0 1-.34-.23l-12.41-30.14a.37.37 0 1 1 .68-.28l12.4 30.14a.37.37 0 0 1-.2.48z" transform="translate(-2.9 -2.6)"/></g><path class="cls-2" d="M164.1 233.56l16.07 24.6"/><path class="cls-2" d="M183.07 261.13a.37.37 0 0 1-.31-.17l-16.07-24.6a.37.37 0 0 1 .61-.4l16.07 24.6a.37.37 0 0 1-.31.57z" transform="translate(-2.9 -2.6)"/><g class="cls-5"><path class="cls-2" d="M169.74 227.61l18.48 20.07"/><path class="cls-2" d="M191.12 250.64a.37.37 0 0 1-.27-.12l-18.48-20.07a.37.37 0 0 1 .54-.5L191.38 250a.37.37 0 0 1-.27.61z" transform="translate(-2.9 -2.6)"/></g><path class="cls-2" d="M178.39 226.36l20.55 15.71"/><path class="cls-2" d="M201.84 245a.36.36 0 0 1-.22-.08l-20.55-15.71a.37.37 0 1 1 .44-.58l20.55 15.71a.37.37 0 0 1-.22.66z" transform="translate(-2.9 -2.6)"/><g class="cls-5"><path class="cls-2" d="M198.94 227.61l9.23 4.46"/><path class="cls-2" d="M211.06 235a.37.37 0 0 1-.16 0l-9.23-4.46a.37.37 0 1 1 .32-.66l9.23 4.46a.37.37 0 0 1-.16.69z" transform="translate(-2.9 -2.6)"/></g><g class="cls-5"><path class="cls-2" d="M130.87 230.13l-9.91 30.98"/><path class="cls-2" d="M123.86 264.08h-.11a.37.37 0 0 1-.24-.46l9.9-31a.37.37 0 0 1 .7.22l-9.9 31a.37.37 0 0 1-.35.24z" transform="translate(-2.9 -2.6)"/></g><path class="cls-2" d="M125.81 226.64l-16.98 31.52"/><path class="cls-2" d="M111.73 261.12a.37.37 0 0 1-.32-.54l17-31.52a.37.37 0 0 1 .64.35l-17 31.52a.37.37 0 0 1-.32.19z" transform="translate(-2.9 -2.6)"/><g class="cls-5"><path class="cls-2" d="M115.09 231.35l-15.23 19.54"/><path class="cls-2" d="M102.76 253.86a.37.37 0 0 1-.29-.59l15.22-19.55a.37.37 0 0 1 .58.45l-15.22 19.55a.36.36 0 0 1-.29.14z" transform="translate(-2.9 -2.6)"/></g><path class="cls-2" d="M109.3 227.22l-24.75 21.92"/><path class="cls-2" d="M87.45 252.1a.37.37 0 0 1-.24-.64L112 229.55a.37.37 0 0 1 .48.55L87.69 252a.36.36 0 0 1-.24.1z" transform="translate(-2.9 -2.6)"/><g class="cls-5"><path class="cls-2" d="M100.28 227.22l-18.74 13.01"/><path class="cls-2" d="M84.44 243.2a.37.37 0 0 1-.21-.67l18.74-13a.37.37 0 0 1 .42.6l-18.74 13a.36.36 0 0 1-.21.07z" transform="translate(-2.9 -2.6)"/></g><path class="cls-2" d="M87.61 228.18l-12.49 7.13"/><path class="cls-2" d="M78 238.27a.37.37 0 0 1-.18-.68l12.49-7.13a.37.37 0 0 1 .36.63l-12.47 7.13a.36.36 0 0 1-.2.05z" transform="translate(-2.9 -2.6)"/></svg>