<svg id="Layer_1" xmlns="http://www.w3.org/2000/svg" viewBox="0 0 868.2 307.7"><style>.st0{fill:#035642}</style><path class="st0" d="M34.8 17.8C50.3 6.2 65.6 0 89.1 0c11.3 0 24.9 3.9 34.5 7.2 2.5.8 4.4 1.3 6.3 1.2-.1 4.8 1.4 18.1 2.3 31-1.1 1.4-5 1.4-6.3.1C123.6 25 116.4 8 86.1 8c-32 0-55.2 26-55.2 62.4 0 37.3 26.8 66.4 57 66.4 26.9 0 37.1-15.1 42.3-27.4 1.5-1 5.4-.5 6.2 1-1.8 10.9-7.6 25.4-10.8 29.3-3.4.7-5.8 1.3-8.1 1.9-5.9 1.4-17.7 3.1-31 3.1-20.5 0-34.9-2.9-50.7-13.4C17.6 119.1 7.5 96.4 7.5 73.5c-.3-23.2 10.4-43 27.3-55.7M283 59.8c0-17.2-1-18.2-11.6-19.9l-4.7-.8c-1.7-1.3-1.5-5.5.5-6.2 9.6.5 17.3.8 25.2.8 7.9 0 15.6-.2 23.7-.7 2 .8 2.2 5 .5 6.2l-3.2.7c-10.4 2.5-11.6 2.7-11.6 19.9v53.6c0 7.7.5 14.7 2.7 17.2 2.2 2.2 4.2 4 17 4 15.1 0 24.2-.7 31.4-20.7 1.7-1.7 5.7-1.3 6.4 1-1.2 10.5-4.7 22.9-7.4 27.7-7.7-.2-14.8-.5-21.8-.5-6.7-.3-13.1-.3-19.5-.3h-18.2c-7.9 0-15.6.2-25.2.7-2-.7-2.2-5-.5-6.2l4.7-.8c10.6-1.7 11.6-2.7 11.6-19.9V59.8zM256.7 136.4l-4-.8c-8.9-1.7-11.1-5-14.1-13.2l-22.2-59.6c-3.5-9.4-6.3-19.9-8.2-25.7-.3-1-.8-2.2-1.3-3-.6-.9-1.2-1.1-1.9-1.1-4 .4-7.7.5-11.2.5-5.4-.3-10.3-.8-15.4-.8-1.4.5-2 2-2 3.5-.1 1.3.4 2.8 1.5 3.4.5.5 5.8.2 10.7 4.8-.9 4-2.7 9.1-5.6 16.3l-21.7 57.7c-4.9 12-7.7 14.7-15.3 16.4l-5.7 1.2c-1.7 1.3-1.7 5.2.5 6.2 4.5-.3 10.4-.8 17.3-.8s13.3.3 19.5.8c2.5-.5 2.7-5 .7-6.2l-6.7-1.3c-4.7-1-5.4-2-2.7-10l5.7-16c2-5.7 2.7-6 8.4-6h23.5c5.7 0 6.4.3 8.4 6l5.9 16.2c3 7.7 3.2 9.2-3.2 10.2l-5 .8c-2.2 1-2 5.5.5 6.2 6.2-.5 13.4-.8 22.2-.8 8.4 0 14.1.3 20.5.8 2.6 0 3.1-4.5.9-5.7m-54.2-41.2h-16.1c-5.4 0-8-.9-5.2-7.6l8.2-22.1c2.3-5.7 3.5-8.2 3.8-8.8.3-.6.6-1 .8-1 .7-.1 1.4 1 1.9 2.3.8 1.6 1.7 4.2 3.1 8.3l7.9 21.2c2.8 7.2 2.1 7.7-4.4 7.7M675.5 59.8c0-17.2.3-18.2-10.3-19.9l-4.7-.8c-1.7-1.3-1.5-5.5.5-6.2 9.6.5 16 .8 23.9.8s15.6-.2 23.7-.7c2 .8 2.2 5 .5 6.2l-3.2.7c-10.4 2.5-11.6 2.7-11.6 19.9v53.6c0 7.7.5 14.7 2.7 17.2 2.2 2.2 7 4 19.8 4 15.1 0 24.2-.7 31.4-20.7 1.7-1.7 5.7-1.3 6.4 1-1.3 10.5-4.7 22.9-7.4 27.7-7.7-.2-14.8-.5-21.7-.5-6.6-.3-13.1-.3-19.5-.3h-21.1c-7.9 0-13.5.2-23.2.7-2-.7-2.2-5-.5-6.2l4.7-.8c10.6-1.7 9.5-2.7 9.5-19.9l.1-55.8zM645.6 87.4c0 33.6-25.2 58.1-60.1 58-38.3 0-61.1-25.2-61-56.6 0-33.2 25.3-58.6 61.1-58.6 39.7 0 60 26.7 60 57.2m-100.2-2.6c0 25.7 12.6 53.4 41.3 53.4 18.8 0 37.9-12.9 37.9-47.1 0-26.7-13.6-53.6-40.8-53.6-17.8 0-38.4 12.2-38.4 47.3M796.4 108.8c0-7.7-.7-9.7-6.9-21.2l-18-33.7c-5.2-10-7.7-12.2-14.1-13.5l-6.4-1.2c-1.7-1.5-1.2-5.5.7-6.2 8.2.5 13.9.8 22.8.8 7.4 0 13.1-.2 21-.7 2 1 2.7 5 .2 6.2l-3.4.7c-5.5 1.3-6.2 2.7-2.2 10.5l9.1 17.7c3.7 7.5 7.4 14.2 11.1 20.7 4-6.7 7.7-12.7 11.9-20.7l9.9-18.2c3.7-7 4.2-9.2-1.7-10l-5.2-.8c-2.2-1.2-2-5.2.5-6.2 7.4.5 13.1.8 18.8.8 5.5 0 10.6-.2 17.6-.7 2 .7 2.5 5 .5 6.2l-5.9 1.3c-7.7 1.5-8.9 3-16.6 15.5L824.8 81c-8.9 14.2-9.4 16.7-9.4 23.9v13.5c0 14.7 1 16.2 11.6 17.5l6.2.8c1.7 1.2 1.5 5.5-.5 6.2-10.9-.5-19-.8-26.7-.8-7.9 0-15.6.2-26.7.7-2-.8-2.2-5-.5-6.2l6.2-.8c10.6-1.2 11.6-2.7 11.6-17.4v-9.6h-.2zM443.4 109.7c0 20.8.8 25.8 18.3 26.1l6.1.6c1.2 1 .8 5.3-.4 5.9-11.8-.4-24.9-.6-33.1-.6-8.7 0-20.2.2-29.4.6-1.2-.6-1.7-4.7-.4-5.9l4.9-.6c12.7-1.5 15.3-2.1 14.9-26.1V33.2c0-17.8-.4-21.5-9.7-22.4l-7.4-.8c-1.5-1.3-1.3-4.4.4-5.2 11-1.5 26-1.7 43.2-1.7s33.8 3.1 43.9 8.6c16.1 8.9 22.7 22.2 22.7 35.7 0 20.3-16.5 32.4-29 36.1-9.7 2.9-26.1 3.4-34.3 2.1-1.6-.2-.3-4 1.1-4 27.4.2 40.2-11.3 41-33.7.9-26.6-16-37.3-37.8-37.3-11 0-14.7 1.1-14.7 7.8l-.3 91.3zM17.3 183.9h837.4v3.7H17.3z"/><g><path class="st0" d="M50.7 253c-4-5.4-10.3-8.1-16.7-8.1-14.9 0-25.5 13.1-25.5 27.7C8.5 288 19 300.3 34 300.3c8.1 0 14.6-3.3 19.3-9.3l5.9 5c-5.9 8-14.6 11.7-25.3 11.7-19.1 0-33.9-14.8-33.9-35.1 0-19.6 14.1-35.1 33.9-35.1 9 0 17.9 3.1 23.6 10.5l-6.8 5zM102.3 239.2h7.4l28.4 66.7h-9.2l-6.8-16.4H88.7l-6.9 16.4h-9l29.5-66.7zm3.6 10.2h-.2l-13.9 32.8h27.3l-13.2-32.8zM157.4 239.2h11.8l22.6 52.3h.2l22.8-52.3h11.5v66.7h-7.9v-56h-.2l-23.9 56h-4.8l-23.9-56h-.2v56h-7.9v-66.7h-.1zM251.4 239.2h19.8c12.3 0 23.4 4.3 23.4 18.3 0 14.6-12.4 18.5-21.9 18.5h-13.4v30h-7.9v-66.8zm8 29.4h13.4c7.9 0 13.4-3.6 13.4-11s-5.5-11-13.4-11h-13.4v22zM367.8 280.5c0 14.5-6.8 27.1-25.2 27.1s-25.2-12.6-25.2-27.1v-41.3h7.9v40.2c0 10.7 4 20.9 17.3 20.9s17.2-10.2 17.2-20.9v-40.2h7.9v41.3h.1zM426.2 251c-2.6-4.2-7.4-6.1-12.2-6.1-7 0-14.2 3.3-14.2 11.2 0 6.1 3.4 8.9 14 12.3 10.4 3.3 20 6.7 20 19.8 0 13.3-11.4 19.5-23.5 19.5-7.7 0-16-2.5-20.5-9.2l6.8-5.6c2.8 4.9 8.5 7.4 14.2 7.4 6.8 0 14.5-4 14.5-11.6 0-8.2-5.6-9.6-17.4-13.6-9.4-3.1-16.6-7.3-16.6-18.4 0-12.8 11-19.2 22.7-19.2 7.5 0 13.8 2.1 18.7 7.8l-6.5 5.7zM492.7 239.2h25.6c13.1 0 32.7 8.8 32.7 33.4S531.4 306 518.3 306h-25.6v-66.8zm7.9 59.4h15.1c15.3 0 26.9-7.7 26.9-26s-11.6-26-26.9-26h-15.1v52zM574.1 239.2h7.9v66.7h-7.9v-66.7zM609 239.2h10l38.7 55.4h.2v-55.4h7.9v66.7h-10l-38.7-55.4h-.2v55.4H609v-66.7zM692.8 239.2h7.9v66.7h-7.9v-66.7zM727.7 239.2h10l38.7 55.4h.2v-55.4h7.9v66.7h-10l-38.6-55.4h-.2v55.4h-7.9v-66.7h-.1zM868.2 301.4c-7.6 4.2-16.3 6.2-25 6.2-20.7 0-35.6-14.1-35.6-35.1s15.9-35.1 35.9-35.1c8.8 0 17.3 2.3 23.6 8.8l-5.9 6.2c-4.5-4.9-11.4-7.6-18.2-7.6-15.3 0-26.9 11.5-26.9 27.7 0 15.9 11.2 27.7 27.6 27.7 5.4 0 11.7-1.4 16.6-3.9v-20.5h-15.4v-7.3h23.3v32.9z"/></g></svg>