<svg id="Layer_1" xmlns="http://www.w3.org/2000/svg" viewBox="0 0 1080 872"><style>.st0{fill:#fff200}.st1{fill:#fff}</style><path class="st0" d="M110.9 410.9v429.7l932.5-315.7V93.5z"/><path class="st1" d="M50.8 363.5v422.8l923.9-310.6V51.3z"/><path d="M36.6 806.2V353.3L988.9 31.4v454.5L36.6 806.2zm28.5-432.4v392.7l895.3-301.1V71.1L65.1 373.8z"/><path d="M150.3 459.8l-28.4 9v-31.5l86.3-27.4-.1 31.6-28.4 9-.2 179.5-29.3 9.1zM225.2 615.7l.3-211.3 29.4-9.4-.2 86.2 31.3-9.9.2-86.2 29.4-9.4-.6 212-29.3 9.2.2-93.9-31.2 9.8-.2 93.8zM343.3 578.8l.7-212.1 78.7-25-.1 31.8-49.3 15.6-.2 54.7 37.9-11.9-.2 31.8-37.8 11.9-.2 62.3 52.5-16.4-.2 31.8zM530.2 490.4l10.2-3.2c7.9-2.5 13.4-6.3 16.5-11.7 3.1-5.3 4.7-13.6 4.8-24.8l.6-93.5c.1-11.2-1.4-18.5-4.5-21.9-3.1-3.4-8.5-3.8-16.4-1.3l-10.2 3.2-1 153.2zm-28.3-173.9l43.6-13.9c15.3-4.9 26.9-3.3 34.6 4.6 7.8 8 11.6 23 11.4 45.1l-.6 84.7c-.1 22.1-4.2 39.6-12 52.5-7.9 12.9-19.4 21.7-34.7 26.5l-43.5 13.6 1.2-213.1zM622.9 491.5l1.5-213.9 29.4-9.3-1.6 214.1zM739.4 293.8c-.3-4.5-.9-8.1-1.9-10.8-1-2.7-2.2-4.8-3.7-6.1-1.5-1.3-3.1-2.1-4.8-2.3-1.7-.2-3.4-.1-5 .4-4.7 1.5-8.4 4.5-10.9 8.9-2.6 4.5-3.9 10.1-3.9 16.8 0 6.1 1.4 11.3 4.2 15.6 2.9 4.2 6.5 8.2 10.9 12 4.4 3.8 9.1 7.4 14.3 11.1 5.2 3.6 9.9 7.9 14.3 12.9s8 10.8 10.8 17.5c2.9 6.7 4.2 14.9 4.1 24.7-.1 8.9-1.3 17.2-3.6 24.7-2.4 7.6-5.6 14.3-9.6 20.2-4.1 5.9-9 11-14.7 15.1-5.8 4.2-12.1 7.3-18.8 9.4-6.8 2.1-12.8 2.4-18.2.9-5.3-1.5-9.8-4.4-13.5-8.7-3.7-4.3-6.5-9.7-8.5-16.2s-3.1-13.7-3.4-21.7l28-13.8c.5 10.7 2.4 18.2 5.5 22.6 3.1 4.4 7 5.8 11.8 4.3 5-1.6 9.2-4.5 12.3-8.9 3.2-4.4 4.8-9.7 4.9-16.1.1-7.1-1.3-13-4.2-17.6-2.9-4.6-6.5-8.8-10.9-12.6-4.4-3.8-9.1-7.4-14.3-10.9-5.2-3.5-9.9-7.6-14.3-12.4-4.4-4.7-8-10.5-10.8-17.3-2.9-6.8-4.3-15.3-4.2-25.6.1-17.2 4.2-31.7 12.2-43.4 8-11.7 19.2-19.9 33.8-24.5 6-1.9 11.4-2.3 16.1-1.3 4.7 1.1 8.8 3.4 12.1 7 3.4 3.6 6.1 8.2 8.1 13.9 2.1 5.7 3.4 12.2 4 19.5l-28.2 12.7zM789.6 439.5l2-215 29.4-9.3-.9 87.6 31.3-9.9.8-87.7 29.4-9.3-2.2 215.6-29.3 9.1.9-95.4-31.2 9.8-.9 95.4z"/></svg>