<svg id="Layer_1" xmlns="http://www.w3.org/2000/svg" viewBox="0 0 5200 2024"><style>.st0{fill:#035642}</style><path class="st0" d="M305.2 259.3c88.1-65.9 175.2-101.5 308.6-101.5 63.9 0 141.4 22 195.9 40.8 14 4.4 25 7.4 35.7 6.9-.4 27.5 7.8 103 12.9 176.2-6.4 8.1-28.1 8-36 .3-12.9-82.2-54.1-178.7-225.9-178.7C414.3 203.3 283 350.8 283 558c0 211.8 152.4 377.5 323.8 377.5 152.8 0 211-85.9 240.3-155.5 8.4-5.8 30.7-2.7 35.1 5.8-10 61.9-43.2 144.5-61.5 166.5-19.3 3.8-32.9 7.3-46.4 10.6-33.6 7.7-100.6 17.6-176.3 17.6-116.5 0-198.5-16.4-287.8-76.1C206.6 834.9 149 705.9 149 575.9c0-131.8 60.2-244.6 156.2-316.6M1715.9 497.8c0-97.7-5.6-103.5-66-113.3l-26.7-4.2c-9.7-7.2-8.4-31.1 2.8-35.4 54.8 2.8 98.4 4.3 143.3 4.3 45 0 88.4-1.4 134.9-4.3 11.3 4.4 12.6 28.4 2.8 35.6l-18.3 4.2c-58.9 14-65.9 15.6-66 113.2l-.1 304.7c-.1 43.8 2.7 83.5 15.4 97.7 12.7 12.7 23.7 22.8 96.7 22.8 85.6 0 137.5-4.3 178.2-117.6 9.9-9.8 32.4-7.2 36.6 5.7-7 59.4-26.8 130.3-42.2 157.1-43.6-1.3-84.3-2.7-123.6-2.7-37.9-1.5-74.4-1.5-110.9-1.5h-103.7c-44.9 0-88.4 1.4-143.3 4-11.2-4.1-12.7-28.3-2.7-35.3l26.6-4.3c60.5-9.8 66-15.5 66.1-113.2l.1-317.5zM1258.6 699.3l-91.3-.1c-30.8 0-45.2-5.3-29.6-43.5l46.6-125.4c13.3-32.6 19.9-46.7 21.7-49.9 1.8-3.2 0 0 0 0 1.8-3.4 3.5-5.6 4.7-5.9 4.1-.9 7.9 5.8 10.8 13.1 4.6 8.9 9.8 24.1 17.8 47.3l44.7 120.5c15.4 41 11.1 43.9-25.4 43.9m307.5 233.8l-22.4-4.2c-50.6-9.8-63.2-28.3-80.1-75l-126.3-338.7c-19.9-53.4-36-113.2-46.9-145.8-1.8-5.7-4.7-12.7-7.4-16.9-3.3-4.9-7-6.4-11.1-6v-.1c-22.9 2.5-43.7 3-63.5 2.8-30.8-1.5-58.7-4.6-87.3-4.3-7.9 2.7-11.5 11.3-11.2 19.8-.5 7.6 2.2 15.7 8.5 19.6 2.8 2.9 33.2 1.4 61 27.5-5.4 23-15.2 51.9-32 92.6L1024 832.3c-28.1 68.1-43.6 83.6-87.2 93.6l-32.3 6.9c-9.8 7.2-9.8 29.9 2.8 35.6 25.3-1.5 59-4.4 98.4-4.4 39.4.1 75.8 1.5 110.9 4.4 14-2.8 15.5-28.3 4.2-35.5l-37.9-7c-26.7-5.6-30.9-11.3-15.5-56.7l32.4-90.7c11.2-32.6 15.5-34 47.7-34l133.4.2c32.3 0 36.6 1.4 47.7 33.9l33.7 92c16.8 44.1 18.2 52.5-18.2 58.1L1316 933c-12.6 5.7-11.2 31.2 2.8 35.5 35.1-2.9 75.9-4.3 126.4-4.3 47.8 0 80.1 1.6 116.6 4.4 14.1-2.8 16.9-28.4 4.3-35.5M3945.9 497.8c0-97.7 1.9-103.5-58.5-113.3l-26.7-4.2c-9.8-7.2-8.5-31.1 2.8-35.4 54.7 2.8 90.8 4.3 135.7 4.3 45 0 88.5-1.4 134.9-4.3 11.3 4.4 12.6 28.4 2.8 35.6l-18.3 4.2c-59 14-66 15.6-66 113.2l-.1 304.7c-.1 43.9 2.7 83.5 15.4 97.7 12.7 12.7 39.7 22.8 112.6 22.8 85.6 0 137.6-4.3 178.4-117.6 9.8-9.8 32.2-7.2 36.5 5.7-7.1 59.4-26.8 130.3-42.3 157.1-43.5-1.3-84.3-2.7-123.6-2.7-37.8-1.5-74.3-1.5-110.8-1.5H3999c-45 0-76.7 1.4-131.5 4-11.2-4.1-12.6-28.3-2.7-35.3l26.7-4.3c60.4-9.8 54.2-15.5 54.2-113.2l.2-317.5zM3206.6 640c-.1 145.9 71.7 303.3 234.6 303.3 106.8 0 215.2-73.6 215.2-267.6 0-151.7-77.3-304.7-231.8-304.7-101.1 0-218 69.3-218 269m569 14.5c0 191.2-143.4 330-341.5 329.8-217.7 0-346.9-143.1-346.8-321.7.1-188.4 143.5-332.8 347.1-332.7 226.1.1 341.3 151.8 341.2 324.6M4632.5 776.6c0-43.8-4.2-55.3-39.2-120.5L4490.7 465c-29.3-56.8-43.4-69.4-80-76.7l-36.5-7c-9.8-8.6-7-31.2 4.1-35.5 46.5 3 78.8 4.3 129.3 4.3 42.2.1 74.5-1.3 119.3-4.2 11.4 5.7 15.6 28.4 1.5 35.5l-19.6 4.2c-31.1 7.1-35.2 15.6-12.7 59.4l51.9 100.7c21 42.5 42.1 80.8 63.2 117.7 22.5-38.3 43.5-72.3 67.4-117.6l56.2-103.3c21.1-39.8 24-52.5-9.8-56.8l-29.5-4.3c-12.6-7-11.3-29.8 2.8-35.5 42.1 3 74.4 4.4 106.6 4.4 31 0 60.5-1.3 99.8-4.2 11.2 4.2 14 28.3 2.8 35.4l-33.8 7.1c-43.5 8.5-50.4 17-94.1 87.8l-87.2 141.5c-50.6 80.8-53.4 95-53.4 136l-.1 76.5c0 83.6 5.7 92.1 66 99.1l35.1 4.4c9.8 6.9 8.5 31.2-2.8 35.4-61.8-2.9-108.1-4.3-151.7-4.3-44.9 0-88.4 1.3-151.8 4.2-11.2-4.3-12.5-28.5-2.7-35.4l35.2-4.4c60.4-6.9 65.9-15.6 66-99v-53.8zM2627.2 781.2c.2 118.4 4.7 146.6 104.1 148.4l34.7 3.7c7.1 6 4.8 30-2.4 33.6-67.1-2.3-141.2-3.7-188.3-3.7-49.3 0-115.1 1.4-166.9 3.7-7-3.7-9.4-26.5-2.3-33.6l27.7-3.7c72.4-8.3 87.2-12.1 84.6-148.4l.2-434.5c0-101-2.3-122.4-55.4-127.1l-42.3-4.7c-8.3-7.3-7.1-25.1 2.3-29.8 62.4-8.3 147.6-9.5 245.4-9.5 97.9.1 192.2 17.4 249.5 48.9 91.7 50.5 128.7 125.9 128.7 202.9 0 115.5-94 184.1-164.6 205.3-55.1 16.5-148.3 19.1-195.2 11.7-8.9-1.3-1.5-23 6.1-23 155.7 1.1 228.2-64.3 232.7-191.8 5.2-151-91-212.1-214.7-212.1-62.4 0-83.8 6.5-83.8 44.5l-.1 519.2zM206.3 1202.9h4757.9v21.2H206.3z"/><g><path class="st0" d="M655.4 1595.4c-22.5-30.6-58.3-46.1-94.8-46.1-84.6 0-144.5 74.4-144.5 157.5 0 87.8 59.4 157.4 144.5 157.4 46.1 0 83.1-18.8 109.9-53.1l33.7 28.4c-33.7 45.6-83 66.4-143.6 66.4-108.6 0-192.8-84-192.8-199.1 0-111.4 80.4-199.2 192.8-199.2 51.4 0 101.8 17.6 133.8 59.4l-39 28.4zM1162.8 1706.8c0-87.3-61.1-157.4-150-157.4-89 0-150 70.1-150 157.4 0 87.3 61 157.4 150 157.4 88.9 0 150-70.2 150-157.4m-348.1 0c0-114.6 83.1-199.2 198.2-199.2s198.1 84.5 198.1 199.2c0 114.6-83 199.2-198.1 199.2s-198.2-84.6-198.2-199.2M1376.7 1684.2h40.2c49.8 0 114.6 0 114.6-62.6 0-54.6-47.7-62.7-91.6-62.7h-63.2v125.3zm-45-167h96.9c73.4 0 151 10.7 151 104.4 0 55.1-35.8 91-94.7 100.1l107.6 174.6h-55.1L1434.6 1726h-57.9v170.3h-45v-379.1zM1774.8 1684.2h76.1c45 0 76-20.3 76-62.6s-31-62.7-76-62.7h-76.1v125.3zm-45-167h112.5c69.6 0 132.8 24.6 132.8 103.9 0 83-70.7 104.9-124.2 104.9h-76.1v170.3h-45v-379.1zM2421.9 1706.8c0-87.3-61-157.4-150-157.4-88.8 0-149.9 70.1-149.9 157.4 0 87.3 61 157.4 149.9 157.4 89 0 150-70.2 150-157.4m-348.1 0c0-114.6 83-199.2 198.1-199.2 115.2 0 198.2 84.5 198.2 199.2 0 114.6-83 199.2-198.2 199.2-115.1 0-198.1-84.6-198.1-199.2M2635.9 1684.2h40.1c49.8 0 114.6 0 114.6-62.6 0-54.6-47.6-62.7-91.6-62.7h-63.1v125.3zm-45-167h96.9c73.4 0 151 10.7 151 104.4 0 55.1-35.9 91-94.8 100.1l107.7 174.6h-55.2L2693.6 1726h-57.8v170.3h-45v-379.1z"/></g><path class="st0" d="M3132.4 1575h-1.2l-78.6 186.3h154.7l-74.9-186.3zm-20.3-57.8h42.3l161.2 379.2H3263l-38.5-93.2H3035l-39.1 93.2H2945l167.1-379.2zM3649.4 1559h-125.3v337.3h-45V1559h-125.2v-41.8h295.5zM3763.8 1517.2h44.9v379.1h-44.9z"/><g><path class="st0" d="M4289.1 1706.8c0-87.3-61-157.4-149.9-157.4s-150 70.1-150 157.4c0 87.3 61 157.4 150 157.4 88.9 0 149.9-70.2 149.9-157.4m-348 0c0-114.6 83-199.2 198.2-199.2 115.1 0 198.1 84.5 198.1 199.2 0 114.6-83 199.2-198.1 199.2-115.2 0-198.2-84.6-198.2-199.2"/></g><path class="st0" d="M4458.1 1517.2h56.7l219.6 314.9h1.1v-314.9h45v379.2h-56.8l-219.5-314.9h-1.2v314.9h-44.9z"/></svg>